<?xml version="1.0" encoding="utf-8"?>
<!-- Generator: Adobe Illustrator 27.0.0, SVG Export Plug-In . SVG Version: 6.00 Build 0)  -->
<svg version="1.1" id="katman_1" focusable="false" xmlns="http://www.w3.org/2000/svg" xmlns:xlink="http://www.w3.org/1999/xlink"
	 x="0px" y="0px" viewBox="0 0 32 32" style="enable-background:new 0 0 32 32;" xml:space="preserve">
<style type="text/css">
	.st0{fill:#FFFFFF;}
</style>
<path class="st0" d="M26.5,6.4c-1.9-0.9-4-1.5-6.2-1.9c0,0-0.1,0-0.1,0C20,5,19.7,5.6,19.5,6.1c-2.3-0.3-4.6-0.3-6.9,0
	C12.3,5.6,12,5,11.8,4.5c0,0-0.1-0.1-0.1,0c-2.2,0.4-4.2,1-6.2,1.9c0,0,0,0,0,0C1.5,12.3,0.5,18,1,23.6c0,0,0,0.1,0,0.1
	c2.6,1.9,5.1,3.1,7.6,3.8c0,0,0.1,0,0.1,0c0.6-0.8,1.1-1.6,1.5-2.5c0-0.1,0-0.1-0.1-0.1c-0.8-0.3-1.6-0.7-2.4-1.1
	c-0.1,0-0.1-0.1,0-0.2c0.2-0.1,0.3-0.2,0.5-0.4c0,0,0.1,0,0.1,0c5,2.3,10.3,2.3,15.2,0c0,0,0.1,0,0.1,0c0.2,0.1,0.3,0.2,0.5,0.4
	c0.1,0,0.1,0.1,0,0.2c-0.8,0.4-1.5,0.8-2.4,1.1c-0.1,0-0.1,0.1-0.1,0.1c0.5,0.9,1,1.7,1.5,2.5c0,0,0.1,0,0.1,0
	c2.5-0.8,5-1.9,7.6-3.8c0,0,0,0,0-0.1C31.6,17.1,30,11.4,26.5,6.4C26.5,6.4,26.5,6.4,26.5,6.4z M11,20.2c-1.5,0-2.7-1.4-2.7-3.1
	s1.2-3.1,2.7-3.1c1.5,0,2.7,1.4,2.7,3.1C13.7,18.8,12.5,20.2,11,20.2z M21,20.2c-1.5,0-2.7-1.4-2.7-3.1s1.2-3.1,2.7-3.1
	c1.5,0,2.7,1.4,2.7,3.1C23.8,18.8,22.6,20.2,21,20.2z"/>
</svg>
