<?xml version="1.0" encoding="utf-8"?>
<!-- Generator: Adobe Illustrator 27.0.0, SVG Export Plug-In . SVG Version: 6.00 Build 0)  -->
<svg version="1.1" id="katman_1" xmlns="http://www.w3.org/2000/svg" xmlns:xlink="http://www.w3.org/1999/xlink" x="0px" y="0px"
	 viewBox="0 0 989 1281" style="enable-background:new 0 0 989 1281;" xml:space="preserve">
<style type="text/css">
	.st0{fill:#1C1A27;}
	.st1{fill:none;stroke:url(#SVGID_1_);stroke-opacity:0.6;}
	.st2{fill:url(#SVGID_00000013907391430680626090000004783573123104051363_);}
	.st3{fill:#FFFFFF;}
	.st4{fill:url(#SVGID_00000083067156054845350290000014377352212631462316_);}
	.st5{fill:none;stroke:#FFFFFF;stroke-width:2;stroke-opacity:0.2;}
	.st6{fill:url(#SVGID_00000014602315304833372780000007590477496076792193_);}
	.st7{fill:url(#SVGID_00000089560057388057876970000009059398194990505908_);}
	.st8{fill:url(#SVGID_00000134962628670715641950000015447589013756476830_);}
	.st9{fill:url(#SVGID_00000109023146171055783470000005529424237729360041_);}
	.st10{fill:#E6007E;}
</style>
<g>
	<path class="st0" d="M60,35h279c33.1,0,60,26.9,60,60v273c0,33.1-26.9,60-60,60H60c-33.1,0-60-26.9-60-60V95C0,61.9,26.9,35,60,35z
		"/>
</g>
<g>
	<path class="st0" d="M60,853h279c33.1,0,60,26.9,60,60v273c0,33.1-26.9,60-60,60H60c-33.1,0-60-26.9-60-60V913
		C0,879.9,26.9,853,60,853z"/>
</g>
<g>
	<path class="st0" d="M650,428h279c33.1,0,60,26.9,60,60v273c0,33.1-26.9,60-60,60H650c-33.1,0-60-26.9-60-60V488
		C590,454.9,616.9,428,650,428z"/>
</g>
<linearGradient id="SVGID_1_" gradientUnits="userSpaceOnUse" x1="493.5" y1="230.7712" x2="493.5" y2="1403.0964" gradientTransform="matrix(1 0 0 -1 0 1452)">
	<stop  offset="0" style="stop-color:#FFFFFF;stop-opacity:0"/>
	<stop  offset="0.5" style="stop-color:#FFFFFF;stop-opacity:0.6398"/>
	<stop  offset="1" style="stop-color:#FFFFFF;stop-opacity:0"/>
</linearGradient>
<line class="st1" x1="493.5" y1="0" x2="493.5" y2="1281"/>
<linearGradient id="SVGID_00000023999902633370213130000002909106396268420788_" gradientUnits="userSpaceOnUse" x1="493" y1="861" x2="493" y2="793" gradientTransform="matrix(1 0 0 -1 0 1452)">
	<stop  offset="0" style="stop-color:#FE316F"/>
	<stop  offset="1" style="stop-color:#D220FF"/>
</linearGradient>
<circle style="fill:url(#SVGID_00000023999902633370213130000002909106396268420788_);" cx="493" cy="625" r="34"/>
<path class="st3" d="M501,632v3.9h-16.7v-1c0.1-2.1,0.8-4.2,1.9-6.1c1.1-2,2.8-3.4,5-4.3c0.5-0.2,0.8-0.4,1.1-0.4
	c1.1-0.4,1.9-0.8,2.5-1.1c0.6-0.3,1.1-0.7,1.5-1.1c0.4-0.4,0.6-1,0.6-1.6c0-0.7-0.2-1.3-0.6-1.8c-0.4-0.5-0.9-0.9-1.5-1.2
	c-0.6-0.3-1.2-0.4-1.8-0.4c-1.3,0-2.4,0.3-3.4,0.8c-0.9,0.5-1.5,1.3-1.6,2.4l-3.9-0.4c0.2-1.4,0.7-2.5,1.6-3.5
	c0.9-1,1.9-1.7,3.2-2.2c1.3-0.5,2.7-0.8,4.2-0.8c1.3,0,2.6,0.3,3.8,0.8s2.2,1.4,2.9,2.4c0.7,1,1.1,2.3,1.1,3.7s-0.3,2.6-1,3.5
	c-0.7,0.9-1.5,1.7-2.6,2.3c-1.1,0.6-2.5,1.2-4.4,2c-1.6,0.6-2.8,2-3.5,4.1H501z"/>
<linearGradient id="SVGID_00000144302705984427764580000010457415853965434291_" gradientUnits="userSpaceOnUse" x1="493" y1="1268" x2="493" y2="1200" gradientTransform="matrix(1 0 0 -1 0 1452)">
	<stop  offset="0" style="stop-color:#FE316F"/>
	<stop  offset="1" style="stop-color:#D220FF"/>
</linearGradient>
<circle style="fill:url(#SVGID_00000144302705984427764580000010457415853965434291_);" cx="493" cy="218" r="34"/>
<path class="st3" d="M494.9,206.6V225h6.1v4h-16.8v-4h6.5v-14l-3.5,2.1l-2.2-3.3l5.7-3.3v0H494.9z"/>
<line class="st5" x1="458" y1="221" x2="399" y2="221"/>
<linearGradient id="SVGID_00000036227843116266281300000009961319742683777726_" gradientUnits="userSpaceOnUse" x1="493" y1="450" x2="493" y2="382" gradientTransform="matrix(1 0 0 -1 0 1452)">
	<stop  offset="0" style="stop-color:#FE316F"/>
	<stop  offset="1" style="stop-color:#D220FF"/>
</linearGradient>
<circle style="fill:url(#SVGID_00000036227843116266281300000009961319742683777726_);" cx="493" cy="1036" r="34"/>
<path class="st3" d="M498,1035.1c0.9,0.6,1.6,1.4,2,2.3c0.5,0.9,0.7,1.9,0.7,2.9c0,1.3-0.4,2.5-1.1,3.6c-0.7,1.1-1.7,1.9-3,2.5
	c-1.3,0.6-2.7,0.9-4.2,0.9c-1.5,0-2.8-0.3-4-0.8c-1.2-0.6-2.2-1.3-2.9-2.3c-0.7-1-1.2-2.1-1.2-3.3l4.3-0.3c0.2,0.8,0.7,1.5,1.4,2
	c0.7,0.5,1.6,0.8,2.5,0.8c1.2,0,2.2-0.3,3-0.9s1.2-1.4,1.2-2.4c0-1-0.4-1.8-1.2-2.4c-0.8-0.6-1.8-0.9-3-0.9h-1.2l0-3.4h1.2
	c1.1,0,1.9-0.2,2.6-0.8c0.7-0.5,1.1-1.2,1.1-2c0-0.8-0.4-1.5-1.1-2c-0.7-0.5-1.6-0.8-2.7-0.8c-0.8,0-1.5,0.2-2.1,0.5
	c-0.7,0.4-1.1,0.8-1.4,1.4l-4.1-0.3c0.1-1,0.6-1.9,1.3-2.8c0.7-0.8,1.6-1.5,2.8-1.9c1.1-0.5,2.3-0.7,3.6-0.7c1.5,0,2.8,0.3,4,0.9
	c1.2,0.5,2.1,1.3,2.8,2.3c0.7,1,1,2.1,1,3.3c0,0.9-0.2,1.7-0.6,2.4C499.3,1033.9,498.7,1034.5,498,1035.1z"/>
<line class="st5" x1="458" y1="1039" x2="399" y2="1039"/>
<line class="st5" x1="586" y1="626" x2="527" y2="626"/>
<linearGradient id="SVGID_00000011004486906298600150000015369386798958962849_" gradientUnits="userSpaceOnUse" x1="143.315" y1="1367.976" x2="281.202" y2="1367.976" gradientTransform="matrix(1 0 0 -1 0 1452)">
	<stop  offset="0" style="stop-color:#FE316F"/>
	<stop  offset="1" style="stop-color:#D220FF"/>
</linearGradient>
<path style="fill:url(#SVGID_00000011004486906298600150000015369386798958962849_);" d="M150.4,72.6c1.3,0,2.5,0.3,3.7,1
	c1.1,0.6,2,1.5,2.7,2.7c0.7,1.1,1,2.4,1,3.7s-0.3,2.5-1,3.7c-0.6,1.1-1.5,2-2.7,2.7s-2.4,1-3.7,1h-4V95h-4.2V72.6H150.4z
	 M150.4,83.3c0.9,0,1.7-0.3,2.3-1c0.7-0.7,1-1.5,1-2.4c0-0.9-0.3-1.7-1-2.4c-0.6-0.7-1.4-1-2.3-1h-4v6.7H150.4z M175.1,95h-3.9v-9.5
	c0-1.2-0.3-2-1-2.6c-0.7-0.5-1.5-0.8-2.4-0.8c-0.7,0-1.4,0.2-2,0.7c-0.6,0.4-1,1.2-1.1,2.1v10h-4V72.6h4v7.7
	c0.5-0.5,1.1-0.9,1.8-1.2c0.7-0.3,1.4-0.4,2.2-0.4c0.9,0,1.9,0.2,2.8,0.6c1,0.4,1.8,1.1,2.5,2.1c0.7,1,1.1,2.4,1.1,4.1V95z
	 M190.9,79h4v16h-4v-1.6c-0.7,0.6-1.6,1.1-2.5,1.5c-0.9,0.3-1.8,0.5-2.8,0.5c-1.6,0-3-0.4-4.3-1.1c-1.2-0.7-2.2-1.7-2.8-3
	c-0.6-1.3-1-2.7-1-4.3c0-1.6,0.3-3,1-4.3c0.7-1.3,1.6-2.3,2.8-3c1.2-0.7,2.6-1.1,4.3-1.1c1,0,1.9,0.2,2.8,0.5
	c0.9,0.3,1.7,0.8,2.5,1.5V79z M186.2,91.6c0.9,0,1.7-0.2,2.4-0.6c0.7-0.4,1.3-1,1.7-1.7c0.4-0.7,0.6-1.5,0.6-2.4
	c0-1.3-0.5-2.4-1.4-3.3c-0.9-0.9-2-1.3-3.3-1.3c-1.3,0-2.5,0.4-3.3,1.3c-0.9,0.9-1.3,2-1.3,3.3c0,1.3,0.4,2.5,1.3,3.3
	C183.7,91.2,184.8,91.6,186.2,91.6z M201.8,83.5c0,0.4,0.2,0.8,0.7,1c0.5,0.2,1.3,0.4,2.4,0.7c1.2,0.3,2.3,0.5,3.1,0.9
	s1.5,0.8,2.1,1.5c0.6,0.7,0.9,1.6,0.9,2.8c0,1-0.3,2-1,2.7c-0.6,0.8-1.4,1.4-2.5,1.8c-1,0.4-2.2,0.6-3.4,0.6c-1.7,0-3.1-0.3-4.4-1
	c-1.2-0.6-2.1-1.6-2.7-2.8l3.3-1.7c0.6,1.5,1.8,2.2,3.7,2.2c0.8,0,1.5-0.2,2.1-0.5c0.6-0.3,0.9-0.8,0.9-1.4c0-0.5-0.3-0.9-0.8-1.1
	c-0.5-0.3-1.4-0.5-2.6-0.8c-1.3-0.3-2.3-0.6-3.1-0.9c-0.8-0.3-1.5-0.8-2-1.4c-0.6-0.6-0.9-1.5-0.9-2.5c0-1,0.3-1.9,0.9-2.7
	c0.6-0.8,1.4-1.4,2.3-1.8c1-0.4,2.1-0.6,3.2-0.6c1.4,0,2.6,0.3,3.7,0.9c1.1,0.6,2,1.4,2.6,2.5l-3.2,1.6c-0.6-1.2-1.6-1.8-3-1.8
	c-0.7,0-1.3,0.2-1.8,0.5C202,82.5,201.8,82.9,201.8,83.5z M221.1,78.6c1.5,0,2.9,0.4,4.1,1.2c1.2,0.7,2.2,1.8,2.9,3s1,2.7,1,4.3
	c0,0.5,0,1-0.1,1.4h-12.4c0.3,1.1,0.9,2,1.7,2.7c0.8,0.6,1.8,0.9,3.1,0.9c0.8,0,1.5-0.2,2.2-0.5c0.7-0.3,1.3-0.8,1.6-1.3l3,1.8
	c-0.7,1.1-1.7,2-2.9,2.6c-1.2,0.6-2.5,0.9-4.1,0.9c-1.7,0-3.2-0.4-4.5-1.1c-1.3-0.7-2.3-1.7-3.1-3c-0.7-1.3-1.1-2.7-1.1-4.3
	c0-1.6,0.4-3,1.1-4.3c0.7-1.3,1.7-2.3,3-3C218,79,219.4,78.6,221.1,78.6z M225.4,85.3c-0.2-1-0.7-1.8-1.4-2.4
	c-0.8-0.6-1.7-0.9-2.9-0.9c-0.8,0-1.6,0.1-2.2,0.4c-0.7,0.3-1.2,0.7-1.6,1.2s-0.6,1.1-0.6,1.6H225.4z M250.3,72.6V91h6.1v4h-16.8v-4
	h6.5v-14l-3.5,2.1l-2.2-3.3l5.7-3.3v0H250.3z"/>
<linearGradient id="SVGID_00000121245359420140144620000001000952214605960866_" gradientUnits="userSpaceOnUse" x1="143.315" y1="550.184" x2="281.202" y2="550.184" gradientTransform="matrix(1 0 0 -1 0 1452)">
	<stop  offset="0" style="stop-color:#FE316F"/>
	<stop  offset="1" style="stop-color:#D220FF"/>
</linearGradient>
<path style="fill:url(#SVGID_00000121245359420140144620000001000952214605960866_);" d="M150.4,890.6c1.3,0,2.5,0.3,3.7,1
	c1.1,0.6,2,1.5,2.7,2.7c0.7,1.1,1,2.4,1,3.7s-0.3,2.5-1,3.7c-0.6,1.1-1.5,2-2.7,2.7c-1.1,0.7-2.4,1-3.7,1h-4v7.7h-4.2v-22.4H150.4z
	 M150.4,901.3c0.9,0,1.7-0.3,2.3-1c0.7-0.7,1-1.5,1-2.4s-0.3-1.7-1-2.4c-0.6-0.7-1.4-1-2.3-1h-4v6.7H150.4z M175.1,913h-3.9v-9.5
	c0-1.2-0.3-2-1-2.6c-0.7-0.5-1.5-0.8-2.4-0.8c-0.7,0-1.4,0.2-2,0.7c-0.6,0.4-1,1.2-1.1,2.1v10h-4v-22.4h4v7.7
	c0.5-0.5,1.1-0.9,1.8-1.2c0.7-0.3,1.4-0.4,2.2-0.4c0.9,0,1.9,0.2,2.8,0.6c1,0.4,1.8,1.1,2.5,2.1c0.7,1,1.1,2.4,1.1,4.1V913z
	 M190.9,897h4v16h-4v-1.6c-0.7,0.6-1.6,1.1-2.5,1.5c-0.9,0.3-1.8,0.5-2.8,0.5c-1.6,0-3-0.4-4.3-1.1c-1.2-0.7-2.2-1.7-2.8-3
	c-0.6-1.3-1-2.7-1-4.3c0-1.6,0.3-3,1-4.3c0.7-1.3,1.6-2.3,2.8-3c1.2-0.7,2.6-1.1,4.3-1.1c1,0,1.9,0.2,2.8,0.5
	c0.9,0.3,1.7,0.8,2.5,1.5V897z M186.2,909.6c0.9,0,1.7-0.2,2.4-0.6c0.7-0.4,1.3-1,1.7-1.7c0.4-0.7,0.6-1.5,0.6-2.4
	c0-1.3-0.5-2.4-1.4-3.3c-0.9-0.9-2-1.3-3.3-1.3c-1.3,0-2.5,0.4-3.3,1.3c-0.9,0.9-1.3,2-1.3,3.3s0.4,2.5,1.3,3.3
	C183.7,909.2,184.8,909.6,186.2,909.6z M201.8,901.5c0,0.4,0.2,0.8,0.7,1c0.5,0.2,1.3,0.4,2.4,0.7c1.2,0.3,2.3,0.5,3.1,0.9
	s1.5,0.8,2.1,1.5c0.6,0.7,0.9,1.6,0.9,2.8c0,1-0.3,2-1,2.7c-0.6,0.8-1.4,1.4-2.5,1.8c-1,0.4-2.2,0.6-3.4,0.6c-1.7,0-3.1-0.3-4.4-1
	c-1.2-0.6-2.1-1.6-2.7-2.8l3.3-1.7c0.6,1.5,1.8,2.2,3.7,2.2c0.8,0,1.5-0.2,2.1-0.5c0.6-0.3,0.9-0.8,0.9-1.4c0-0.5-0.3-0.9-0.8-1.1
	c-0.5-0.3-1.4-0.5-2.6-0.8c-1.3-0.3-2.3-0.6-3.1-0.9c-0.8-0.3-1.5-0.8-2-1.4c-0.6-0.6-0.9-1.5-0.9-2.5c0-1,0.3-1.9,0.9-2.7
	c0.6-0.8,1.4-1.4,2.3-1.8c1-0.4,2.1-0.6,3.2-0.6c1.4,0,2.6,0.3,3.7,0.9c1.1,0.6,2,1.4,2.6,2.5l-3.2,1.6c-0.6-1.2-1.6-1.8-3-1.8
	c-0.7,0-1.3,0.2-1.8,0.5C202,900.5,201.8,900.9,201.8,901.5z M221.1,896.6c1.5,0,2.9,0.4,4.1,1.2c1.2,0.7,2.2,1.8,2.9,3s1,2.7,1,4.3
	c0,0.5,0,1-0.1,1.4h-12.4c0.3,1.1,0.9,2,1.7,2.7c0.8,0.6,1.8,0.9,3.1,0.9c0.8,0,1.5-0.2,2.2-0.5c0.7-0.3,1.3-0.8,1.6-1.3l3,1.8
	c-0.7,1.1-1.7,2-2.9,2.6c-1.2,0.6-2.5,0.9-4.1,0.9c-1.7,0-3.2-0.4-4.5-1.1s-2.3-1.7-3.1-3c-0.7-1.3-1.1-2.7-1.1-4.3
	c0-1.6,0.4-3,1.1-4.3c0.7-1.3,1.7-2.3,3-3C218,897,219.4,896.6,221.1,896.6z M225.4,903.3c-0.2-1-0.7-1.8-1.4-2.4
	c-0.8-0.6-1.7-0.9-2.9-0.9c-0.8,0-1.6,0.1-2.2,0.4c-0.7,0.3-1.2,0.7-1.6,1.2c-0.4,0.5-0.6,1.1-0.6,1.6H225.4z M253.4,901.1
	c0.9,0.6,1.6,1.4,2,2.3c0.5,0.9,0.7,1.9,0.7,2.9c0,1.3-0.4,2.5-1.1,3.6c-0.7,1.1-1.7,1.9-3,2.5c-1.3,0.6-2.7,0.9-4.2,0.9
	c-1.5,0-2.8-0.3-4-0.8c-1.2-0.6-2.2-1.3-2.9-2.3c-0.7-1-1.2-2.1-1.2-3.3l4.3-0.3c0.2,0.8,0.7,1.5,1.4,2c0.7,0.5,1.6,0.8,2.5,0.8
	c1.2,0,2.2-0.3,3-0.9c0.8-0.6,1.2-1.4,1.2-2.4c0-1-0.4-1.7-1.2-2.4c-0.8-0.6-1.8-0.9-3-0.9h-1.2l0-3.4h1.2c1.1,0,1.9-0.3,2.6-0.8
	c0.7-0.5,1.1-1.2,1.1-2c0-0.8-0.4-1.5-1.1-2c-0.7-0.5-1.6-0.8-2.7-0.8c-0.8,0-1.5,0.2-2.1,0.5c-0.7,0.4-1.1,0.8-1.4,1.4l-4.1-0.3
	c0.1-1,0.6-2,1.3-2.8c0.7-0.8,1.6-1.5,2.8-2c1.1-0.5,2.3-0.7,3.6-0.7c1.5,0,2.8,0.3,4,0.9c1.2,0.6,2.1,1.3,2.8,2.3
	c0.7,1,1,2.1,1,3.3c0,0.9-0.2,1.7-0.6,2.4C254.7,899.9,254.1,900.5,253.4,901.1z"/>
<linearGradient id="SVGID_00000003783748514962680150000005375058950823007921_" gradientUnits="userSpaceOnUse" x1="733.315" y1="975.184" x2="871.202" y2="975.184" gradientTransform="matrix(1 0 0 -1 0 1452)">
	<stop  offset="0" style="stop-color:#FE316F"/>
	<stop  offset="1" style="stop-color:#D220FF"/>
</linearGradient>
<path style="fill:url(#SVGID_00000003783748514962680150000005375058950823007921_);" d="M740.4,465.6c1.3,0,2.5,0.3,3.7,1
	c1.1,0.6,2,1.5,2.7,2.7c0.7,1.1,1,2.4,1,3.7s-0.3,2.5-1,3.7c-0.6,1.1-1.5,2-2.7,2.7c-1.1,0.7-2.4,1-3.7,1h-4v7.7h-4.2v-22.4H740.4z
	 M740.4,476.3c0.9,0,1.7-0.3,2.3-1c0.7-0.7,1-1.5,1-2.4c0-0.9-0.3-1.7-1-2.4c-0.6-0.7-1.4-1-2.3-1h-4v6.7H740.4z M765.1,488h-3.9
	v-9.5c0-1.2-0.3-2-1-2.6c-0.7-0.5-1.5-0.8-2.4-0.8c-0.7,0-1.4,0.2-2,0.7c-0.6,0.4-0.9,1.2-1.1,2.1v10h-4v-22.4h4v7.7
	c0.5-0.5,1.1-0.9,1.8-1.2c0.7-0.3,1.5-0.4,2.2-0.4c0.9,0,1.9,0.2,2.8,0.6c1,0.4,1.8,1.1,2.5,2.1c0.7,1,1.1,2.4,1.1,4.1V488z
	 M780.9,472h4v16h-4v-1.6c-0.7,0.6-1.6,1.1-2.5,1.5c-0.9,0.3-1.8,0.5-2.8,0.5c-1.6,0-3-0.4-4.3-1.1c-1.2-0.7-2.2-1.7-2.8-3
	c-0.6-1.3-1-2.7-1-4.3c0-1.6,0.3-3,1-4.3c0.7-1.3,1.6-2.3,2.8-3c1.2-0.7,2.6-1.1,4.3-1.1c1,0,1.9,0.2,2.8,0.5
	c0.9,0.3,1.7,0.8,2.5,1.5V472z M776.2,484.6c0.9,0,1.7-0.2,2.4-0.6c0.7-0.4,1.3-1,1.7-1.7c0.4-0.7,0.6-1.5,0.6-2.4
	c0-1.3-0.5-2.4-1.4-3.3c-0.9-0.9-2-1.3-3.3-1.3c-1.3,0-2.5,0.4-3.3,1.3c-0.9,0.9-1.3,2-1.3,3.3c0,1.3,0.4,2.5,1.3,3.3
	C773.7,484.2,774.8,484.6,776.2,484.6z M791.8,476.5c0,0.4,0.2,0.8,0.7,1c0.5,0.2,1.3,0.4,2.4,0.7c1.2,0.3,2.3,0.5,3.1,0.9
	c0.8,0.3,1.5,0.8,2.1,1.5c0.6,0.7,0.9,1.6,0.9,2.8c0,1-0.3,2-1,2.7c-0.6,0.8-1.5,1.4-2.5,1.8c-1,0.4-2.2,0.6-3.4,0.6
	c-1.7,0-3.1-0.3-4.4-1c-1.2-0.6-2.1-1.6-2.7-2.8l3.3-1.7c0.6,1.5,1.8,2.2,3.7,2.2c0.8,0,1.5-0.2,2.1-0.5c0.6-0.3,0.9-0.8,0.9-1.4
	c0-0.5-0.3-0.9-0.8-1.1c-0.5-0.3-1.4-0.5-2.6-0.8c-1.3-0.3-2.3-0.6-3.1-0.9c-0.8-0.3-1.5-0.8-2-1.4c-0.6-0.6-0.9-1.5-0.9-2.5
	c0-1,0.3-1.9,0.9-2.7c0.6-0.8,1.4-1.4,2.3-1.8c1-0.4,2.1-0.6,3.2-0.6c1.4,0,2.6,0.3,3.7,0.9c1.1,0.6,2,1.4,2.6,2.5l-3.2,1.6
	c-0.6-1.2-1.6-1.8-3-1.8c-0.7,0-1.3,0.2-1.8,0.5C792,475.5,791.8,475.9,791.8,476.5z M811.1,471.6c1.5,0,2.9,0.4,4.1,1.2
	c1.2,0.7,2.2,1.8,2.9,3s1,2.7,1,4.3c0,0.5,0,1-0.1,1.4h-12.4c0.3,1.1,0.9,2,1.7,2.7c0.8,0.6,1.8,0.9,3.1,0.9c0.8,0,1.5-0.2,2.2-0.5
	c0.7-0.3,1.3-0.8,1.6-1.3l3,1.8c-0.7,1.1-1.7,2-2.9,2.6c-1.2,0.6-2.5,0.9-4.1,0.9c-1.7,0-3.2-0.4-4.5-1.1c-1.3-0.7-2.3-1.7-3.1-3
	c-0.7-1.3-1.1-2.7-1.1-4.3c0-1.6,0.4-3,1.1-4.3c0.7-1.3,1.7-2.3,3-3C808,472,809.4,471.6,811.1,471.6z M815.4,478.3
	c-0.2-1-0.7-1.8-1.4-2.4c-0.8-0.6-1.7-0.9-2.9-0.9c-0.8,0-1.6,0.1-2.2,0.4c-0.7,0.3-1.2,0.7-1.6,1.2c-0.4,0.5-0.6,1.1-0.6,1.6H815.4
	z M846.5,484v3.9h-16.7v-1c0.2-2.1,0.8-4.2,1.9-6.1c1.1-2,2.8-3.4,5-4.3c0.5-0.2,0.8-0.4,1.1-0.4c1.1-0.4,1.9-0.8,2.5-1.1
	c0.6-0.3,1.1-0.7,1.5-1.1c0.4-0.4,0.6-1,0.6-1.6c0-0.7-0.2-1.3-0.6-1.8c-0.4-0.5-0.9-0.9-1.5-1.2c-0.6-0.3-1.2-0.4-1.8-0.4
	c-1.3,0-2.4,0.3-3.4,0.8c-0.9,0.5-1.5,1.3-1.6,2.4l-3.9-0.4c0.2-1.4,0.7-2.5,1.6-3.5c0.9-1,1.9-1.7,3.2-2.2c1.3-0.5,2.7-0.8,4.2-0.8
	c1.3,0,2.6,0.3,3.8,0.8c1.2,0.6,2.2,1.4,2.9,2.4c0.7,1,1.1,2.3,1.1,3.7c0,1.4-0.3,2.6-1,3.5c-0.7,0.9-1.5,1.7-2.6,2.3
	c-1.1,0.6-2.5,1.2-4.4,2c-1.6,0.6-2.8,2-3.5,4.1H846.5z"/>
<g>
	<path class="st3" d="M65.7,185.3c0-1.4,1.1-2.5,2.5-2.5c1.4,0,2.5,1.1,2.5,2.5c0,1.4-1.1,2.5-2.5,2.5
		C66.9,187.8,65.7,186.7,65.7,185.3z"/>
	<path class="st3" d="M102.5,176.7h-6.3v18.7h-1.6v-18.7h-6.3v-1.4h14.2V176.7z"/>
	<path class="st3" d="M101.9,188.2c0-4.3,3.4-7.5,7.6-7.5c4.2,0,7.5,3.3,7.5,7.5c0,4.3-3.4,7.5-7.5,7.5
		C105.2,195.7,101.9,192.5,101.9,188.2z M115.5,188.2c0-3.4-2.6-6.1-6.1-6.1c-3.4,0-6.1,2.7-6.1,6.1s2.7,6.1,6.1,6.1
		C112.9,194.3,115.5,191.6,115.5,188.2z"/>
	<path class="st3" d="M129.5,195.4l-7.6-7.1v7.1h-1.4v-20.2h1.4v12.3l7.3-6.5h2l-7.7,6.9l8,7.5H129.5z"/>
	<path class="st3" d="M146.5,188.3c0,0.2,0,0.5,0,0.7h-13c0.3,3.3,2.8,5.4,6.1,5.4c2.4,0,4.1-1.1,5-2.6l1.3,0.7
		c-1.2,2-3.4,3.3-6.3,3.3c-4.4,0-7.6-3.2-7.6-7.5c0-4.2,3.1-7.5,7.5-7.5C143.8,180.7,146.5,184.3,146.5,188.3z M133.4,187.6H145
		c-0.3-3.5-2.8-5.5-5.6-5.5C136.1,182.1,133.7,184.4,133.4,187.6z"/>
	<path class="st3" d="M162,186.5v9h-1.5v-9c0-2.6-1.5-4.4-4.2-4.4c-2.8,0-5,1.8-5,5.7v7.6h-1.4V181h1.4v2.7c1.1-2.1,2.9-3.1,5.2-3.1
		C159.9,180.7,162,183,162,186.5z"/>
	<path class="st3" d="M185.1,194v1.4h-11v-20.2h1.5V194H185.1z"/>
	<path class="st3" d="M201.4,181v14.4h-1.5v-3.3c-1.2,2.2-3.4,3.6-6.2,3.6c-4.1,0-7.5-3.3-7.5-7.5c0-4.3,3.4-7.5,7.5-7.5
		c2.8,0,5,1.4,6.2,3.6V181H201.4z M199.9,188.2c0-3.4-2.6-6.1-6.1-6.1c-3.4,0-6.1,2.7-6.1,6.1s2.7,6.1,6.1,6.1
		C197.3,194.3,199.9,191.6,199.9,188.2z"/>
	<path class="st3" d="M217.7,181v14.4h-1.4v-2.7c-1.1,2.1-2.9,3.1-5.2,3.1c-3.4,0-5.6-2.3-5.6-5.8v-9h1.5v9c0,2.6,1.5,4.4,4.2,4.4
		c2.8,0,5-1.8,5-5.7V181H217.7z"/>
	<path class="st3" d="M234.3,186.5v9h-1.5v-9c0-2.6-1.5-4.4-4.2-4.4c-2.8,0-5,1.8-5,5.7v7.6h-1.4V181h1.4v2.7
		c1.1-2.1,2.9-3.1,5.2-3.1C232.1,180.7,234.3,183,234.3,186.5z"/>
	<path class="st3" d="M237.4,188.2c0-4.3,3.2-7.5,7.6-7.5c2.8,0,5.2,1.4,6.3,3.7l-1.2,0.7c-0.8-1.8-2.8-3-5.1-3
		c-3.5,0-6.1,2.7-6.1,6.1s2.6,6.1,6.1,6.1c2.3,0,4.2-1.2,5.2-3l1.2,0.7c-1.2,2.2-3.6,3.7-6.4,3.7
		C240.6,195.7,237.4,192.5,237.4,188.2z"/>
	<path class="st3" d="M266.7,186.5v9h-1.5v-9c0-2.6-1.5-4.4-4.2-4.4c-2.8,0-5,1.8-5,5.7v7.6h-1.4v-20.2h1.4v8.5
		c1.1-2.1,2.9-3.1,5.2-3.1C264.5,180.7,266.7,183,266.7,186.5z"/>
	<path class="st3" d="M65.7,226.1c0-1.4,1.1-2.5,2.5-2.5c1.4,0,2.5,1.1,2.5,2.5c0,1.4-1.1,2.5-2.5,2.5
		C66.9,228.6,65.7,227.5,65.7,226.1z"/>
	<path class="st3" d="M101.2,226.8H96v5.2h-1.4v-5.2h-5.2v-1.4h5.2v-5.2H96v5.2h5.2V226.8z"/>
	<path class="st3" d="M110.1,216.1v20.2h-1.5v-18.5l-4.7,1.5l-0.4-1.3l5.3-1.8H110.1z"/>
	<path class="st3" d="M115.7,240.2h-1.3l1.1-6h1.8L115.7,240.2z"/>
	<path class="st3" d="M119.7,226.1c0-6.2,2.7-10.4,7.5-10.4s7.5,4.2,7.5,10.4s-2.7,10.4-7.5,10.4S119.7,232.4,119.7,226.1z
		 M133.2,226.1c0-5.6-2.2-8.9-6-8.9s-6,3.3-6,8.9s2.2,8.9,6,8.9S133.2,231.8,133.2,226.1z"/>
	<path class="st3" d="M137.8,226.1c0-6.2,2.7-10.4,7.5-10.4s7.5,4.2,7.5,10.4s-2.7,10.4-7.5,10.4S137.8,232.4,137.8,226.1z
		 M151.3,226.1c0-5.6-2.2-8.9-6-8.9s-6,3.3-6,8.9s2.2,8.9,6,8.9S151.3,231.8,151.3,226.1z"/>
	<path class="st3" d="M155.9,226.1c0-6.2,2.7-10.4,7.5-10.4s7.5,4.2,7.5,10.4s-2.7,10.4-7.5,10.4S155.9,232.4,155.9,226.1z
		 M169.5,226.1c0-5.6-2.2-8.9-6-8.9s-6,3.3-6,8.9s2.2,8.9,6,8.9S169.5,231.8,169.5,226.1z"/>
	<path class="st3" d="M197.5,216.1v20.2H196v-9.6h-11.7v9.6h-1.5v-20.2h1.5v9.1H196v-9.1H197.5z"/>
	<path class="st3" d="M201.3,229c0-4.3,3.4-7.5,7.6-7.5c4.2,0,7.5,3.3,7.5,7.5c0,4.3-3.4,7.5-7.5,7.5
		C204.6,236.5,201.3,233.3,201.3,229z M214.9,229c0-3.4-2.6-6.1-6.1-6.1c-3.4,0-6.1,2.7-6.1,6.1s2.7,6.1,6.1,6.1
		C212.3,235.1,214.9,232.4,214.9,229z"/>
	<path class="st3" d="M219.8,215.2h1.4v21h-1.4V215.2z"/>
	<path class="st3" d="M239.9,216.1v20.2h-1.4v-3.3c-1.2,2.2-3.4,3.7-6.2,3.7c-4.1,0-7.5-3.3-7.5-7.5c0-4.3,3.3-7.5,7.5-7.5
		c2.8,0,5,1.4,6.2,3.7v-9.1H239.9z M238.4,229c0-3.4-2.7-6.1-6.1-6.1c-3.4,0-6.1,2.7-6.1,6.1s2.7,6.1,6.1,6.1
		C235.7,235.1,238.4,232.4,238.4,229z"/>
	<path class="st3" d="M257.9,229.1c0,0.2,0,0.5,0,0.7h-13c0.3,3.3,2.8,5.4,6.1,5.4c2.4,0,4.1-1.1,5-2.6l1.3,0.7
		c-1.2,2-3.4,3.3-6.3,3.3c-4.4,0-7.6-3.2-7.6-7.5c0-4.2,3.1-7.5,7.5-7.5C255.2,221.5,257.9,225.1,257.9,229.1z M244.8,228.4h11.6
		c-0.3-3.5-2.8-5.5-5.6-5.5C247.5,222.9,245.1,225.2,244.8,228.4z"/>
	<path class="st3" d="M267.5,221.6v1.4c-2.5,0-4.8,1.5-4.8,5.2v8h-1.4v-14.4h1.4v2.8C263.7,222.4,265.5,221.6,267.5,221.6z"/>
	<path class="st3" d="M279.5,232.4c0,2.4-2.1,4.1-5.2,4.1c-2.9,0-4.8-1.4-5.5-3.2l1.2-0.7c0.5,1.6,2.1,2.5,4.2,2.5
		c2,0,3.7-0.9,3.7-2.7c0-3.9-8.7-1.7-8.7-6.9c0-2.3,2-4.1,4.9-4.1c2.3,0,4.1,1.1,4.9,2.9l-1.2,0.7c-0.6-1.5-2.1-2.2-3.7-2.2
		c-1.9,0-3.5,1-3.5,2.7C270.8,229.4,279.5,227.2,279.5,232.4z"/>
	<path class="st3" d="M65.7,266.9c0-1.4,1.1-2.5,2.5-2.5c1.4,0,2.5,1.1,2.5,2.5c0,1.4-1.1,2.5-2.5,2.5
		C66.9,269.4,65.7,268.3,65.7,266.9z"/>
	<path class="st3" d="M89,266.9c0-5.8,4.3-10.4,10.5-10.4c3.7,0,7,1.9,8.6,4.8l-1.4,0.8c-1.3-2.5-4.1-4.1-7.3-4.1c-5.3,0-9,4-9,8.9
		s3.7,8.9,9,8.9c3.2,0,6-1.7,7.3-4.2l1.4,0.8c-1.6,3-4.9,4.9-8.7,4.9C93.4,277.3,89,272.7,89,266.9z"/>
	<path class="st3" d="M130,277h-1.5v-17.9l-7.5,12.4h-0.3l-7.5-12.4V277h-1.5v-20.2h1.9l7.2,11.9l7.2-11.9h1.9V277z"/>
	<path class="st3" d="M133.9,266.9c0-5.8,4.3-10.4,10.5-10.4c3.7,0,7,1.9,8.6,4.8l-1.4,0.8c-1.3-2.5-4.1-4.1-7.3-4.1
		c-5.3,0-9,4-9,8.9s3.7,8.9,9,8.9c3.2,0,6-1.7,7.3-4.2l1.4,0.8c-1.6,3-4.9,4.9-8.7,4.9C138.2,277.3,133.9,272.7,133.9,266.9z"/>
	<path class="st3" d="M163.1,279.9l11.5-25.9h1.2l-11.5,25.9H163.1z"/>
	<path class="st3" d="M186.1,266.9c0-5.8,4.3-10.4,10.5-10.4c3.7,0,7,1.9,8.6,4.8l-1.4,0.8c-1.3-2.5-4.1-4.1-7.3-4.1
		c-5.3,0-9,4-9,8.9s3.7,8.9,9,8.9c3.2,0,6-1.7,7.3-4.2l1.4,0.8c-1.6,3-4.9,4.9-8.7,4.9C190.4,277.3,186.1,272.7,186.1,266.9z"/>
	<path class="st3" d="M228,268.4c0,4.9-3.7,8.9-9.7,8.9c-6.2,0-10.6-4.6-10.6-10.4s4.3-10.4,10.5-10.4c3.7,0,7,2,8.7,4.9l-1.4,0.8
		c-1.3-2.5-4.1-4.2-7.3-4.2c-5.3,0-9,4-9,8.9s3.7,8.9,9.1,8.9c4.9,0,7.9-3,8.2-6.8h-8.6v-1.4H228V268.4z"/>
	<path class="st3" d="M250.6,275.6v1.4h-11v-20.2h1.5v18.7H250.6z"/>
	<path class="st3" d="M252.8,259.2c0-0.7,0.6-1.4,1.4-1.4c0.7,0,1.3,0.6,1.3,1.4c0,0.7-0.6,1.4-1.3,1.4
		C253.4,260.5,252.8,259.9,252.8,259.2z M253.5,262.6h1.4V277h-1.4V262.6z"/>
	<path class="st3" d="M269,273.2c0,2.4-2.1,4.1-5.2,4.1c-2.9,0-4.8-1.4-5.5-3.2l1.2-0.7c0.5,1.6,2.1,2.5,4.2,2.5
		c2,0,3.7-0.9,3.7-2.7c0-3.9-8.7-1.7-8.7-6.9c0-2.3,2-4.1,4.9-4.1c2.3,0,4.1,1.1,4.9,2.9l-1.2,0.7c-0.6-1.5-2.1-2.2-3.7-2.2
		c-1.9,0-3.5,1-3.5,2.7C260.3,270.2,269,268,269,273.2z"/>
	<path class="st3" d="M275,264v9.4c0,2.5,1.4,2.6,4.3,2.3v1.3c-3.8,0.6-5.8-0.3-5.8-3.6V264h-3.2v-1.4h3.2V259l1.5-0.4v4h4.3v1.4
		H275z"/>
	<path class="st3" d="M282.1,259.2c0-0.7,0.6-1.4,1.4-1.4c0.7,0,1.3,0.6,1.3,1.4c0,0.7-0.6,1.4-1.3,1.4
		C282.7,260.5,282.1,259.9,282.1,259.2z M282.8,262.6h1.4V277h-1.4V262.6z"/>
	<path class="st3" d="M300.8,268.1v9h-1.5v-9c0-2.6-1.5-4.4-4.2-4.4c-2.8,0-5,1.8-5,5.7v7.6h-1.4v-14.4h1.4v2.7
		c1.1-2.1,2.9-3.1,5.2-3.1C298.7,262.3,300.8,264.6,300.8,268.1z"/>
	<path class="st3" d="M319.1,262.6v13.7c0,4.3-3.2,6.8-7.2,6.8c-3.4,0-5.8-1.4-6.8-3.5l1.3-0.7c0.7,1.5,2.4,2.8,5.5,2.8
		c3.6,0,5.7-2.1,5.7-5.4v-2.6c-1.2,2.2-3.4,3.7-6.2,3.7c-4.1,0-7.5-3.3-7.5-7.5c0-4.3,3.3-7.5,7.5-7.5c2.8,0,5,1.4,6.2,3.7v-3.3
		H319.1z M317.7,269.8c0-3.4-2.7-6.1-6.1-6.1c-3.4,0-6.1,2.7-6.1,6.1s2.7,6.1,6.1,6.1C315,275.9,317.7,273.2,317.7,269.8z"/>
	<path class="st3" d="M333.3,273.2c0,2.4-2.1,4.1-5.2,4.1c-2.9,0-4.8-1.4-5.5-3.2l1.2-0.7c0.5,1.6,2.1,2.5,4.2,2.5
		c2,0,3.7-0.9,3.7-2.7c0-3.9-8.7-1.7-8.7-6.9c0-2.3,2-4.1,4.9-4.1c2.3,0,4.1,1.1,4.9,2.9l-1.2,0.7c-0.6-1.5-2.1-2.2-3.7-2.2
		c-1.9,0-3.5,1-3.5,2.7C324.5,270.2,333.3,268,333.3,273.2z"/>
	<path class="st3" d="M65.7,307.7c0-1.4,1.1-2.5,2.5-2.5c1.4,0,2.5,1.1,2.5,2.5c0,1.4-1.1,2.5-2.5,2.5
		C66.9,310.2,65.7,309.1,65.7,307.7z"/>
	<path class="st3" d="M96.7,318.1v2.6h-1.4v-2.6c-3.2-0.1-5.5-1.6-6.4-4.1l1.3-0.7c0.7,2,2.4,3.2,5.1,3.4v-8.6
		c-2.9-1-5.5-2.1-5.5-5.5c0-3,2.4-5,5.5-5.2v-2.6h1.4v2.6c2.3,0.3,4.2,1.5,5.1,3.6l-1.3,0.7c-0.7-1.6-2-2.6-3.8-2.9v8.2
		c2.9,1,5.6,2.2,5.6,5.6C102.3,315.7,100,317.8,96.7,318.1z M95.3,306.6v-7.7c-2.4,0.2-3.9,1.7-3.9,3.7
		C91.4,304.9,93,305.7,95.3,306.6z M100.7,312.7c0-2.3-1.7-3.3-4-4.1v8C99.3,316.3,100.7,314.7,100.7,312.7z"/>
	<path class="st3" d="M124.2,317.8h-1.5v-17.9l-7.5,12.4H115l-7.5-12.4v17.9H106v-20.2h1.9l7.2,11.9l7.2-11.9h1.9V317.8z"/>
	<path class="st3" d="M128.1,307.7c0-5.8,4.6-10.4,10.4-10.4c5.8,0,10.4,4.6,10.4,10.4s-4.6,10.4-10.4,10.4
		C132.7,318.1,128.1,313.5,128.1,307.7z M147.4,307.7c0-5-3.9-8.9-8.9-8.9c-5,0-8.9,4-8.9,8.9s3.9,8.9,8.9,8.9
		C143.5,316.7,147.4,312.7,147.4,307.7z"/>
	<path class="st3" d="M160.6,309.5h-6.4v8.3h-1.5v-20.2h7.9c3.3,0,6,2.7,6,6c0,2.7-1.9,5-4.4,5.7l5,8.5h-1.8L160.6,309.5z
		 M154.3,308.1h6.4c2.4,0,4.4-2,4.4-4.5c0-2.5-2-4.5-4.4-4.5h-6.4V308.1z"/>
	<path class="st3" d="M182.3,299.1H176v18.7h-1.6v-18.7h-6.3v-1.4h14.2V299.1z"/>
	<path class="st3" d="M192.2,309.5v8.3h-1.5v-8.3l-7.3-11.9h1.7l6.4,10.4l6.4-10.4h1.7L192.2,309.5z"/>
	<path class="st3" d="M222.4,299.1H216v18.7h-1.6v-18.7h-6.3v-1.4h14.2V299.1z"/>
	<path class="st3" d="M229.5,303.2v1.4c-2.5,0-4.8,1.5-4.8,5.2v8h-1.4v-14.4h1.4v2.8C225.7,304,227.5,303.2,229.5,303.2z"/>
	<path class="st3" d="M245.1,310.7c0,0.2,0,0.5,0,0.7h-13c0.3,3.3,2.8,5.4,6.1,5.4c2.4,0,4.1-1.1,5-2.6l1.3,0.7
		c-1.2,2-3.4,3.3-6.3,3.3c-4.4,0-7.6-3.2-7.6-7.5c0-4.2,3.1-7.5,7.5-7.5C242.4,303.1,245.1,306.7,245.1,310.7z M232.1,310h11.6
		c-0.3-3.5-2.8-5.5-5.6-5.5C234.7,304.5,232.3,306.8,232.1,310z"/>
	<path class="st3" d="M260.7,308.9v9h-1.5v-9c0-2.6-1.5-4.4-4.2-4.4c-2.8,0-5,1.8-5,5.7v7.6h-1.4v-14.4h1.4v2.7
		c1.1-2.1,2.9-3.1,5.2-3.1C258.5,303.1,260.7,305.4,260.7,308.9z"/>
	<path class="st3" d="M278.9,297.7v20.2h-1.4v-3.3c-1.2,2.2-3.4,3.7-6.2,3.7c-4.1,0-7.5-3.3-7.5-7.5c0-4.3,3.3-7.5,7.5-7.5
		c2.8,0,5,1.4,6.2,3.7v-9.1H278.9z M277.4,310.6c0-3.4-2.7-6.1-6.1-6.1c-3.4,0-6.1,2.7-6.1,6.1s2.7,6.1,6.1,6.1
		C274.8,316.7,277.4,314,277.4,310.6z"/>
	<path class="st3" d="M282.7,300c0-0.7,0.6-1.4,1.4-1.4c0.7,0,1.3,0.6,1.3,1.4c0,0.7-0.6,1.4-1.3,1.4
		C283.3,301.3,282.7,300.7,282.7,300z M283.3,303.4h1.4v14.4h-1.4V303.4z"/>
	<path class="st3" d="M301.4,308.9v9h-1.5v-9c0-2.6-1.5-4.4-4.2-4.4c-2.8,0-5,1.8-5,5.7v7.6h-1.4v-14.4h1.4v2.7
		c1.1-2.1,2.9-3.1,5.2-3.1C299.2,303.1,301.4,305.4,301.4,308.9z"/>
	<path class="st3" d="M319.7,303.4v13.7c0,4.3-3.2,6.8-7.2,6.8c-3.4,0-5.8-1.4-6.8-3.5l1.3-0.7c0.7,1.5,2.4,2.8,5.5,2.8
		c3.6,0,5.7-2.1,5.7-5.4v-2.6c-1.2,2.2-3.4,3.7-6.2,3.7c-4.1,0-7.5-3.3-7.5-7.5c0-4.3,3.3-7.5,7.5-7.5c2.8,0,5,1.4,6.2,3.7v-3.3
		H319.7z M318.2,310.6c0-3.4-2.7-6.1-6.1-6.1c-3.4,0-6.1,2.7-6.1,6.1s2.7,6.1,6.1,6.1C315.5,316.7,318.2,314,318.2,310.6z"/>
	<path class="st3" d="M88.5,339.4c0-4.3,3.4-7.5,7.6-7.5c4.2,0,7.5,3.3,7.5,7.5c0,4.3-3.4,7.5-7.5,7.5
		C91.9,346.9,88.5,343.7,88.5,339.4z M102.2,339.4c0-3.4-2.6-6.1-6.1-6.1c-3.4,0-6.1,2.7-6.1,6.1s2.7,6.1,6.1,6.1
		C99.5,345.5,102.2,342.8,102.2,339.4z"/>
	<path class="st3" d="M119.3,337.7v9h-1.5v-9c0-2.6-1.5-4.4-4.2-4.4c-2.8,0-5,1.8-5,5.7v7.6h-1.4v-14.4h1.4v2.7
		c1.1-2.1,2.9-3.1,5.2-3.1C117.1,331.9,119.3,334.2,119.3,337.7z"/>
	<path class="st3" d="M143.7,327.9h-6.3v18.7h-1.6v-18.7h-6.3v-1.4h14.2V327.9z"/>
	<path class="st3" d="M164.1,332.2l-4.5,14.4H158l-4-12.3l-4,12.3h-1.6l-4.5-14.4h1.5l3.8,12.5l4-12.5h1.5l4,12.5l3.8-12.5H164.1z"
		/>
	<path class="st3" d="M166.7,328.8c0-0.7,0.6-1.4,1.4-1.4c0.7,0,1.3,0.6,1.3,1.4c0,0.7-0.6,1.4-1.3,1.4
		C167.3,330.1,166.7,329.5,166.7,328.8z M167.3,332.2h1.4v14.4h-1.4V332.2z"/>
	<path class="st3" d="M176.3,333.6v9.4c0,2.5,1.4,2.6,4.3,2.3v1.3c-3.8,0.6-5.8-0.3-5.8-3.6v-9.4h-3.2v-1.4h3.2v-3.6l1.5-0.4v4h4.3
		v1.4H176.3z"/>
	<path class="st3" d="M186,333.6v9.4c0,2.5,1.4,2.6,4.3,2.3v1.3c-3.8,0.6-5.8-0.3-5.8-3.6v-9.4h-3.2v-1.4h3.2v-3.6l1.5-0.4v4h4.3
		v1.4H186z"/>
	<path class="st3" d="M206.5,339.5c0,0.2,0,0.5,0,0.7h-13c0.3,3.3,2.8,5.4,6.1,5.4c2.4,0,4.1-1.1,5-2.6l1.3,0.7
		c-1.2,2-3.4,3.3-6.3,3.3c-4.4,0-7.6-3.2-7.6-7.5c0-4.2,3.1-7.5,7.5-7.5C203.8,331.9,206.5,335.5,206.5,339.5z M193.4,338.8H205
		c-0.3-3.5-2.8-5.5-5.6-5.5C196.1,333.3,193.7,335.6,193.4,338.8z"/>
	<path class="st3" d="M216.1,332v1.4c-2.5,0-4.8,1.5-4.8,5.2v8h-1.4v-14.4h1.4v2.8C212.3,332.8,214.2,332,216.1,332z"/>
</g>
<g>
	<path class="st3" d="M662.5,579.9c0-1.4,1.1-2.5,2.5-2.5c1.4,0,2.5,1.1,2.5,2.5c0,1.4-1.1,2.5-2.5,2.5
		C663.7,582.5,662.5,581.4,662.5,579.9z"/>
	<path class="st3" d="M705.2,590h-1.5v-17.9l-7.5,12.4h-0.3l-7.5-12.4V590H687v-20.2h1.9l7.2,11.9l7.2-11.9h1.9V590z"/>
	<path class="st3" d="M724,575.7V590h-1.5v-3.3c-1.2,2.2-3.4,3.6-6.2,3.6c-4.1,0-7.5-3.3-7.5-7.5c0-4.3,3.4-7.5,7.5-7.5
		c2.8,0,5,1.4,6.2,3.6v-3.3H724z M722.6,582.9c0-3.4-2.6-6.1-6.1-6.1s-6.1,2.7-6.1,6.1s2.7,6.1,6.1,6.1S722.6,586.3,722.6,582.9z"/>
	<path class="st3" d="M734.7,575.5v1.4c-2.5,0-4.8,1.5-4.8,5.2v8h-1.4v-14.4h1.4v2.8C730.9,576.2,732.8,575.5,734.7,575.5z"/>
	<path class="st3" d="M746.7,590l-7.6-7.1v7.1h-1.4v-20.2h1.4v12.3l7.3-6.5h2l-7.7,6.9l8,7.5H746.7z"/>
	<path class="st3" d="M763.7,582.9c0,0.2,0,0.5,0,0.7h-13c0.3,3.3,2.8,5.4,6.1,5.4c2.4,0,4.1-1.1,5-2.6l1.3,0.7
		c-1.2,2-3.4,3.3-6.3,3.3c-4.4,0-7.6-3.2-7.6-7.5c0-4.2,3.1-7.5,7.5-7.5C761,575.3,763.7,579,763.7,582.9z M750.6,582.2h11.6
		c-0.3-3.5-2.8-5.5-5.6-5.5C753.3,576.7,750.9,579,750.6,582.2z"/>
	<path class="st3" d="M769.7,577.1v9.4c0,2.5,1.4,2.6,4.3,2.3v1.3c-3.8,0.6-5.8-0.3-5.8-3.6v-9.4h-3.2v-1.4h3.2v-3.6l1.5-0.4v4h4.3
		v1.4H769.7z"/>
	<path class="st3" d="M776.8,572.2c0-0.7,0.6-1.4,1.4-1.4c0.7,0,1.3,0.6,1.3,1.4c0,0.7-0.6,1.4-1.3,1.4
		C777.4,573.6,776.8,572.9,776.8,572.2z M777.5,575.7h1.4V590h-1.4V575.7z"/>
	<path class="st3" d="M795.5,581.1v9h-1.5v-9c0-2.6-1.5-4.4-4.2-4.4c-2.8,0-5,1.8-5,5.7v7.6h-1.4v-14.4h1.4v2.7
		c1.1-2.1,2.9-3.1,5.2-3.1C793.4,575.3,795.5,577.6,795.5,581.1z"/>
	<path class="st3" d="M813.8,575.7v13.7c0,4.3-3.2,6.8-7.2,6.8c-3.4,0-5.8-1.4-6.8-3.5l1.3-0.7c0.7,1.5,2.4,2.8,5.5,2.8
		c3.6,0,5.7-2.1,5.7-5.4v-2.6c-1.2,2.2-3.4,3.7-6.2,3.7c-4.1,0-7.5-3.3-7.5-7.5c0-4.3,3.3-7.5,7.5-7.5c2.8,0,5,1.4,6.2,3.7v-3.3
		H813.8z M812.4,582.9c0-3.4-2.7-6.1-6.1-6.1c-3.4,0-6.1,2.7-6.1,6.1s2.7,6.1,6.1,6.1C809.7,589,812.4,586.3,812.4,582.9z"/>
	<path class="st3" d="M839.4,576.1c0,3.5-2.6,6.2-6.3,6.2h-5.3v7.7h-1.5v-20.2h6.9C836.7,569.9,839.4,572.6,839.4,576.1z
		 M837.8,576.1c0-2.8-2-4.8-4.8-4.8h-5.3v9.6h5.3C835.9,580.9,837.8,578.9,837.8,576.1z"/>
	<path class="st3" d="M854.7,575.7V590h-1.4v-2.7c-1.1,2.1-2.9,3.1-5.2,3.1c-3.4,0-5.6-2.3-5.6-5.8v-9h1.5v9c0,2.6,1.5,4.4,4.2,4.4
		c2.8,0,5-1.8,5-5.7v-7.6H854.7z"/>
	<path class="st3" d="M868.8,586.3c0,2.4-2.1,4.1-5.2,4.1c-2.9,0-4.8-1.4-5.5-3.2l1.2-0.7c0.5,1.6,2.1,2.5,4.2,2.5
		c2,0,3.7-0.9,3.7-2.7c0-3.9-8.7-1.7-8.7-6.9c0-2.3,2-4.1,4.9-4.1c2.3,0,4.1,1.1,4.9,2.9l-1.2,0.7c-0.6-1.5-2.1-2.2-3.7-2.2
		c-1.9,0-3.5,1-3.5,2.7C860.1,583.3,868.8,581,868.8,586.3z"/>
	<path class="st3" d="M884.3,581.1v9h-1.5v-9c0-2.6-1.5-4.4-4.2-4.4c-2.8,0-5,1.8-5,5.7v7.6h-1.4v-20.2h1.4v8.5
		c1.1-2.1,2.9-3.1,5.2-3.1C882.2,575.3,884.3,577.6,884.3,581.1z"/>
	<path class="st3" d="M662.5,620.7c0-1.4,1.1-2.5,2.5-2.5c1.4,0,2.5,1.1,2.5,2.5c0,1.4-1.1,2.5-2.5,2.5
		C663.7,623.3,662.5,622.2,662.5,620.7z"/>
	<path class="st3" d="M698,621.5h-5.2v5.2h-1.4v-5.2h-5.2v-1.4h5.2v-5.2h1.4v5.2h5.2V621.5z"/>
	<path class="st3" d="M706.9,610.7v20.2h-1.5v-18.5l-4.7,1.5l-0.4-1.3l5.3-1.8H706.9z"/>
	<path class="st3" d="M710.9,620.8c0-6.2,2.7-10.4,7.5-10.4c4.8,0,7.5,4.2,7.5,10.4s-2.7,10.4-7.5,10.4
		C713.6,631.2,710.9,627,710.9,620.8z M724.4,620.8c0-5.6-2.2-8.9-6-8.9s-6,3.3-6,8.9s2.2,8.9,6,8.9S724.4,626.4,724.4,620.8z"/>
	<path class="st3" d="M729.8,634.9h-1.3l1.1-6h1.8L729.8,634.9z"/>
	<path class="st3" d="M733.7,620.8c0-6.2,2.7-10.4,7.5-10.4c4.8,0,7.5,4.2,7.5,10.4s-2.7,10.4-7.5,10.4
		C736.4,631.2,733.7,627,733.7,620.8z M747.3,620.8c0-5.6-2.2-8.9-6-8.9s-6,3.3-6,8.9s2.2,8.9,6,8.9S747.3,626.4,747.3,620.8z"/>
	<path class="st3" d="M751.9,620.8c0-6.2,2.7-10.4,7.5-10.4s7.5,4.2,7.5,10.4s-2.7,10.4-7.5,10.4S751.9,627,751.9,620.8z
		 M765.4,620.8c0-5.6-2.2-8.9-6-8.9s-6,3.3-6,8.9s2.2,8.9,6,8.9S765.4,626.4,765.4,620.8z"/>
	<path class="st3" d="M770,620.8c0-6.2,2.7-10.4,7.5-10.4c4.8,0,7.5,4.2,7.5,10.4s-2.7,10.4-7.5,10.4C772.7,631.2,770,627,770,620.8
		z M783.5,620.8c0-5.6-2.2-8.9-6-8.9s-6,3.3-6,8.9s2.2,8.9,6,8.9S783.5,626.4,783.5,620.8z"/>
	<path class="st3" d="M811.6,610.7v20.2h-1.5v-9.6h-11.7v9.6h-1.5v-20.2h1.5v9.1h11.7v-9.1H811.6z"/>
	<path class="st3" d="M815.3,623.7c0-4.3,3.4-7.5,7.6-7.5c4.2,0,7.5,3.3,7.5,7.5c0,4.3-3.4,7.5-7.5,7.5
		C818.7,631.2,815.3,627.9,815.3,623.7z M829,623.7c0-3.4-2.6-6.1-6.1-6.1c-3.4,0-6.1,2.7-6.1,6.1s2.7,6.1,6.1,6.1
		C826.3,629.8,829,627.1,829,623.7z"/>
	<path class="st3" d="M833.9,609.8h1.4v21h-1.4V609.8z"/>
	<path class="st3" d="M853.9,610.7v20.2h-1.4v-3.3c-1.2,2.2-3.4,3.7-6.2,3.7c-4.1,0-7.5-3.3-7.5-7.5c0-4.3,3.3-7.5,7.5-7.5
		c2.8,0,5,1.4,6.2,3.7v-9.1H853.9z M852.5,623.7c0-3.4-2.7-6.1-6.1-6.1c-3.4,0-6.1,2.7-6.1,6.1s2.7,6.1,6.1,6.1
		C849.8,629.8,852.5,627.1,852.5,623.7z"/>
	<path class="st3" d="M872,623.7c0,0.2,0,0.5,0,0.7h-13c0.3,3.3,2.8,5.4,6.1,5.4c2.4,0,4.1-1.1,5-2.6l1.3,0.7
		c-1.2,2-3.4,3.3-6.3,3.3c-4.4,0-7.6-3.2-7.6-7.5c0-4.2,3.1-7.5,7.5-7.5C869.2,616.1,872,619.8,872,623.7z M858.9,623h11.6
		c-0.3-3.5-2.8-5.5-5.6-5.5C861.6,617.5,859.2,619.8,858.9,623z"/>
	<path class="st3" d="M881.6,616.3v1.4c-2.5,0-4.8,1.5-4.8,5.2v8h-1.4v-14.4h1.4v2.8C877.8,617,879.6,616.3,881.6,616.3z"/>
	<path class="st3" d="M893.6,627.1c0,2.4-2.1,4.1-5.2,4.1c-2.9,0-4.8-1.4-5.5-3.2l1.2-0.7c0.5,1.6,2.1,2.5,4.2,2.5
		c2,0,3.7-0.9,3.7-2.7c0-3.9-8.7-1.7-8.7-6.9c0-2.3,2-4.1,4.9-4.1c2.3,0,4.1,1.1,4.9,2.9l-1.2,0.7c-0.6-1.5-2.1-2.2-3.7-2.2
		c-1.9,0-3.5,1-3.5,2.7C884.9,624.1,893.6,621.8,893.6,627.1z"/>
	<path class="st3" d="M662.5,661.5c0-1.4,1.1-2.5,2.5-2.5c1.4,0,2.5,1.1,2.5,2.5c0,1.4-1.1,2.5-2.5,2.5
		C663.7,664.1,662.5,663,662.5,661.5z"/>
	<path class="st3" d="M685.8,661.6c0-5.8,4.3-10.4,10.5-10.4c3.7,0,7,1.9,8.6,4.8l-1.4,0.8c-1.3-2.5-4.1-4.1-7.3-4.1
		c-5.3,0-9,4-9,8.9s3.7,8.9,9,8.9c3.2,0,6-1.7,7.3-4.2l1.4,0.8c-1.6,3-4.9,4.9-8.7,4.9C690.2,672,685.8,667.3,685.8,661.6z"/>
	<path class="st3" d="M720.2,670.2v1.4h-11.6v-20.2H720v1.4h-9.9v7.8h9.2v1.4h-9.2v8H720.2z"/>
	<path class="st3" d="M735.5,671.6l-5.8-9l-5.8,9h-1.8l6.7-10.4l-6.3-9.8h1.8l5.5,8.4l5.4-8.4h1.8l-6.3,9.8l6.7,10.4H735.5z"/>
	<path class="st3" d="M759.2,670.2v1.4h-11v-20.2h1.5v18.7H759.2z"/>
	<path class="st3" d="M761.4,653.8c0-0.7,0.6-1.4,1.4-1.4c0.7,0,1.3,0.6,1.3,1.4c0,0.7-0.6,1.4-1.3,1.4
		C762,655.2,761.4,654.5,761.4,653.8z M762,657.3h1.4v14.4H762V657.3z"/>
	<path class="st3" d="M777.6,667.9c0,2.4-2.1,4.1-5.2,4.1c-2.9,0-4.8-1.4-5.5-3.2l1.2-0.7c0.5,1.6,2.1,2.5,4.2,2.5
		c2,0,3.7-0.9,3.7-2.7c0-3.9-8.7-1.7-8.7-6.9c0-2.3,2-4.1,4.9-4.1c2.3,0,4.1,1.1,4.9,2.9l-1.2,0.7c-0.6-1.5-2.1-2.2-3.7-2.2
		c-1.9,0-3.5,1-3.5,2.7C768.9,664.9,777.6,662.6,777.6,667.9z"/>
	<path class="st3" d="M783.6,658.7v9.4c0,2.5,1.4,2.6,4.3,2.3v1.3c-3.8,0.6-5.8-0.3-5.8-3.6v-9.4H779v-1.4h3.2v-3.6l1.5-0.4v4h4.3
		v1.4H783.6z"/>
	<path class="st3" d="M790.7,653.8c0-0.7,0.6-1.4,1.4-1.4c0.7,0,1.3,0.6,1.3,1.4c0,0.7-0.6,1.4-1.3,1.4
		C791.3,655.2,790.7,654.5,790.7,653.8z M791.4,657.3h1.4v14.4h-1.4V657.3z"/>
	<path class="st3" d="M809.4,662.7v9h-1.5v-9c0-2.6-1.5-4.4-4.2-4.4c-2.8,0-5,1.8-5,5.7v7.6h-1.4v-14.4h1.4v2.7
		c1.1-2.1,2.9-3.1,5.2-3.1C807.3,656.9,809.4,659.2,809.4,662.7z"/>
	<path class="st3" d="M827.7,657.3V671c0,4.3-3.2,6.8-7.2,6.8c-3.4,0-5.8-1.4-6.8-3.5l1.3-0.7c0.7,1.5,2.4,2.8,5.5,2.8
		c3.6,0,5.7-2.1,5.7-5.4v-2.6c-1.2,2.2-3.4,3.7-6.2,3.7c-4.1,0-7.5-3.3-7.5-7.5c0-4.3,3.3-7.5,7.5-7.5c2.8,0,5,1.4,6.2,3.7v-3.3
		H827.7z M826.3,664.5c0-3.4-2.7-6.1-6.1-6.1c-3.4,0-6.1,2.7-6.1,6.1s2.7,6.1,6.1,6.1C823.6,670.6,826.3,667.9,826.3,664.5z"/>
	<path class="st3" d="M841.8,667.9c0,2.4-2.1,4.1-5.2,4.1c-2.9,0-4.8-1.4-5.5-3.2l1.2-0.7c0.5,1.6,2.1,2.5,4.2,2.5
		c2,0,3.7-0.9,3.7-2.7c0-3.9-8.7-1.7-8.7-6.9c0-2.3,2-4.1,4.9-4.1c2.3,0,4.1,1.1,4.9,2.9l-1.2,0.7c-0.6-1.5-2.1-2.2-3.7-2.2
		c-1.9,0-3.5,1-3.5,2.7C833.1,664.9,841.8,662.6,841.8,667.9z"/>
	<path class="st3" d="M662.5,702.3c0-1.4,1.1-2.5,2.5-2.5c1.4,0,2.5,1.1,2.5,2.5c0,1.4-1.1,2.5-2.5,2.5
		C663.7,704.9,662.5,703.8,662.5,702.3z"/>
	<path class="st3" d="M693.5,712.7v2.6h-1.4v-2.6c-3.2-0.1-5.5-1.6-6.4-4.1l1.3-0.7c0.7,2,2.4,3.2,5.1,3.4v-8.6
		c-2.9-1-5.5-2.1-5.5-5.5c0-3,2.4-5,5.5-5.2v-2.6h1.4v2.6c2.3,0.3,4.2,1.5,5.1,3.6l-1.3,0.7c-0.7-1.6-2-2.6-3.8-2.9v8.2
		c2.9,1,5.6,2.2,5.6,5.6C699.1,710.3,696.7,712.4,693.5,712.7z M692.1,701.2v-7.7c-2.4,0.2-3.9,1.7-3.9,3.7
		C688.2,699.5,689.8,700.4,692.1,701.2z M697.5,707.3c0-2.3-1.7-3.3-4-4.1v8C696.1,711,697.5,709.4,697.5,707.3z"/>
	<path class="st3" d="M721,712.4h-1.5v-17.9l-7.5,12.4h-0.3l-7.5-12.4v17.9h-1.5v-20.2h1.9l7.2,11.9l7.2-11.9h1.9V712.4z"/>
	<path class="st3" d="M724.9,702.4c0-5.8,4.6-10.4,10.4-10.4s10.4,4.6,10.4,10.4s-4.6,10.4-10.4,10.4S724.9,708.1,724.9,702.4z
		 M744.2,702.4c0-5-3.9-8.9-8.9-8.9s-8.9,4-8.9,8.9s3.9,8.9,8.9,8.9S744.2,707.3,744.2,702.4z"/>
	<path class="st3" d="M757.4,704.2h-6.4v8.3h-1.5v-20.2h7.9c3.3,0,6,2.7,6,6c0,2.7-1.9,5-4.4,5.7l5,8.5h-1.8L757.4,704.2z
		 M751.1,702.7h6.4c2.4,0,4.4-2,4.4-4.5c0-2.5-2-4.5-4.4-4.5h-6.4V702.7z"/>
	<path class="st3" d="M779.1,693.7h-6.3v18.7h-1.6v-18.7h-6.3v-1.4h14.2V693.7z"/>
	<path class="st3" d="M789,704.2v8.3h-1.5v-8.3l-7.3-11.9h1.7l6.4,10.4l6.4-10.4h1.7L789,704.2z"/>
	<path class="st3" d="M819.2,693.7h-6.3v18.7h-1.6v-18.7H805v-1.4h14.2V693.7z"/>
	<path class="st3" d="M826.3,697.9v1.4c-2.5,0-4.8,1.5-4.8,5.2v8H820v-14.4h1.4v2.8C822.5,698.6,824.3,697.9,826.3,697.9z"/>
	<path class="st3" d="M841.9,705.3c0,0.2,0,0.5,0,0.7h-13c0.3,3.3,2.8,5.4,6.1,5.4c2.4,0,4.1-1.1,5-2.6l1.3,0.7
		c-1.2,2-3.4,3.3-6.3,3.3c-4.4,0-7.6-3.2-7.6-7.5c0-4.2,3.1-7.5,7.5-7.5C839.2,697.7,841.9,701.4,841.9,705.3z M828.9,704.6h11.6
		c-0.3-3.5-2.8-5.5-5.6-5.5C831.5,699.1,829.1,701.4,828.9,704.6z"/>
	<path class="st3" d="M857.5,703.5v9H856v-9c0-2.6-1.5-4.4-4.2-4.4c-2.8,0-5,1.8-5,5.7v7.6h-1.4v-14.4h1.4v2.7
		c1.1-2.1,2.9-3.1,5.2-3.1C855.3,697.7,857.5,700,857.5,703.5z"/>
	<path class="st3" d="M875.7,692.3v20.2h-1.4v-3.3c-1.2,2.2-3.4,3.7-6.2,3.7c-4.1,0-7.5-3.3-7.5-7.5c0-4.3,3.3-7.5,7.5-7.5
		c2.8,0,5,1.4,6.2,3.7v-9.1H875.7z M874.2,705.3c0-3.4-2.7-6.1-6.1-6.1c-3.4,0-6.1,2.7-6.1,6.1s2.7,6.1,6.1,6.1
		C871.6,711.4,874.2,708.7,874.2,705.3z"/>
	<path class="st3" d="M879.5,694.6c0-0.7,0.6-1.4,1.4-1.4c0.7,0,1.3,0.6,1.3,1.4c0,0.7-0.6,1.4-1.3,1.4
		C880.1,696,879.5,695.3,879.5,694.6z M880.1,698.1h1.4v14.4h-1.4V698.1z"/>
	<path class="st3" d="M898.2,703.5v9h-1.5v-9c0-2.6-1.5-4.4-4.2-4.4c-2.8,0-5,1.8-5,5.7v7.6H886v-14.4h1.4v2.7
		c1.1-2.1,2.9-3.1,5.2-3.1C896,697.7,898.2,700,898.2,703.5z"/>
	<path class="st3" d="M916.5,698.1v13.7c0,4.3-3.2,6.8-7.2,6.8c-3.4,0-5.8-1.4-6.8-3.5l1.3-0.7c0.7,1.5,2.4,2.8,5.5,2.8
		c3.6,0,5.7-2.1,5.7-5.4v-2.6c-1.2,2.2-3.4,3.7-6.2,3.7c-4.1,0-7.5-3.3-7.5-7.5c0-4.3,3.3-7.5,7.5-7.5c2.8,0,5,1.4,6.2,3.7v-3.3
		H916.5z M915,705.3c0-3.4-2.7-6.1-6.1-6.1c-3.4,0-6.1,2.7-6.1,6.1s2.7,6.1,6.1,6.1C912.3,711.4,915,708.7,915,705.3z"/>
	<path class="st3" d="M685.3,734.1c0-4.3,3.4-7.5,7.6-7.5c4.2,0,7.5,3.3,7.5,7.5s-3.4,7.5-7.5,7.5
		C688.7,741.6,685.3,738.3,685.3,734.1z M699,734.1c0-3.4-2.6-6.1-6.1-6.1c-3.4,0-6.1,2.7-6.1,6.1c0,3.4,2.7,6.1,6.1,6.1
		C696.3,740.2,699,737.5,699,734.1z"/>
	<path class="st3" d="M716.1,732.3v9h-1.5v-9c0-2.6-1.5-4.4-4.2-4.4c-2.8,0-5,1.8-5,5.7v7.6h-1.4v-14.4h1.4v2.7
		c1.1-2.1,2.9-3.1,5.2-3.1C713.9,726.5,716.1,728.8,716.1,732.3z"/>
	<path class="st3" d="M745.2,731.2c0,5.6-3.9,10.1-9.5,10.1h-7.6v-20.2h7.6C741.2,721.1,745.2,725.6,745.2,731.2z M743.7,731.2
		c0-4.8-3.3-8.6-8-8.6h-6v17.3h6C740.4,739.8,743.7,736,743.7,731.2z"/>
	<path class="st3" d="M762.4,734.1c0,0.2,0,0.5,0,0.7h-13c0.3,3.3,2.8,5.4,6.1,5.4c2.4,0,4.1-1.1,5-2.6l1.3,0.7
		c-1.2,2-3.4,3.3-6.3,3.3c-4.4,0-7.6-3.2-7.6-7.5c0-4.2,3.1-7.5,7.5-7.5C759.6,726.5,762.4,730.2,762.4,734.1z M749.3,733.4h11.6
		c-0.3-3.5-2.8-5.5-5.6-5.5C752,727.9,749.6,730.2,749.3,733.4z"/>
	<path class="st3" d="M775.1,741.2l-4.9-6.3l-4.9,6.3h-1.8l5.8-7.4l-5.4-7h1.8l4.5,5.8l4.5-5.8h1.7l-5.4,7l5.7,7.4H775.1z"/>
	<path class="st3" d="M782.8,728.3v9.4c0,2.5,1.4,2.6,4.3,2.3v1.3c-3.8,0.6-5.8-0.3-5.8-3.6v-9.4h-3.2v-1.4h3.2v-3.6l1.5-0.4v4h4.3
		v1.4H782.8z"/>
	<path class="st3" d="M788.7,734.1c0-4.3,3.4-7.5,7.6-7.5c4.2,0,7.5,3.3,7.5,7.5s-3.4,7.5-7.5,7.5
		C792.1,741.6,788.7,738.3,788.7,734.1z M802.4,734.1c0-3.4-2.6-6.1-6.1-6.1c-3.4,0-6.1,2.7-6.1,6.1c0,3.4,2.7,6.1,6.1,6.1
		C799.7,740.2,802.4,737.5,802.4,734.1z"/>
	<path class="st3" d="M806.3,734.1c0-4.3,3.4-7.5,7.6-7.5c4.2,0,7.5,3.3,7.5,7.5s-3.4,7.5-7.5,7.5
		C809.7,741.6,806.3,738.3,806.3,734.1z M820,734.1c0-3.4-2.6-6.1-6.1-6.1c-3.4,0-6.1,2.7-6.1,6.1c0,3.4,2.7,6.1,6.1,6.1
		C817.3,740.2,820,737.5,820,734.1z"/>
	<path class="st3" d="M824.9,720.2h1.4v21h-1.4V720.2z"/>
	<path class="st3" d="M840.5,737.5c0,2.4-2.1,4.1-5.2,4.1c-2.9,0-4.8-1.4-5.5-3.2l1.2-0.7c0.5,1.6,2.1,2.5,4.2,2.5
		c2,0,3.7-0.9,3.7-2.7c0-3.9-8.7-1.7-8.7-6.9c0-2.3,2-4.1,4.9-4.1c2.3,0,4.1,1.1,4.9,2.9l-1.2,0.7c-0.6-1.5-2.1-2.2-3.7-2.2
		c-1.9,0-3.5,1-3.5,2.7C831.8,734.5,840.5,732.2,840.5,737.5z"/>
</g>
<g>
	<path class="st3" d="M54.2,996.2c0-1.4,1.1-2.5,2.5-2.5c1.4,0,2.5,1.1,2.5,2.5c0,1.4-1.1,2.5-2.5,2.5
		C55.4,998.7,54.2,997.6,54.2,996.2z"/>
	<path class="st3" d="M91.8,992.4c0,3.5-2.6,6.2-6.3,6.2h-5.3v7.7h-1.5v-20.2h6.9C89.1,986.2,91.8,988.8,91.8,992.4z M90.3,992.4
		c0-2.8-2-4.8-4.8-4.8h-5.3v9.6h5.3C88.3,997.2,90.3,995.2,90.3,992.4z"/>
	<path class="st3" d="M108.3,991.9v14.4h-1.5v-3.3c-1.2,2.2-3.4,3.6-6.2,3.6c-4.1,0-7.5-3.3-7.5-7.5s3.4-7.5,7.5-7.5
		c2.8,0,5,1.4,6.2,3.6v-3.3H108.3z M106.8,999.1c0-3.4-2.6-6.1-6.1-6.1s-6.1,2.7-6.1,6.1s2.7,6.1,6.1,6.1S106.8,1002.5,106.8,999.1z
		"/>
	<path class="st3" d="M118.9,991.7v1.4c-2.5,0-4.8,1.5-4.8,5.2v8h-1.4v-14.4h1.4v2.8C115.1,992.5,117,991.7,118.9,991.7z"/>
	<path class="st3" d="M125.1,993.3v9.4c0,2.5,1.4,2.6,4.3,2.3v1.3c-3.8,0.6-5.8-0.3-5.8-3.6v-9.4h-3.2v-1.4h3.2v-3.6l1.5-0.4v4h4.3
		v1.4H125.1z"/>
	<path class="st3" d="M145.1,997.4v9h-1.5v-9c0-2.6-1.5-4.4-4.2-4.4c-2.8,0-5,1.8-5,5.7v7.6h-1.4v-14.4h1.4v2.7
		c1.1-2.1,2.9-3.1,5.2-3.1C142.9,991.6,145.1,993.9,145.1,997.4z"/>
	<path class="st3" d="M162.7,999.2c0,0.2,0,0.5,0,0.7h-13c0.3,3.3,2.8,5.4,6.1,5.4c2.4,0,4.1-1.1,5-2.6l1.3,0.7
		c-1.2,2-3.4,3.3-6.3,3.3c-4.4,0-7.6-3.2-7.6-7.5c0-4.2,3.1-7.5,7.5-7.5C160,991.6,162.7,995.2,162.7,999.2z M149.6,998.5h11.6
		c-0.3-3.5-2.8-5.5-5.6-5.5C152.3,993,149.9,995.3,149.6,998.5z"/>
	<path class="st3" d="M172.3,991.7v1.4c-2.5,0-4.8,1.5-4.8,5.2v8h-1.4v-14.4h1.4v2.8C168.5,992.5,170.4,991.7,172.3,991.7z"/>
	<path class="st3" d="M184.4,1002.5c0,2.4-2.1,4.1-5.2,4.1c-2.9,0-4.8-1.4-5.5-3.2l1.2-0.7c0.5,1.6,2.1,2.5,4.2,2.5
		c2,0,3.7-0.9,3.7-2.7c0-3.9-8.7-1.7-8.7-6.9c0-2.3,2-4.1,4.9-4.1c2.3,0,4.1,1.1,4.9,2.9l-1.2,0.7c-0.6-1.5-2.1-2.2-3.7-2.2
		c-1.9,0-3.5,1-3.5,2.7C175.7,999.6,184.4,997.3,184.4,1002.5z"/>
	<path class="st3" d="M199.9,997.4v9h-1.5v-9c0-2.6-1.5-4.4-4.2-4.4c-2.8,0-5,1.8-5,5.7v7.6h-1.4v-20.2h1.4v8.5
		c1.1-2.1,2.9-3.1,5.2-3.1C197.7,991.6,199.9,993.9,199.9,997.4z"/>
	<path class="st3" d="M203.3,988.5c0-0.7,0.6-1.4,1.4-1.4c0.7,0,1.3,0.6,1.3,1.4c0,0.7-0.6,1.4-1.3,1.4
		C203.9,989.8,203.3,989.2,203.3,988.5z M204,991.9h1.4v14.4H204V991.9z"/>
	<path class="st3" d="M224.9,999.1c0,4.3-3.3,7.5-7.5,7.5c-2.8,0-5-1.4-6.2-3.7v9.1h-1.4v-20.2h1.4v3.3c1.2-2.2,3.4-3.7,6.2-3.7
		C221.6,991.6,224.9,994.9,224.9,999.1z M223.5,999.1c0-3.4-2.7-6.1-6.1-6.1c-3.4,0-6.1,2.7-6.1,6.1s2.7,6.1,6.1,6.1
		C220.8,1005.3,223.5,1002.5,223.5,999.1z"/>
	<path class="st3" d="M237.8,1002.5c0,2.4-2.1,4.1-5.2,4.1c-2.9,0-4.8-1.4-5.5-3.2l1.2-0.7c0.5,1.6,2.1,2.5,4.2,2.5
		c2,0,3.7-0.9,3.7-2.7c0-3.9-8.7-1.7-8.7-6.9c0-2.3,2-4.1,4.9-4.1c2.3,0,4.1,1.1,4.9,2.9l-1.2,0.7c-0.6-1.5-2.1-2.2-3.7-2.2
		c-1.9,0-3.5,1-3.5,2.7C229.1,999.6,237.8,997.3,237.8,1002.5z"/>
	<path class="st3" d="M54.2,1037c0-1.4,1.1-2.5,2.5-2.5c1.4,0,2.5,1.1,2.5,2.5c0,1.4-1.1,2.5-2.5,2.5
		C55.4,1039.5,54.2,1038.4,54.2,1037z"/>
	<path class="st3" d="M89.7,1037.7h-5.2v5.2h-1.4v-5.2H78v-1.4h5.2v-5.2h1.4v5.2h5.2V1037.7z"/>
	<path class="st3" d="M105.9,1041.3c0,3.9-3.1,6.1-6.7,6.1c-2.9,0-5.4-1.4-6.4-4.1l1.3-0.7c0.7,2.2,2.6,3.3,5.1,3.3
		c3,0,5.2-1.8,5.2-4.7s-2.2-4.7-5.2-4.7h-5.4l0.7-9.7h10.7v1.4h-9.3l-0.5,6.8h3.8C102.8,1035.2,105.9,1037.4,105.9,1041.3z"/>
	<path class="st3" d="M108.3,1037c0-6.2,2.7-10.4,7.5-10.4c4.8,0,7.5,4.2,7.5,10.4c0,6.2-2.7,10.4-7.5,10.4
		C111,1047.4,108.3,1043.3,108.3,1037z M121.9,1037c0-5.6-2.2-8.9-6-8.9s-6,3.3-6,8.9c0,5.6,2.2,8.9,6,8.9S121.9,1042.7,121.9,1037z
		"/>
	<path class="st3" d="M127.2,1051.2h-1.3l1.1-6h1.8L127.2,1051.2z"/>
	<path class="st3" d="M131.2,1037c0-6.2,2.7-10.4,7.5-10.4c4.8,0,7.5,4.2,7.5,10.4c0,6.2-2.7,10.4-7.5,10.4
		C133.9,1047.4,131.2,1043.3,131.2,1037z M144.7,1037c0-5.6-2.2-8.9-6-8.9s-6,3.3-6,8.9c0,5.6,2.2,8.9,6,8.9
		S144.7,1042.7,144.7,1037z"/>
	<path class="st3" d="M149.3,1037c0-6.2,2.7-10.4,7.5-10.4c4.8,0,7.5,4.2,7.5,10.4c0,6.2-2.7,10.4-7.5,10.4
		C152,1047.4,149.3,1043.3,149.3,1037z M162.8,1037c0-5.6-2.2-8.9-6-8.9s-6,3.3-6,8.9c0,5.6,2.2,8.9,6,8.9S162.8,1042.7,162.8,1037z
		"/>
	<path class="st3" d="M167.4,1037c0-6.2,2.7-10.4,7.5-10.4c4.8,0,7.5,4.2,7.5,10.4c0,6.2-2.7,10.4-7.5,10.4
		C170.2,1047.4,167.4,1043.3,167.4,1037z M181,1037c0-5.6-2.2-8.9-6-8.9s-6,3.3-6,8.9c0,5.6,2.2,8.9,6,8.9S181,1042.7,181,1037z"/>
	<path class="st3" d="M209,1027v20.2h-1.5v-9.6h-11.7v9.6h-1.5V1027h1.5v9.1h11.7v-9.1H209z"/>
	<path class="st3" d="M212.8,1039.9c0-4.3,3.4-7.5,7.6-7.5c4.2,0,7.5,3.3,7.5,7.5s-3.4,7.5-7.5,7.5
		C216.1,1047.4,212.8,1044.2,212.8,1039.9z M226.4,1039.9c0-3.4-2.6-6.1-6.1-6.1c-3.4,0-6.1,2.7-6.1,6.1s2.7,6.1,6.1,6.1
		C223.8,1046.1,226.4,1043.3,226.4,1039.9z"/>
	<path class="st3" d="M231.4,1026.1h1.4v21h-1.4V1026.1z"/>
	<path class="st3" d="M251.4,1027v20.2h-1.4v-3.3c-1.2,2.2-3.4,3.7-6.2,3.7c-4.1,0-7.5-3.3-7.5-7.5s3.3-7.5,7.5-7.5
		c2.8,0,5,1.4,6.2,3.7v-9.1H251.4z M249.9,1039.9c0-3.4-2.7-6.1-6.1-6.1c-3.4,0-6.1,2.7-6.1,6.1s2.7,6.1,6.1,6.1
		C247.2,1046.1,249.9,1043.3,249.9,1039.9z"/>
	<path class="st3" d="M269.4,1040c0,0.2,0,0.5,0,0.7h-13c0.3,3.3,2.8,5.4,6.1,5.4c2.4,0,4.1-1.1,5-2.6l1.3,0.7
		c-1.2,2-3.4,3.3-6.3,3.3c-4.4,0-7.6-3.2-7.6-7.5c0-4.2,3.1-7.5,7.5-7.5C266.7,1032.4,269.4,1036,269.4,1040z M256.3,1039.3h11.6
		c-0.3-3.5-2.8-5.5-5.6-5.5C259,1033.8,256.6,1036.1,256.3,1039.3z"/>
	<path class="st3" d="M279,1032.5v1.4c-2.5,0-4.8,1.5-4.8,5.2v8h-1.4v-14.4h1.4v2.8C275.2,1033.3,277.1,1032.5,279,1032.5z"/>
	<path class="st3" d="M291.1,1043.3c0,2.4-2.1,4.1-5.2,4.1c-2.9,0-4.8-1.4-5.5-3.2l1.2-0.7c0.5,1.6,2.1,2.5,4.2,2.5
		c2,0,3.7-0.9,3.7-2.7c0-3.9-8.7-1.7-8.7-6.9c0-2.3,2-4.1,4.9-4.1c2.3,0,4.1,1.1,4.9,2.9l-1.2,0.7c-0.6-1.5-2.1-2.2-3.7-2.2
		c-1.9,0-3.5,1-3.5,2.7C282.3,1040.4,291.1,1038.1,291.1,1043.3z"/>
	<path class="st3" d="M54.2,1077.8c0-1.4,1.1-2.5,2.5-2.5c1.4,0,2.5,1.1,2.5,2.5c0,1.4-1.1,2.5-2.5,2.5
		C55.4,1080.3,54.2,1079.2,54.2,1077.8z"/>
	<path class="st3" d="M91,1069.2h-6.3v18.7h-1.6v-18.7h-6.3v-1.4H91V1069.2z"/>
	<path class="st3" d="M98.8,1067.8v20.2h-1.5v-18.5l-4.7,1.5l-0.4-1.3l5.3-1.8H98.8z"/>
	<path class="st3" d="M123.1,1086.5v1.4h-11.6v-20.2h11.5v1.4H113v7.8h9.2v1.4H113v8H123.1z"/>
	<path class="st3" d="M136.5,1087.9l-4.9-6.3l-4.9,6.3H125l5.8-7.4l-5.4-7h1.8l4.5,5.8l4.5-5.8h1.7l-5.4,7l5.7,7.4H136.5z"/>
	<path class="st3" d="M139.3,1080.7c0-4.3,3.2-7.5,7.6-7.5c2.8,0,5.2,1.4,6.3,3.7l-1.2,0.7c-0.8-1.8-2.8-3-5.1-3
		c-3.5,0-6.1,2.7-6.1,6.1s2.6,6.1,6.1,6.1c2.3,0,4.2-1.2,5.2-3l1.2,0.7c-1.2,2.2-3.6,3.7-6.4,3.7
		C142.5,1088.2,139.3,1085,139.3,1080.7z"/>
	<path class="st3" d="M168.6,1079v9h-1.5v-9c0-2.6-1.5-4.4-4.2-4.4c-2.8,0-5,1.8-5,5.7v7.6h-1.4v-20.2h1.4v8.5
		c1.1-2.1,2.9-3.1,5.2-3.1C166.4,1073.2,168.6,1075.5,168.6,1079z"/>
	<path class="st3" d="M186.8,1073.5v14.4h-1.5v-3.3c-1.2,2.2-3.4,3.6-6.2,3.6c-4.1,0-7.5-3.3-7.5-7.5s3.4-7.5,7.5-7.5
		c2.8,0,5,1.4,6.2,3.6v-3.3H186.8z M185.3,1080.7c0-3.4-2.6-6.1-6.1-6.1c-3.4,0-6.1,2.7-6.1,6.1s2.7,6.1,6.1,6.1
		C182.6,1086.9,185.3,1084.1,185.3,1080.7z"/>
	<path class="st3" d="M203.4,1079v9h-1.5v-9c0-2.6-1.5-4.4-4.2-4.4c-2.8,0-5,1.8-5,5.7v7.6h-1.4v-14.4h1.4v2.7
		c1.1-2.1,2.9-3.1,5.2-3.1C201.2,1073.2,203.4,1075.5,203.4,1079z"/>
	<path class="st3" d="M221.7,1073.5v13.7c0,4.3-3.2,6.8-7.2,6.8c-3.4,0-5.8-1.4-6.8-3.5l1.3-0.7c0.7,1.5,2.4,2.8,5.5,2.8
		c3.6,0,5.7-2.1,5.7-5.4v-2.6c-1.2,2.2-3.4,3.7-6.2,3.7c-4.1,0-7.5-3.3-7.5-7.5s3.3-7.5,7.5-7.5c2.8,0,5,1.4,6.2,3.7v-3.3H221.7z
		 M220.2,1080.7c0-3.4-2.7-6.1-6.1-6.1c-3.4,0-6.1,2.7-6.1,6.1s2.7,6.1,6.1,6.1C217.6,1086.9,220.2,1084.1,220.2,1080.7z"/>
	<path class="st3" d="M239.7,1080.8c0,0.2,0,0.5,0,0.7h-13c0.3,3.3,2.8,5.4,6.1,5.4c2.4,0,4.1-1.1,5-2.6l1.3,0.7
		c-1.2,2-3.4,3.3-6.3,3.3c-4.4,0-7.6-3.2-7.6-7.5c0-4.2,3.1-7.5,7.5-7.5C237,1073.2,239.7,1076.8,239.7,1080.8z M226.6,1080.1h11.6
		c-0.3-3.5-2.8-5.5-5.6-5.5C229.3,1074.6,226.9,1076.9,226.6,1080.1z"/>
	<path class="st3" d="M262.1,1086.5v1.4h-11v-20.2h1.5v18.7H262.1z"/>
	<path class="st3" d="M264.3,1070.1c0-0.7,0.6-1.4,1.4-1.4c0.7,0,1.3,0.6,1.3,1.4c0,0.7-0.6,1.4-1.3,1.4
		C264.9,1071.4,264.3,1070.8,264.3,1070.1z M265,1073.5h1.4v14.4H265V1073.5z"/>
	<path class="st3" d="M280.5,1084.1c0,2.4-2.1,4.1-5.2,4.1c-2.9,0-4.8-1.4-5.5-3.2l1.2-0.7c0.5,1.6,2.1,2.5,4.2,2.5
		c2,0,3.7-0.9,3.7-2.7c0-3.9-8.7-1.7-8.7-6.9c0-2.3,2-4.1,4.9-4.1c2.3,0,4.1,1.1,4.9,2.9l-1.2,0.7c-0.6-1.5-2.1-2.2-3.7-2.2
		c-1.9,0-3.5,1-3.5,2.7C271.8,1081.2,280.5,1078.9,280.5,1084.1z"/>
	<path class="st3" d="M286.5,1074.9v9.4c0,2.5,1.4,2.6,4.3,2.3v1.3c-3.8,0.6-5.8-0.3-5.8-3.6v-9.4h-3.2v-1.4h3.2v-3.6l1.5-0.4v4h4.3
		v1.4H286.5z"/>
	<path class="st3" d="M293.6,1070.1c0-0.7,0.6-1.4,1.4-1.4c0.7,0,1.3,0.6,1.3,1.4c0,0.7-0.6,1.4-1.3,1.4
		C294.2,1071.4,293.6,1070.8,293.6,1070.1z M294.3,1073.5h1.4v14.4h-1.4V1073.5z"/>
	<path class="st3" d="M312.3,1079v9h-1.5v-9c0-2.6-1.5-4.4-4.2-4.4c-2.8,0-5,1.8-5,5.7v7.6h-1.4v-14.4h1.4v2.7
		c1.1-2.1,2.9-3.1,5.2-3.1C310.2,1073.2,312.3,1075.5,312.3,1079z"/>
	<path class="st3" d="M330.6,1073.5v13.7c0,4.3-3.2,6.8-7.2,6.8c-3.4,0-5.8-1.4-6.8-3.5l1.3-0.7c0.7,1.5,2.4,2.8,5.5,2.8
		c3.6,0,5.7-2.1,5.7-5.4v-2.6c-1.2,2.2-3.4,3.7-6.2,3.7c-4.1,0-7.5-3.3-7.5-7.5s3.3-7.5,7.5-7.5c2.8,0,5,1.4,6.2,3.7v-3.3H330.6z
		 M329.2,1080.7c0-3.4-2.7-6.1-6.1-6.1c-3.4,0-6.1,2.7-6.1,6.1s2.7,6.1,6.1,6.1C326.5,1086.9,329.2,1084.1,329.2,1080.7z"/>
	<path class="st3" d="M344.8,1084.1c0,2.4-2.1,4.1-5.2,4.1c-2.9,0-4.8-1.4-5.5-3.2l1.2-0.7c0.5,1.6,2.1,2.5,4.2,2.5
		c2,0,3.7-0.9,3.7-2.7c0-3.9-8.7-1.7-8.7-6.9c0-2.3,2-4.1,4.9-4.1c2.3,0,4.1,1.1,4.9,2.9l-1.2,0.7c-0.6-1.5-2.1-2.2-3.7-2.2
		c-1.9,0-3.5,1-3.5,2.7C336,1081.2,344.8,1078.9,344.8,1084.1z"/>
	<path class="st3" d="M54.2,1118.6c0-1.4,1.1-2.5,2.5-2.5c1.4,0,2.5,1.1,2.5,2.5c0,1.4-1.1,2.5-2.5,2.5
		C55.4,1121.1,54.2,1120,54.2,1118.6z"/>
	<path class="st3" d="M96.9,1128.7h-1.5v-17.9l-7.5,12.4h-0.3l-7.5-12.4v17.9h-1.5v-20.2h1.9l7.2,11.9l7.2-11.9h1.9V1128.7z"/>
	<path class="st3" d="M100.6,1121.5c0-4.3,3.4-7.5,7.6-7.5c4.2,0,7.5,3.3,7.5,7.5s-3.4,7.5-7.5,7.5
		C104,1129,100.6,1125.8,100.6,1121.5z M114.3,1121.5c0-3.4-2.6-6.1-6.1-6.1c-3.4,0-6.1,2.7-6.1,6.1s2.7,6.1,6.1,6.1
		C111.6,1127.7,114.3,1124.9,114.3,1121.5z"/>
	<path class="st3" d="M125.5,1114.1v1.4c-2.5,0-4.8,1.5-4.8,5.2v8h-1.4v-14.4h1.4v2.8C121.6,1114.9,123.5,1114.1,125.5,1114.1z"/>
	<path class="st3" d="M131.6,1115.7v9.4c0,2.5,1.4,2.6,4.3,2.3v1.3c-3.8,0.6-5.8-0.3-5.8-3.6v-9.4H127v-1.4h3.2v-3.6l1.5-0.4v4h4.3
		v1.4H131.6z"/>
	<path class="st3" d="M151.8,1114.3l-6.2,15.7c-1.1,2.8-3.2,4.6-5.7,4.4v-1.4c1.9,0.2,3.4-1.3,4.3-3.4l0.3-0.8l-6.6-14.7h1.6
		l5.8,12.8l5-12.8H151.8z"/>
	<path class="st3" d="M174,1123.6h-10.1l-2,5.1h-1.6l7.8-20.2h1.6l7.8,20.2h-1.6L174,1123.6z M173.4,1122.2l-4.5-11.7l-4.5,11.7
		H173.4z"/>
	<path class="st3" d="M178.9,1121.5c0-4.3,3.2-7.5,7.6-7.5c2.8,0,5.2,1.4,6.3,3.7l-1.2,0.7c-0.8-1.8-2.8-3-5.1-3
		c-3.5,0-6.1,2.7-6.1,6.1s2.6,6.1,6.1,6.1c2.3,0,4.2-1.2,5.2-3l1.2,0.7c-1.2,2.2-3.6,3.7-6.4,3.7
		C182.1,1129,178.9,1125.8,178.9,1121.5z"/>
	<path class="st3" d="M210,1114.3v14.4h-1.5v-3.3c-1.2,2.2-3.4,3.6-6.2,3.6c-4.1,0-7.5-3.3-7.5-7.5s3.4-7.5,7.5-7.5
		c2.8,0,5,1.4,6.2,3.6v-3.3H210z M208.6,1121.5c0-3.4-2.6-6.1-6.1-6.1c-3.4,0-6.1,2.7-6.1,6.1s2.7,6.1,6.1,6.1
		C205.9,1127.7,208.6,1124.9,208.6,1121.5z"/>
	<path class="st3" d="M228.6,1108.6v20.2h-1.4v-3.3c-1.2,2.2-3.4,3.7-6.2,3.7c-4.1,0-7.5-3.3-7.5-7.5s3.3-7.5,7.5-7.5
		c2.8,0,5,1.4,6.2,3.7v-9.1H228.6z M227.2,1121.5c0-3.4-2.7-6.1-6.1-6.1c-3.4,0-6.1,2.7-6.1,6.1s2.7,6.1,6.1,6.1
		C224.5,1127.7,227.2,1124.9,227.2,1121.5z"/>
	<path class="st3" d="M246.6,1121.6c0,0.2,0,0.5,0,0.7h-13c0.3,3.3,2.8,5.4,6.1,5.4c2.4,0,4.1-1.1,5-2.6l1.3,0.7
		c-1.2,2-3.4,3.3-6.3,3.3c-4.4,0-7.6-3.2-7.6-7.5c0-4.2,3.1-7.5,7.5-7.5C243.9,1114,246.6,1117.6,246.6,1121.6z M233.6,1120.9h11.6
		c-0.3-3.5-2.8-5.5-5.6-5.5C236.2,1115.4,233.9,1117.7,233.6,1120.9z"/>
	<path class="st3" d="M270.6,1119.6v9.1h-1.4v-9.1c0-2.7-1.6-4.2-3.8-4.2c-2.4,0-4.3,1.6-4.3,5.3v8h-1.4v-9.1c0-2.7-1.5-4.2-3.7-4.2
		c-2.4,0-4.5,1.6-4.5,5.3v8H250v-14.4h1.4v2.5c1.1-2,2.8-2.8,4.6-2.8c2.1,0,3.7,1,4.5,2.9c1-2,2.9-2.9,4.8-2.9
		C268.4,1114,270.6,1116,270.6,1119.6z"/>
	<path class="st3" d="M286.5,1114.3l-6.2,15.7c-1.1,2.8-3.2,4.6-5.7,4.4v-1.4c1.9,0.2,3.4-1.3,4.3-3.4l0.3-0.8l-6.6-14.7h1.6
		l5.8,12.8l5-12.8H286.5z"/>
	<path class="st3" d="M54.2,1159.4c0-1.4,1.1-2.5,2.5-2.5c1.4,0,2.5,1.1,2.5,2.5c0,1.4-1.1,2.5-2.5,2.5
		C55.4,1161.9,54.2,1160.8,54.2,1159.4z"/>
	<path class="st3" d="M96.9,1169.5h-1.5v-17.9l-7.5,12.4h-0.3l-7.5-12.4v17.9h-1.5v-20.2h1.9l7.2,11.9l7.2-11.9h1.9V1169.5z"/>
	<path class="st3" d="M100.6,1162.3c0-4.3,3.4-7.5,7.6-7.5c4.2,0,7.5,3.3,7.5,7.5s-3.4,7.5-7.5,7.5
		C104,1169.8,100.6,1166.6,100.6,1162.3z M114.3,1162.3c0-3.4-2.6-6.1-6.1-6.1c-3.4,0-6.1,2.7-6.1,6.1s2.7,6.1,6.1,6.1
		C111.6,1168.5,114.3,1165.7,114.3,1162.3z"/>
	<path class="st3" d="M125.5,1154.9v1.4c-2.5,0-4.8,1.5-4.8,5.2v8h-1.4v-14.4h1.4v2.8C121.6,1155.7,123.5,1154.9,125.5,1154.9z"/>
	<path class="st3" d="M131.6,1156.5v9.4c0,2.5,1.4,2.6,4.3,2.3v1.3c-3.8,0.6-5.8-0.3-5.8-3.6v-9.4H127v-1.4h3.2v-3.6l1.5-0.4v4h4.3
		v1.4H131.6z"/>
	<path class="st3" d="M151.8,1155.1l-6.2,15.7c-1.1,2.8-3.2,4.6-5.7,4.4v-1.4c1.9,0.2,3.4-1.3,4.3-3.4l0.3-0.8l-6.6-14.7h1.6
		l5.8,12.8l5-12.8H151.8z"/>
	<path class="st3" d="M161.2,1159.4c0-5.8,4.3-10.4,10.5-10.4c3.7,0,7,1.9,8.6,4.8l-1.4,0.8c-1.3-2.5-4.1-4.1-7.3-4.1
		c-5.3,0-9,4-9,8.9c0,5,3.7,8.9,9,8.9c3.2,0,6-1.7,7.3-4.2l1.4,0.8c-1.6,3-4.9,4.9-8.7,4.9C165.5,1169.8,161.2,1165.2,161.2,1159.4z
		"/>
	<path class="st3" d="M195.9,1160.6v9h-1.5v-9c0-2.6-1.5-4.4-4.2-4.4c-2.8,0-5,1.8-5,5.7v7.6h-1.4v-20.2h1.4v8.5
		c1.1-2.1,2.9-3.1,5.2-3.1C193.7,1154.8,195.9,1157.1,195.9,1160.6z"/>
	<path class="st3" d="M214.1,1155.1v14.4h-1.5v-3.3c-1.2,2.2-3.4,3.6-6.2,3.6c-4.1,0-7.5-3.3-7.5-7.5s3.4-7.5,7.5-7.5
		c2.8,0,5,1.4,6.2,3.6v-3.3H214.1z M212.6,1162.3c0-3.4-2.6-6.1-6.1-6.1c-3.4,0-6.1,2.7-6.1,6.1s2.7,6.1,6.1,6.1
		C210,1168.5,212.6,1165.7,212.6,1162.3z"/>
	<path class="st3" d="M217.9,1151.7c0-0.7,0.6-1.4,1.4-1.4c0.7,0,1.3,0.6,1.3,1.4c0,0.7-0.6,1.4-1.3,1.4
		C218.4,1153,217.9,1152.4,217.9,1151.7z M218.5,1155.1h1.4v14.4h-1.4V1155.1z"/>
	<path class="st3" d="M236.6,1160.6v9h-1.5v-9c0-2.6-1.5-4.4-4.2-4.4c-2.8,0-5,1.8-5,5.7v7.6h-1.4v-14.4h1.4v2.7
		c1.1-2.1,2.9-3.1,5.2-3.1C234.4,1154.8,236.6,1157.1,236.6,1160.6z"/>
	<path class="st3" d="M261,1150.8h-6.3v18.7h-1.6v-18.7h-6.3v-1.4H261V1150.8z"/>
	<path class="st3" d="M260.3,1162.3c0-4.3,3.4-7.5,7.6-7.5c4.2,0,7.5,3.3,7.5,7.5s-3.4,7.5-7.5,7.5
		C263.7,1169.8,260.3,1166.6,260.3,1162.3z M273.9,1162.3c0-3.4-2.6-6.1-6.1-6.1c-3.4,0-6.1,2.7-6.1,6.1s2.7,6.1,6.1,6.1
		C271.3,1168.5,273.9,1165.7,273.9,1162.3z"/>
	<path class="st3" d="M277.9,1162.3c0-4.3,3.4-7.5,7.6-7.5c4.2,0,7.5,3.3,7.5,7.5s-3.4,7.5-7.5,7.5
		C281.3,1169.8,277.9,1166.6,277.9,1162.3z M291.5,1162.3c0-3.4-2.6-6.1-6.1-6.1c-3.4,0-6.1,2.7-6.1,6.1s2.7,6.1,6.1,6.1
		C288.9,1168.5,291.5,1165.7,291.5,1162.3z"/>
	<path class="st3" d="M296.5,1148.5h1.4v21h-1.4V1148.5z"/>
	<path class="st3" d="M312,1165.7c0,2.4-2.1,4.1-5.2,4.1c-2.9,0-4.8-1.4-5.5-3.2l1.2-0.7c0.5,1.6,2.1,2.5,4.2,2.5
		c2,0,3.7-0.9,3.7-2.7c0-3.9-8.7-1.7-8.7-6.9c0-2.3,2-4.1,4.9-4.1c2.3,0,4.1,1.1,4.9,2.9l-1.2,0.7c-0.6-1.5-2.1-2.2-3.7-2.2
		c-1.9,0-3.5,1-3.5,2.7C303.3,1162.8,312,1160.5,312,1165.7z"/>
</g>
</svg>
