<?xml version="1.0" encoding="utf-8"?>
<!-- Generator: Adobe Illustrator 27.0.0, SVG Export Plug-In . SVG Version: 6.00 Build 0)  -->
<svg version="1.1" id="katman_1" xmlns="http://www.w3.org/2000/svg" xmlns:xlink="http://www.w3.org/1999/xlink" x="0px" y="0px"
	 viewBox="0 0 530 1249" style="enable-background:new 0 0 530 1249;" xml:space="preserve">
<style type="text/css">
	.st0{fill:#1C1A27;}
	.st1{fill:none;stroke:url(#SVGID_1_);stroke-opacity:0.6;}
	.st2{fill:url(#SVGID_00000067947882040162930560000010474861920566722198_);}
	.st3{fill:#FFFFFF;}
	.st4{fill:url(#SVGID_00000131327816835289428830000002887095345908408720_);}
	.st5{fill:none;stroke:#FFFFFF;stroke-width:2;stroke-opacity:0.2;}
	.st6{fill:url(#SVGID_00000062167196998443294860000004297485348004216475_);}
	.st7{fill:url(#SVGID_00000022536797811980457000000001949521321231276418_);}
	.st8{fill:url(#SVGID_00000180332857493424434530000005477509692949931394_);}
	.st9{fill:url(#SVGID_00000000186349332403696090000005197789820847270550_);}
</style>
<g>
	<path class="st0" d="M191,428h279c33.1,0,60,26.9,60,60v273c0,33.1-26.9,60-60,60H191c-33.1,0-60-26.9-60-60V488
		C131,454.9,157.9,428,191,428z"/>
</g>
<linearGradient id="SVGID_1_" gradientUnits="userSpaceOnUse" x1="34.5" y1="261.2781" x2="34.4999" y2="1404.3181" gradientTransform="matrix(1 0 0 -1 0 1452)">
	<stop  offset="0" style="stop-color:#FFFFFF;stop-opacity:0"/>
	<stop  offset="0.5" style="stop-color:#FFFFFF;stop-opacity:0.6398"/>
	<stop  offset="1" style="stop-color:#FFFFFF;stop-opacity:0"/>
</linearGradient>
<line class="st1" x1="34.5" y1="0" x2="34.5" y2="1249"/>
<linearGradient id="SVGID_00000044858014320184511170000014867168313954063276_" gradientUnits="userSpaceOnUse" x1="34" y1="861" x2="34" y2="793" gradientTransform="matrix(1 0 0 -1 0 1452)">
	<stop  offset="0" style="stop-color:#FE316F"/>
	<stop  offset="1" style="stop-color:#D220FF"/>
</linearGradient>
<circle style="fill:url(#SVGID_00000044858014320184511170000014867168313954063276_);" cx="34" cy="625" r="34"/>
<path class="st3" d="M42,632v3.9H25.4v-1c0.1-2.1,0.8-4.2,1.9-6.1c1.1-2,2.8-3.4,5-4.3c0.5-0.2,0.8-0.4,1.1-0.4
	c1.1-0.4,1.9-0.8,2.5-1.1c0.6-0.3,1.1-0.7,1.5-1.1c0.4-0.4,0.6-1,0.6-1.6c0-0.7-0.2-1.3-0.6-1.8c-0.4-0.5-0.9-0.9-1.5-1.2
	c-0.6-0.3-1.2-0.4-1.8-0.4c-1.3,0-2.4,0.3-3.4,0.8c-0.9,0.5-1.5,1.3-1.6,2.4l-3.9-0.4c0.2-1.4,0.7-2.5,1.6-3.5
	c0.9-1,1.9-1.7,3.2-2.2c1.3-0.5,2.7-0.8,4.2-0.8c1.3,0,2.6,0.3,3.8,0.8c1.2,0.6,2.2,1.4,2.9,2.4c0.7,1,1.1,2.3,1.1,3.7
	s-0.3,2.6-1,3.5c-0.7,0.9-1.5,1.7-2.6,2.3c-1.1,0.6-2.5,1.2-4.4,2c-1.6,0.6-2.8,2-3.5,4.1H42z"/>
<linearGradient id="SVGID_00000130637015831054985470000004296717378009934976_" gradientUnits="userSpaceOnUse" x1="34" y1="1268" x2="34" y2="1200" gradientTransform="matrix(1 0 0 -1 0 1452)">
	<stop  offset="0" style="stop-color:#FE316F"/>
	<stop  offset="1" style="stop-color:#D220FF"/>
</linearGradient>
<circle style="fill:url(#SVGID_00000130637015831054985470000004296717378009934976_);" cx="34" cy="218" r="34"/>
<path class="st3" d="M35.9,206.6V225H42v4H25.2v-4h6.5v-14l-3.5,2.1l-2.2-3.3l5.7-3.3v0H35.9z"/>
<line class="st5" x1="131" y1="220" x2="72" y2="220"/>
<linearGradient id="SVGID_00000150808919687181883670000002526945129601615750_" gradientUnits="userSpaceOnUse" x1="34" y1="450" x2="34" y2="382" gradientTransform="matrix(1 0 0 -1 0 1452)">
	<stop  offset="0" style="stop-color:#FE316F"/>
	<stop  offset="1" style="stop-color:#D220FF"/>
</linearGradient>
<circle style="fill:url(#SVGID_00000150808919687181883670000002526945129601615750_);" cx="34" cy="1036" r="34"/>
<path class="st3" d="M39,1035.1c0.9,0.6,1.6,1.4,2,2.3c0.5,0.9,0.7,1.9,0.7,2.9c0,1.3-0.4,2.5-1.1,3.6c-0.7,1.1-1.7,1.9-3,2.5
	c-1.3,0.6-2.7,0.9-4.2,0.9c-1.5,0-2.8-0.3-4-0.8c-1.2-0.6-2.2-1.3-2.9-2.3c-0.7-1-1.2-2.1-1.2-3.3l4.3-0.3c0.2,0.8,0.7,1.5,1.4,2
	c0.7,0.5,1.6,0.8,2.5,0.8c1.2,0,2.2-0.3,3-0.9s1.2-1.4,1.2-2.4c0-1-0.4-1.8-1.2-2.4c-0.8-0.6-1.8-0.9-3-0.9h-1.2l0-3.4h1.2
	c1.1,0,1.9-0.2,2.6-0.8c0.7-0.5,1.1-1.2,1.1-2c0-0.8-0.4-1.5-1.1-2c-0.7-0.5-1.6-0.8-2.7-0.8c-0.8,0-1.5,0.2-2.1,0.5
	s-1.1,0.8-1.4,1.4l-4.1-0.3c0.1-1,0.6-1.9,1.3-2.8c0.7-0.8,1.6-1.5,2.8-1.9s2.3-0.7,3.6-0.7c1.5,0,2.8,0.3,4,0.9
	c1.2,0.5,2.1,1.3,2.8,2.3c0.7,1,1,2.1,1,3.3c0,0.9-0.2,1.7-0.6,2.4C40.3,1033.9,39.7,1034.5,39,1035.1z"/>
<line class="st5" x1="131" y1="1037" x2="72" y2="1037"/>
<line class="st5" x1="127" y1="626" x2="68" y2="626"/>
<g>
	<path class="st0" d="M191,6h279c33.1,0,60,26.9,60,60v273c0,33.1-26.9,60-60,60H191c-33.1,0-60-26.9-60-60V66
		C131,32.9,157.9,6,191,6z"/>
</g>
<linearGradient id="SVGID_00000114052253213177638360000001539548689817447869_" gradientUnits="userSpaceOnUse" x1="274.315" y1="1396.976" x2="412.202" y2="1396.976" gradientTransform="matrix(1 0 0 -1 0 1452)">
	<stop  offset="0" style="stop-color:#FE316F"/>
	<stop  offset="1" style="stop-color:#D220FF"/>
</linearGradient>
<path style="fill:url(#SVGID_00000114052253213177638360000001539548689817447869_);" d="M281.4,43.6c1.3,0,2.5,0.3,3.7,1
	c1.1,0.6,2,1.5,2.7,2.7c0.7,1.1,1,2.4,1,3.7s-0.3,2.5-1,3.7c-0.6,1.1-1.5,2-2.7,2.7s-2.4,1-3.7,1h-4V66h-4.2V43.6H281.4z
	 M281.4,54.3c0.9,0,1.7-0.3,2.3-1c0.7-0.7,1-1.5,1-2.4c0-0.9-0.3-1.7-1-2.4c-0.6-0.7-1.4-1-2.3-1h-4v6.7H281.4z M306.1,66h-3.9v-9.5
	c0-1.2-0.3-2-1-2.6c-0.7-0.5-1.5-0.8-2.4-0.8c-0.7,0-1.4,0.2-2,0.7c-0.6,0.4-1,1.2-1.1,2.1v10h-4V43.6h4v7.7
	c0.5-0.5,1.1-0.9,1.8-1.2c0.7-0.3,1.4-0.4,2.2-0.4c0.9,0,1.9,0.2,2.8,0.6c1,0.4,1.8,1.1,2.5,2.1c0.7,1,1.1,2.4,1.1,4.1V66z
	 M321.9,50h4v16h-4v-1.6c-0.7,0.6-1.6,1.1-2.5,1.5c-0.9,0.3-1.8,0.5-2.8,0.5c-1.6,0-3-0.4-4.3-1.1c-1.2-0.7-2.2-1.7-2.8-3
	c-0.6-1.3-1-2.7-1-4.3c0-1.6,0.3-3,1-4.3c0.7-1.3,1.6-2.3,2.8-3c1.2-0.7,2.6-1.1,4.3-1.1c1,0,1.9,0.2,2.8,0.5
	c0.9,0.3,1.7,0.8,2.5,1.5V50z M317.2,62.6c0.9,0,1.7-0.2,2.4-0.6c0.7-0.4,1.3-1,1.7-1.7c0.4-0.7,0.6-1.5,0.6-2.4
	c0-1.3-0.5-2.4-1.4-3.3c-0.9-0.9-2-1.3-3.3-1.3c-1.3,0-2.5,0.4-3.3,1.3c-0.9,0.9-1.3,2-1.3,3.3c0,1.3,0.4,2.5,1.3,3.3
	C314.7,62.2,315.8,62.6,317.2,62.6z M332.8,54.5c0,0.4,0.2,0.8,0.7,1c0.5,0.2,1.3,0.4,2.4,0.7c1.2,0.3,2.3,0.5,3.1,0.9
	s1.5,0.8,2.1,1.5c0.6,0.7,0.9,1.6,0.9,2.8c0,1-0.3,2-1,2.7c-0.6,0.8-1.4,1.4-2.5,1.8c-1,0.4-2.2,0.6-3.4,0.6c-1.7,0-3.1-0.3-4.4-1
	c-1.2-0.6-2.1-1.6-2.7-2.8l3.3-1.7c0.6,1.5,1.8,2.2,3.7,2.2c0.8,0,1.5-0.2,2.1-0.5c0.6-0.3,0.9-0.8,0.9-1.4c0-0.5-0.3-0.9-0.8-1.1
	c-0.5-0.3-1.4-0.5-2.6-0.8c-1.3-0.3-2.3-0.6-3.1-0.9c-0.8-0.3-1.5-0.8-2-1.4c-0.6-0.6-0.9-1.5-0.9-2.5c0-1,0.3-1.9,0.9-2.7
	c0.6-0.8,1.4-1.4,2.3-1.8c1-0.4,2.1-0.6,3.2-0.6c1.4,0,2.6,0.3,3.7,0.9c1.1,0.6,2,1.4,2.6,2.5l-3.2,1.6c-0.6-1.2-1.6-1.8-3-1.8
	c-0.7,0-1.3,0.2-1.8,0.5C333,53.5,332.8,53.9,332.8,54.5z M352.1,49.6c1.5,0,2.9,0.4,4.1,1.2c1.2,0.7,2.2,1.8,2.9,3
	c0.7,1.3,1,2.7,1,4.3c0,0.5,0,1-0.1,1.4h-12.4c0.3,1.1,0.9,2,1.7,2.7c0.8,0.6,1.8,0.9,3.1,0.9c0.8,0,1.5-0.2,2.2-0.5
	c0.7-0.3,1.3-0.8,1.6-1.3l3,1.8c-0.7,1.1-1.7,2-2.9,2.6c-1.2,0.6-2.5,0.9-4.1,0.9c-1.7,0-3.2-0.4-4.5-1.1c-1.3-0.7-2.3-1.7-3.1-3
	c-0.7-1.3-1.1-2.7-1.1-4.3c0-1.6,0.4-3,1.1-4.3c0.7-1.3,1.7-2.3,3-3C349,50,350.4,49.6,352.1,49.6z M356.4,56.3
	c-0.2-1-0.7-1.8-1.4-2.4c-0.8-0.6-1.7-0.9-2.9-0.9c-0.8,0-1.6,0.1-2.2,0.4c-0.7,0.3-1.2,0.7-1.6,1.2c-0.4,0.5-0.6,1.1-0.6,1.6H356.4
	z M381.3,43.6V62h6.1v4h-16.8v-4h6.5v-14l-3.5,2.1l-2.2-3.3l5.7-3.3v0H381.3z"/>
<g>
	<path class="st0" d="M191,850h279c33.1,0,60,26.9,60,60v273c0,33.1-26.9,60-60,60H191c-33.1,0-60-26.9-60-60V910
		C131,876.9,157.9,850,191,850z"/>
</g>
<linearGradient id="SVGID_00000008113815762246524530000002513668840606029233_" gradientUnits="userSpaceOnUse" x1="274.315" y1="553.184" x2="412.202" y2="553.184" gradientTransform="matrix(1 0 0 -1 0 1452)">
	<stop  offset="0" style="stop-color:#FE316F"/>
	<stop  offset="1" style="stop-color:#D220FF"/>
</linearGradient>
<path style="fill:url(#SVGID_00000008113815762246524530000002513668840606029233_);" d="M281.4,887.6c1.3,0,2.5,0.3,3.7,1
	c1.1,0.6,2,1.5,2.7,2.7c0.7,1.1,1,2.4,1,3.7s-0.3,2.5-1,3.7c-0.6,1.1-1.5,2-2.7,2.7c-1.1,0.7-2.4,1-3.7,1h-4v7.7h-4.2v-22.4H281.4z
	 M281.4,898.3c0.9,0,1.7-0.3,2.3-1c0.7-0.7,1-1.5,1-2.4s-0.3-1.7-1-2.4c-0.6-0.7-1.4-1-2.3-1h-4v6.7H281.4z M306.1,910h-3.9v-9.5
	c0-1.2-0.3-2-1-2.6c-0.7-0.5-1.5-0.8-2.4-0.8c-0.7,0-1.4,0.2-2,0.7c-0.6,0.4-1,1.2-1.1,2.1v10h-4v-22.4h4v7.7
	c0.5-0.5,1.1-0.9,1.8-1.2c0.7-0.3,1.4-0.4,2.2-0.4c0.9,0,1.9,0.2,2.8,0.6c1,0.4,1.8,1.1,2.5,2.1c0.7,1,1.1,2.4,1.1,4.1V910z
	 M321.9,894h4v16h-4v-1.6c-0.7,0.6-1.6,1.1-2.5,1.5c-0.9,0.3-1.8,0.5-2.8,0.5c-1.6,0-3-0.4-4.3-1.1c-1.2-0.7-2.2-1.7-2.8-3
	c-0.6-1.3-1-2.7-1-4.3c0-1.6,0.3-3,1-4.3c0.7-1.3,1.6-2.3,2.8-3c1.2-0.7,2.6-1.1,4.3-1.1c1,0,1.9,0.2,2.8,0.5
	c0.9,0.3,1.7,0.8,2.5,1.5V894z M317.2,906.6c0.9,0,1.7-0.2,2.4-0.6c0.7-0.4,1.3-1,1.7-1.7c0.4-0.7,0.6-1.5,0.6-2.4
	c0-1.3-0.5-2.4-1.4-3.3c-0.9-0.9-2-1.3-3.3-1.3c-1.3,0-2.5,0.4-3.3,1.3c-0.9,0.9-1.3,2-1.3,3.3s0.4,2.5,1.3,3.3
	C314.7,906.2,315.8,906.6,317.2,906.6z M332.8,898.5c0,0.4,0.2,0.8,0.7,1c0.5,0.2,1.3,0.4,2.4,0.7c1.2,0.3,2.3,0.5,3.1,0.9
	s1.5,0.8,2.1,1.5c0.6,0.7,0.9,1.6,0.9,2.8c0,1-0.3,2-1,2.7c-0.6,0.8-1.4,1.4-2.5,1.8c-1,0.4-2.2,0.6-3.4,0.6c-1.7,0-3.1-0.3-4.4-1
	c-1.2-0.6-2.1-1.6-2.7-2.8l3.3-1.7c0.6,1.5,1.8,2.2,3.7,2.2c0.8,0,1.5-0.2,2.1-0.5c0.6-0.3,0.9-0.8,0.9-1.4c0-0.5-0.3-0.9-0.8-1.1
	c-0.5-0.3-1.4-0.5-2.6-0.8c-1.3-0.3-2.3-0.6-3.1-0.9c-0.8-0.3-1.5-0.8-2-1.4c-0.6-0.6-0.9-1.5-0.9-2.5c0-1,0.3-1.9,0.9-2.7
	c0.6-0.8,1.4-1.4,2.3-1.8c1-0.4,2.1-0.6,3.2-0.6c1.4,0,2.6,0.3,3.7,0.9c1.1,0.6,2,1.4,2.6,2.5l-3.2,1.6c-0.6-1.2-1.6-1.8-3-1.8
	c-0.7,0-1.3,0.2-1.8,0.5C333,897.5,332.8,897.9,332.8,898.5z M352.1,893.6c1.5,0,2.9,0.4,4.1,1.2c1.2,0.7,2.2,1.8,2.9,3
	c0.7,1.3,1,2.7,1,4.3c0,0.5,0,1-0.1,1.4h-12.4c0.3,1.1,0.9,2,1.7,2.7c0.8,0.6,1.8,0.9,3.1,0.9c0.8,0,1.5-0.2,2.2-0.5
	c0.7-0.3,1.3-0.8,1.6-1.3l3,1.8c-0.7,1.1-1.7,2-2.9,2.6c-1.2,0.6-2.5,0.9-4.1,0.9c-1.7,0-3.2-0.4-4.5-1.1s-2.3-1.7-3.1-3
	c-0.7-1.3-1.1-2.7-1.1-4.3c0-1.6,0.4-3,1.1-4.3c0.7-1.3,1.7-2.3,3-3C349,894,350.4,893.6,352.1,893.6z M356.4,900.3
	c-0.2-1-0.7-1.8-1.4-2.4c-0.8-0.6-1.7-0.9-2.9-0.9c-0.8,0-1.6,0.1-2.2,0.4c-0.7,0.3-1.2,0.7-1.6,1.2c-0.4,0.5-0.6,1.1-0.6,1.6H356.4
	z M384.4,898.1c0.9,0.6,1.6,1.4,2,2.3c0.5,0.9,0.7,1.9,0.7,2.9c0,1.3-0.4,2.5-1.1,3.6c-0.7,1.1-1.7,1.9-3,2.5
	c-1.3,0.6-2.7,0.9-4.2,0.9c-1.4,0-2.8-0.3-4-0.8c-1.2-0.6-2.2-1.3-2.9-2.3c-0.7-1-1.2-2.1-1.2-3.3l4.3-0.3c0.2,0.8,0.7,1.5,1.4,2
	c0.7,0.5,1.6,0.8,2.5,0.8c1.2,0,2.2-0.3,3-0.9c0.8-0.6,1.2-1.4,1.2-2.4c0-1-0.4-1.7-1.2-2.4c-0.8-0.6-1.8-0.9-3-0.9h-1.2l0-3.4h1.2
	c1.1,0,1.9-0.3,2.6-0.8c0.7-0.5,1.1-1.2,1.1-2c0-0.8-0.4-1.5-1.1-2c-0.7-0.5-1.6-0.8-2.7-0.8c-0.8,0-1.5,0.2-2.1,0.5
	c-0.7,0.4-1.1,0.8-1.4,1.4l-4.1-0.3c0.1-1,0.6-2,1.3-2.8c0.7-0.8,1.6-1.5,2.8-2c1.1-0.5,2.3-0.7,3.6-0.7c1.5,0,2.8,0.3,4,0.9
	c1.2,0.6,2.1,1.3,2.8,2.3c0.7,1,1,2.1,1,3.3c0,0.9-0.2,1.7-0.6,2.4C385.7,896.9,385.1,897.5,384.4,898.1z"/>
<linearGradient id="SVGID_00000149366706102884588590000018024993500573261492_" gradientUnits="userSpaceOnUse" x1="274.315" y1="975.184" x2="412.202" y2="975.184" gradientTransform="matrix(1 0 0 -1 0 1452)">
	<stop  offset="0" style="stop-color:#FE316F"/>
	<stop  offset="1" style="stop-color:#D220FF"/>
</linearGradient>
<path style="fill:url(#SVGID_00000149366706102884588590000018024993500573261492_);" d="M281.4,465.6c1.3,0,2.5,0.3,3.7,1
	c1.1,0.6,2,1.5,2.7,2.7c0.7,1.1,1,2.4,1,3.7s-0.3,2.5-1,3.7c-0.6,1.1-1.5,2-2.7,2.7c-1.1,0.7-2.4,1-3.7,1h-4v7.7h-4.2v-22.4H281.4z
	 M281.4,476.3c0.9,0,1.7-0.3,2.3-1c0.7-0.7,1-1.5,1-2.4c0-0.9-0.3-1.7-1-2.4c-0.6-0.7-1.4-1-2.3-1h-4v6.7H281.4z M306.1,488h-3.9
	v-9.5c0-1.2-0.3-2-1-2.6c-0.7-0.5-1.5-0.8-2.4-0.8c-0.7,0-1.4,0.2-2,0.7c-0.6,0.4-1,1.2-1.1,2.1v10h-4v-22.4h4v7.7
	c0.5-0.5,1.1-0.9,1.8-1.2c0.7-0.3,1.4-0.4,2.2-0.4c0.9,0,1.9,0.2,2.8,0.6c1,0.4,1.8,1.1,2.5,2.1c0.7,1,1.1,2.4,1.1,4.1V488z
	 M321.9,472h4v16h-4v-1.6c-0.7,0.6-1.6,1.1-2.5,1.5c-0.9,0.3-1.8,0.5-2.8,0.5c-1.6,0-3-0.4-4.3-1.1c-1.2-0.7-2.2-1.7-2.8-3
	c-0.6-1.3-1-2.7-1-4.3c0-1.6,0.3-3,1-4.3c0.7-1.3,1.6-2.3,2.8-3c1.2-0.7,2.6-1.1,4.3-1.1c1,0,1.9,0.2,2.8,0.5
	c0.9,0.3,1.7,0.8,2.5,1.5V472z M317.2,484.6c0.9,0,1.7-0.2,2.4-0.6c0.7-0.4,1.3-1,1.7-1.7c0.4-0.7,0.6-1.5,0.6-2.4
	c0-1.3-0.5-2.4-1.4-3.3c-0.9-0.9-2-1.3-3.3-1.3c-1.3,0-2.5,0.4-3.3,1.3c-0.9,0.9-1.3,2-1.3,3.3c0,1.3,0.4,2.5,1.3,3.3
	C314.7,484.2,315.8,484.6,317.2,484.6z M332.8,476.5c0,0.4,0.2,0.8,0.7,1c0.5,0.2,1.3,0.4,2.4,0.7c1.2,0.3,2.3,0.5,3.1,0.9
	c0.8,0.3,1.5,0.8,2.1,1.5c0.6,0.7,0.9,1.6,0.9,2.8c0,1-0.3,2-1,2.7c-0.6,0.8-1.4,1.4-2.5,1.8c-1,0.4-2.2,0.6-3.4,0.6
	c-1.7,0-3.1-0.3-4.4-1c-1.2-0.6-2.1-1.6-2.7-2.8l3.3-1.7c0.6,1.5,1.8,2.2,3.7,2.2c0.8,0,1.5-0.2,2.1-0.5c0.6-0.3,0.9-0.8,0.9-1.4
	c0-0.5-0.3-0.9-0.8-1.1c-0.5-0.3-1.4-0.5-2.6-0.8c-1.3-0.3-2.3-0.6-3.1-0.9c-0.8-0.3-1.5-0.8-2-1.4c-0.6-0.6-0.9-1.5-0.9-2.5
	c0-1,0.3-1.9,0.9-2.7c0.6-0.8,1.4-1.4,2.3-1.8c1-0.4,2.1-0.6,3.2-0.6c1.4,0,2.6,0.3,3.7,0.9c1.1,0.6,2,1.4,2.6,2.5l-3.2,1.6
	c-0.6-1.2-1.6-1.8-3-1.8c-0.7,0-1.3,0.2-1.8,0.5C333,475.5,332.8,475.9,332.8,476.5z M352.1,471.6c1.5,0,2.9,0.4,4.1,1.2
	c1.2,0.7,2.2,1.8,2.9,3c0.7,1.3,1,2.7,1,4.3c0,0.5,0,1-0.1,1.4h-12.4c0.3,1.1,0.9,2,1.7,2.7c0.8,0.6,1.8,0.9,3.1,0.9
	c0.8,0,1.5-0.2,2.2-0.5c0.7-0.3,1.3-0.8,1.6-1.3l3,1.8c-0.7,1.1-1.7,2-2.9,2.6c-1.2,0.6-2.5,0.9-4.1,0.9c-1.7,0-3.2-0.4-4.5-1.1
	s-2.3-1.7-3.1-3c-0.7-1.3-1.1-2.7-1.1-4.3c0-1.6,0.4-3,1.1-4.3c0.7-1.3,1.7-2.3,3-3C349,472,350.4,471.6,352.1,471.6z M356.4,478.3
	c-0.2-1-0.7-1.8-1.4-2.4c-0.8-0.6-1.7-0.9-2.9-0.9c-0.8,0-1.6,0.1-2.2,0.4c-0.7,0.3-1.2,0.7-1.6,1.2c-0.4,0.5-0.6,1.1-0.6,1.6H356.4
	z M387.5,484v3.9h-16.7v-1c0.1-2.1,0.8-4.2,1.9-6.1c1.1-2,2.8-3.4,5-4.3c0.5-0.2,0.8-0.4,1.1-0.4c1.1-0.4,1.9-0.8,2.5-1.1
	c0.6-0.3,1.1-0.7,1.5-1.1c0.4-0.4,0.6-1,0.6-1.6c0-0.7-0.2-1.3-0.6-1.8c-0.4-0.5-0.9-0.9-1.5-1.2c-0.6-0.3-1.2-0.4-1.8-0.4
	c-1.3,0-2.4,0.3-3.4,0.8c-0.9,0.5-1.5,1.3-1.6,2.4l-3.9-0.4c0.2-1.4,0.7-2.5,1.6-3.5c0.9-1,1.9-1.7,3.2-2.2c1.3-0.5,2.7-0.8,4.2-0.8
	c1.3,0,2.6,0.3,3.8,0.8c1.2,0.6,2.2,1.4,2.9,2.4c0.7,1,1.1,2.3,1.1,3.7c0,1.4-0.3,2.6-1,3.5c-0.7,0.9-1.5,1.7-2.6,2.3
	c-1.1,0.6-2.5,1.2-4.4,2c-1.6,0.6-2.8,2-3.5,4.1H387.5z"/>
<g>
	<path class="st3" d="M196.7,156.9c0-1.4,1.1-2.5,2.5-2.5c1.4,0,2.5,1.1,2.5,2.5c0,1.4-1.1,2.5-2.5,2.5
		C197.9,159.5,196.7,158.3,196.7,156.9z"/>
	<path class="st3" d="M233.5,148.3h-6.3V167h-1.6v-18.7h-6.3v-1.4h14.2V148.3z"/>
	<path class="st3" d="M232.9,159.8c0-4.3,3.4-7.5,7.6-7.5c4.2,0,7.5,3.3,7.5,7.5c0,4.3-3.4,7.5-7.5,7.5
		C236.2,167.3,232.9,164.1,232.9,159.8z M246.5,159.8c0-3.4-2.6-6.1-6.1-6.1c-3.4,0-6.1,2.7-6.1,6.1s2.7,6.1,6.1,6.1
		C243.9,166,246.5,163.3,246.5,159.8z"/>
	<path class="st3" d="M260.5,167l-7.6-7.1v7.1h-1.4v-20.2h1.4v12.3l7.3-6.5h2l-7.7,6.9l8,7.5H260.5z"/>
	<path class="st3" d="M277.5,159.9c0,0.2,0,0.5,0,0.7h-13c0.3,3.3,2.8,5.4,6.1,5.4c2.4,0,4.1-1.1,5-2.6l1.3,0.7
		c-1.2,2-3.4,3.3-6.3,3.3c-4.4,0-7.6-3.2-7.6-7.5c0-4.2,3.1-7.5,7.5-7.5C274.8,152.3,277.5,155.9,277.5,159.9z M264.4,159.2H276
		c-0.3-3.5-2.8-5.5-5.6-5.5C267.1,153.7,264.7,156,264.4,159.2z"/>
	<path class="st3" d="M293,158.1v9h-1.5v-9c0-2.6-1.5-4.4-4.2-4.4c-2.8,0-5,1.8-5,5.7v7.6h-1.4v-14.4h1.4v2.7
		c1.1-2.1,2.9-3.1,5.2-3.1C290.9,152.3,293,154.6,293,158.1z"/>
	<path class="st3" d="M316.1,165.6v1.4h-11v-20.2h1.5v18.7H316.1z"/>
	<path class="st3" d="M332.4,152.6V167h-1.5v-3.3c-1.2,2.2-3.4,3.6-6.2,3.6c-4.1,0-7.5-3.3-7.5-7.5c0-4.3,3.4-7.5,7.5-7.5
		c2.8,0,5,1.4,6.2,3.6v-3.3H332.4z M330.9,159.8c0-3.4-2.6-6.1-6.1-6.1c-3.4,0-6.1,2.7-6.1,6.1s2.7,6.1,6.1,6.1
		C328.3,166,330.9,163.3,330.9,159.8z"/>
	<path class="st3" d="M348.7,152.6V167h-1.4v-2.7c-1.1,2.1-2.9,3.1-5.2,3.1c-3.4,0-5.6-2.3-5.6-5.8v-9h1.5v9c0,2.6,1.5,4.4,4.2,4.4
		c2.8,0,5-1.8,5-5.7v-7.6H348.7z"/>
	<path class="st3" d="M365.3,158.1v9h-1.5v-9c0-2.6-1.5-4.4-4.2-4.4c-2.8,0-5,1.8-5,5.7v7.6h-1.4v-14.4h1.4v2.7
		c1.1-2.1,2.9-3.1,5.2-3.1C363.1,152.3,365.3,154.6,365.3,158.1z"/>
	<path class="st3" d="M368.4,159.8c0-4.3,3.2-7.5,7.6-7.5c2.8,0,5.2,1.4,6.3,3.7l-1.2,0.7c-0.8-1.8-2.8-3-5.1-3
		c-3.5,0-6.1,2.7-6.1,6.1s2.6,6.1,6.1,6.1c2.3,0,4.2-1.2,5.2-3l1.2,0.7c-1.2,2.2-3.6,3.7-6.4,3.7
		C371.6,167.3,368.4,164.1,368.4,159.8z"/>
	<path class="st3" d="M397.7,158.1v9h-1.5v-9c0-2.6-1.5-4.4-4.2-4.4c-2.8,0-5,1.8-5,5.7v7.6h-1.4v-20.2h1.4v8.5
		c1.1-2.1,2.9-3.1,5.2-3.1C395.5,152.3,397.7,154.6,397.7,158.1z"/>
	<path class="st3" d="M196.7,197.7c0-1.4,1.1-2.5,2.5-2.5c1.4,0,2.5,1.1,2.5,2.5c0,1.4-1.1,2.5-2.5,2.5
		C197.9,200.3,196.7,199.1,196.7,197.7z"/>
	<path class="st3" d="M232.2,198.4H227v5.2h-1.4v-5.2h-5.2v-1.4h5.2v-5.2h1.4v5.2h5.2V198.4z"/>
	<path class="st3" d="M241.1,187.7v20.2h-1.5v-18.5l-4.7,1.5l-0.4-1.3l5.3-1.8H241.1z"/>
	<path class="st3" d="M246.7,211.9h-1.3l1.1-6h1.8L246.7,211.9z"/>
	<path class="st3" d="M250.7,197.8c0-6.2,2.7-10.4,7.5-10.4s7.5,4.2,7.5,10.4s-2.7,10.4-7.5,10.4S250.7,204,250.7,197.8z
		 M264.2,197.8c0-5.6-2.2-8.9-6-8.9s-6,3.3-6,8.9s2.2,8.9,6,8.9S264.2,203.4,264.2,197.8z"/>
	<path class="st3" d="M268.8,197.8c0-6.2,2.7-10.4,7.5-10.4c4.8,0,7.5,4.2,7.5,10.4s-2.7,10.4-7.5,10.4
		C271.5,208.1,268.8,204,268.8,197.8z M282.3,197.8c0-5.6-2.2-8.9-6-8.9s-6,3.3-6,8.9s2.2,8.9,6,8.9S282.3,203.4,282.3,197.8z"/>
	<path class="st3" d="M286.9,197.8c0-6.2,2.7-10.4,7.5-10.4c4.8,0,7.5,4.2,7.5,10.4s-2.7,10.4-7.5,10.4
		C289.6,208.1,286.9,204,286.9,197.8z M300.5,197.8c0-5.6-2.2-8.9-6-8.9s-6,3.3-6,8.9s2.2,8.9,6,8.9S300.5,203.4,300.5,197.8z"/>
	<path class="st3" d="M328.5,187.7v20.2H327v-9.6h-11.7v9.6h-1.5v-20.2h1.5v9.1H327v-9.1H328.5z"/>
	<path class="st3" d="M332.3,200.6c0-4.3,3.4-7.5,7.6-7.5c4.2,0,7.5,3.3,7.5,7.5c0,4.3-3.4,7.5-7.5,7.5
		C335.6,208.1,332.3,204.9,332.3,200.6z M345.9,200.6c0-3.4-2.6-6.1-6.1-6.1c-3.4,0-6.1,2.7-6.1,6.1s2.7,6.1,6.1,6.1
		C343.3,206.8,345.9,204.1,345.9,200.6z"/>
	<path class="st3" d="M350.8,186.8h1.4v21h-1.4V186.8z"/>
	<path class="st3" d="M370.9,187.7v20.2h-1.4v-3.3c-1.2,2.2-3.4,3.7-6.2,3.7c-4.1,0-7.5-3.3-7.5-7.5c0-4.3,3.3-7.5,7.5-7.5
		c2.8,0,5,1.4,6.2,3.7v-9.1H370.9z M369.4,200.6c0-3.4-2.7-6.1-6.1-6.1c-3.4,0-6.1,2.7-6.1,6.1s2.7,6.1,6.1,6.1
		C366.7,206.8,369.4,204.1,369.4,200.6z"/>
	<path class="st3" d="M388.9,200.7c0,0.2,0,0.5,0,0.7h-13c0.3,3.3,2.8,5.4,6.1,5.4c2.4,0,4.1-1.1,5-2.6l1.3,0.7
		c-1.2,2-3.4,3.3-6.3,3.3c-4.4,0-7.6-3.2-7.6-7.5c0-4.2,3.1-7.5,7.5-7.5C386.2,193.1,388.9,196.7,388.9,200.7z M375.8,200h11.6
		c-0.3-3.5-2.8-5.5-5.6-5.5C378.5,194.5,376.1,196.8,375.8,200z"/>
	<path class="st3" d="M398.5,193.2v1.4c-2.5,0-4.8,1.5-4.8,5.2v8h-1.4v-14.4h1.4v2.8C394.7,194,396.5,193.2,398.5,193.2z"/>
	<path class="st3" d="M410.5,204.1c0,2.4-2.1,4.1-5.2,4.1c-2.9,0-4.8-1.4-5.5-3.2l1.2-0.7c0.5,1.6,2.1,2.5,4.2,2.5
		c2,0,3.7-0.9,3.7-2.7c0-3.9-8.7-1.7-8.7-6.9c0-2.3,2-4.1,4.9-4.1c2.3,0,4.1,1.1,4.9,2.9l-1.2,0.7c-0.6-1.5-2.1-2.2-3.7-2.2
		c-1.9,0-3.5,1-3.5,2.7C401.8,201.1,410.5,198.8,410.5,204.1z"/>
	<path class="st3" d="M196.7,238.5c0-1.4,1.1-2.5,2.5-2.5c1.4,0,2.5,1.1,2.5,2.5c0,1.4-1.1,2.5-2.5,2.5
		C197.9,241.1,196.7,239.9,196.7,238.5z"/>
	<path class="st3" d="M220,238.6c0-5.8,4.3-10.4,10.5-10.4c3.7,0,7,1.9,8.6,4.8l-1.4,0.8c-1.3-2.5-4.1-4.1-7.3-4.1c-5.3,0-9,4-9,8.9
		s3.7,8.9,9,8.9c3.2,0,6-1.7,7.3-4.2l1.4,0.8c-1.6,3-4.9,4.9-8.7,4.9C224.4,248.9,220,244.3,220,238.6z"/>
	<path class="st3" d="M261,248.6h-1.5v-17.9l-7.5,12.4h-0.3l-7.5-12.4v17.9h-1.5v-20.2h1.9l7.2,11.9l7.2-11.9h1.9V248.6z"/>
	<path class="st3" d="M264.9,238.6c0-5.8,4.3-10.4,10.5-10.4c3.7,0,7,1.9,8.6,4.8l-1.4,0.8c-1.3-2.5-4.1-4.1-7.3-4.1
		c-5.3,0-9,4-9,8.9s3.7,8.9,9,8.9c3.2,0,6-1.7,7.3-4.2l1.4,0.8c-1.6,3-4.9,4.9-8.7,4.9C269.2,248.9,264.9,244.3,264.9,238.6z"/>
	<path class="st3" d="M294.1,251.5l11.5-25.9h1.2l-11.5,25.9H294.1z"/>
	<path class="st3" d="M317.1,238.6c0-5.8,4.3-10.4,10.5-10.4c3.7,0,7,1.9,8.6,4.8l-1.4,0.8c-1.3-2.5-4.1-4.1-7.3-4.1
		c-5.3,0-9,4-9,8.9s3.7,8.9,9,8.9c3.2,0,6-1.7,7.3-4.2l1.4,0.8c-1.6,3-4.9,4.9-8.7,4.9C321.4,248.9,317.1,244.3,317.1,238.6z"/>
	<path class="st3" d="M359,240c0,4.9-3.7,8.9-9.7,8.9c-6.2,0-10.6-4.6-10.6-10.4s4.3-10.4,10.5-10.4c3.7,0,7,2,8.7,4.9l-1.4,0.8
		c-1.3-2.5-4.1-4.2-7.3-4.2c-5.3,0-9,4-9,8.9s3.7,8.9,9.1,8.9c4.9,0,7.9-3,8.2-6.8h-8.6v-1.4H359V240z"/>
	<path class="st3" d="M381.6,247.2v1.4h-11v-20.2h1.5v18.7H381.6z"/>
	<path class="st3" d="M383.8,230.8c0-0.7,0.6-1.4,1.4-1.4c0.7,0,1.3,0.6,1.3,1.4c0,0.7-0.6,1.4-1.3,1.4
		C384.4,232.1,383.8,231.5,383.8,230.8z M384.5,234.2h1.4v14.4h-1.4V234.2z"/>
	<path class="st3" d="M400,244.9c0,2.4-2.1,4.1-5.2,4.1c-2.9,0-4.8-1.4-5.5-3.2l1.2-0.7c0.5,1.6,2.1,2.5,4.2,2.5
		c2,0,3.7-0.9,3.7-2.7c0-3.9-8.7-1.7-8.7-6.9c0-2.3,2-4.1,4.9-4.1c2.3,0,4.1,1.1,4.9,2.9l-1.2,0.7c-0.6-1.5-2.1-2.2-3.7-2.2
		c-1.9,0-3.5,1-3.5,2.7C391.3,241.9,400,239.6,400,244.9z"/>
	<path class="st3" d="M406,235.6v9.4c0,2.5,1.4,2.6,4.3,2.3v1.3c-3.8,0.6-5.8-0.3-5.8-3.6v-9.4h-3.2v-1.4h3.2v-3.6l1.5-0.4v4h4.3
		v1.4H406z"/>
	<path class="st3" d="M413.1,230.8c0-0.7,0.6-1.4,1.4-1.4c0.7,0,1.3,0.6,1.3,1.4c0,0.7-0.6,1.4-1.3,1.4
		C413.7,232.1,413.1,231.5,413.1,230.8z M413.8,234.2h1.4v14.4h-1.4V234.2z"/>
	<path class="st3" d="M431.8,239.7v9h-1.5v-9c0-2.6-1.5-4.4-4.2-4.4c-2.8,0-5,1.8-5,5.7v7.6h-1.4v-14.4h1.4v2.7
		c1.1-2.1,2.9-3.1,5.2-3.1C429.7,233.9,431.8,236.2,431.8,239.7z"/>
	<path class="st3" d="M450.1,234.2v13.7c0,4.3-3.2,6.8-7.2,6.8c-3.4,0-5.8-1.4-6.8-3.5l1.3-0.7c0.7,1.5,2.4,2.8,5.5,2.8
		c3.6,0,5.7-2.1,5.7-5.4v-2.6c-1.2,2.2-3.4,3.7-6.2,3.7c-4.1,0-7.5-3.3-7.5-7.5c0-4.3,3.3-7.5,7.5-7.5c2.8,0,5,1.4,6.2,3.7v-3.3
		H450.1z M448.7,241.4c0-3.4-2.7-6.1-6.1-6.1c-3.4,0-6.1,2.7-6.1,6.1s2.7,6.1,6.1,6.1C446,247.6,448.7,244.9,448.7,241.4z"/>
	<path class="st3" d="M464.3,244.9c0,2.4-2.1,4.1-5.2,4.1c-2.9,0-4.8-1.4-5.5-3.2l1.2-0.7c0.5,1.6,2.1,2.5,4.2,2.5
		c2,0,3.7-0.9,3.7-2.7c0-3.9-8.7-1.7-8.7-6.9c0-2.3,2-4.1,4.9-4.1c2.3,0,4.1,1.1,4.9,2.9l-1.2,0.7c-0.6-1.5-2.1-2.2-3.7-2.2
		c-1.9,0-3.5,1-3.5,2.7C455.5,241.9,464.3,239.6,464.3,244.9z"/>
	<path class="st3" d="M196.7,279.3c0-1.4,1.1-2.5,2.5-2.5c1.4,0,2.5,1.1,2.5,2.5c0,1.4-1.1,2.5-2.5,2.5
		C197.9,281.9,196.7,280.7,196.7,279.3z"/>
	<path class="st3" d="M227.7,289.7v2.6h-1.4v-2.6c-3.2-0.1-5.5-1.6-6.4-4.1l1.3-0.7c0.7,2,2.4,3.2,5.1,3.4v-8.6
		c-2.9-1-5.5-2.1-5.5-5.5c0-3,2.4-5,5.5-5.2v-2.6h1.4v2.6c2.3,0.3,4.2,1.5,5.1,3.6l-1.3,0.7c-0.7-1.6-2-2.6-3.8-2.9v8.2
		c2.9,1,5.6,2.2,5.6,5.6C233.3,287.3,231,289.4,227.7,289.7z M226.3,278.2v-7.7c-2.4,0.2-3.9,1.7-3.9,3.7
		C222.4,276.5,224,277.3,226.3,278.2z M231.7,284.3c0-2.3-1.7-3.3-4-4.1v8C230.3,287.9,231.7,286.3,231.7,284.3z"/>
	<path class="st3" d="M255.2,289.4h-1.5v-17.9l-7.5,12.4H246l-7.5-12.4v17.9H237v-20.2h1.9l7.2,11.9l7.2-11.9h1.9V289.4z"/>
	<path class="st3" d="M259.1,279.4c0-5.8,4.6-10.4,10.4-10.4s10.4,4.6,10.4,10.4s-4.6,10.4-10.4,10.4S259.1,285.1,259.1,279.4z
		 M278.4,279.4c0-5-3.9-8.9-8.9-8.9s-8.9,4-8.9,8.9s3.9,8.9,8.9,8.9S278.4,284.3,278.4,279.4z"/>
	<path class="st3" d="M291.6,281.2h-6.4v8.3h-1.5v-20.2h7.9c3.3,0,6,2.7,6,6c0,2.7-1.9,5-4.4,5.7l5,8.5h-1.8L291.6,281.2z
		 M285.3,279.7h6.4c2.4,0,4.4-2,4.4-4.5c0-2.5-2-4.5-4.4-4.5h-6.4V279.7z"/>
	<path class="st3" d="M313.3,270.7H307v18.7h-1.6v-18.7h-6.3v-1.4h14.2V270.7z"/>
	<path class="st3" d="M323.2,281.1v8.3h-1.5v-8.3l-7.3-11.9h1.7l6.4,10.4l6.4-10.4h1.7L323.2,281.1z"/>
	<path class="st3" d="M353.4,270.7H347v18.7h-1.6v-18.7h-6.3v-1.4h14.2V270.7z"/>
	<path class="st3" d="M360.5,274.8v1.4c-2.5,0-4.8,1.5-4.8,5.2v8h-1.4V275h1.4v2.8C356.7,275.6,358.5,274.8,360.5,274.8z"/>
	<path class="st3" d="M376.1,282.3c0,0.2,0,0.5,0,0.7h-13c0.3,3.3,2.8,5.4,6.1,5.4c2.4,0,4.1-1.1,5-2.6l1.3,0.7
		c-1.2,2-3.4,3.3-6.3,3.3c-4.4,0-7.6-3.2-7.6-7.5c0-4.2,3.1-7.5,7.5-7.5C373.4,274.7,376.1,278.3,376.1,282.3z M363.1,281.6h11.6
		c-0.3-3.5-2.8-5.5-5.6-5.5C365.7,276.1,363.3,278.4,363.1,281.6z"/>
	<path class="st3" d="M391.7,280.5v9h-1.5v-9c0-2.6-1.5-4.4-4.2-4.4c-2.8,0-5,1.8-5,5.7v7.6h-1.4V275h1.4v2.7
		c1.1-2.1,2.9-3.1,5.2-3.1C389.5,274.7,391.7,277,391.7,280.5z"/>
	<path class="st3" d="M409.9,269.3v20.2h-1.4v-3.3c-1.2,2.2-3.4,3.7-6.2,3.7c-4.1,0-7.5-3.3-7.5-7.5c0-4.3,3.3-7.5,7.5-7.5
		c2.8,0,5,1.4,6.2,3.7v-9.1H409.9z M408.4,282.2c0-3.4-2.7-6.1-6.1-6.1c-3.4,0-6.1,2.7-6.1,6.1s2.7,6.1,6.1,6.1
		C405.8,288.4,408.4,285.7,408.4,282.2z"/>
	<path class="st3" d="M413.7,271.6c0-0.7,0.6-1.4,1.4-1.4c0.7,0,1.3,0.6,1.3,1.4c0,0.7-0.6,1.4-1.3,1.4
		C414.3,272.9,413.7,272.3,413.7,271.6z M414.3,275h1.4v14.4h-1.4V275z"/>
	<path class="st3" d="M432.4,280.5v9h-1.5v-9c0-2.6-1.5-4.4-4.2-4.4c-2.8,0-5,1.8-5,5.7v7.6h-1.4V275h1.4v2.7
		c1.1-2.1,2.9-3.1,5.2-3.1C430.2,274.7,432.4,277,432.4,280.5z"/>
	<path class="st3" d="M450.7,275v13.7c0,4.3-3.2,6.8-7.2,6.8c-3.4,0-5.8-1.4-6.8-3.5l1.3-0.7c0.7,1.5,2.4,2.8,5.5,2.8
		c3.6,0,5.7-2.1,5.7-5.4v-2.6c-1.2,2.2-3.4,3.7-6.2,3.7c-4.1,0-7.5-3.3-7.5-7.5c0-4.3,3.3-7.5,7.5-7.5c2.8,0,5,1.4,6.2,3.7V275
		H450.7z M449.2,282.2c0-3.4-2.7-6.1-6.1-6.1c-3.4,0-6.1,2.7-6.1,6.1s2.7,6.1,6.1,6.1C446.5,288.4,449.2,285.7,449.2,282.2z"/>
	<path class="st3" d="M219.5,311c0-4.3,3.4-7.5,7.6-7.5c4.2,0,7.5,3.3,7.5,7.5c0,4.3-3.4,7.5-7.5,7.5
		C222.9,318.5,219.5,315.3,219.5,311z M233.2,311c0-3.4-2.6-6.1-6.1-6.1c-3.4,0-6.1,2.7-6.1,6.1s2.7,6.1,6.1,6.1
		C230.5,317.2,233.2,314.5,233.2,311z"/>
	<path class="st3" d="M250.3,309.3v9h-1.5v-9c0-2.6-1.5-4.4-4.2-4.4c-2.8,0-5,1.8-5,5.7v7.6h-1.4v-14.4h1.4v2.7
		c1.1-2.1,2.9-3.1,5.2-3.1C248.1,303.5,250.3,305.8,250.3,309.3z"/>
	<path class="st3" d="M274.7,299.5h-6.3v18.7h-1.6v-18.7h-6.3v-1.4h14.2V299.5z"/>
	<path class="st3" d="M295.1,303.8l-4.5,14.4H289l-4-12.3l-4,12.3h-1.6l-4.5-14.4h1.5l3.8,12.5l4-12.5h1.5l4,12.5l3.8-12.5H295.1z"
		/>
	<path class="st3" d="M297.7,300.4c0-0.7,0.6-1.4,1.4-1.4c0.7,0,1.3,0.6,1.3,1.4c0,0.7-0.6,1.4-1.3,1.4
		C298.3,301.7,297.7,301.1,297.7,300.4z M298.3,303.8h1.4v14.4h-1.4V303.8z"/>
	<path class="st3" d="M307.3,305.2v9.4c0,2.5,1.4,2.6,4.3,2.3v1.3c-3.8,0.6-5.8-0.3-5.8-3.6v-9.4h-3.2v-1.4h3.2v-3.6l1.5-0.4v4h4.3
		v1.4H307.3z"/>
	<path class="st3" d="M317,305.2v9.4c0,2.5,1.4,2.6,4.3,2.3v1.3c-3.8,0.6-5.8-0.3-5.8-3.6v-9.4h-3.2v-1.4h3.2v-3.6l1.5-0.4v4h4.3
		v1.4H317z"/>
	<path class="st3" d="M337.5,311.1c0,0.2,0,0.5,0,0.7h-13c0.3,3.3,2.8,5.4,6.1,5.4c2.4,0,4.1-1.1,5-2.6l1.3,0.7
		c-1.2,2-3.4,3.3-6.3,3.3c-4.4,0-7.6-3.2-7.6-7.5c0-4.2,3.1-7.5,7.5-7.5C334.8,303.5,337.5,307.1,337.5,311.1z M324.4,310.4H336
		c-0.3-3.5-2.8-5.5-5.6-5.5C327.1,304.9,324.7,307.2,324.4,310.4z"/>
	<path class="st3" d="M347.1,303.6v1.4c-2.5,0-4.8,1.5-4.8,5.2v8h-1.4v-14.4h1.4v2.8C343.3,304.4,345.2,303.6,347.1,303.6z"/>
</g>
<g>
	<path class="st3" d="M203.5,578.9c0-1.4,1.1-2.5,2.5-2.5c1.4,0,2.5,1.1,2.5,2.5c0,1.4-1.1,2.5-2.5,2.5
		C204.7,581.5,203.5,580.3,203.5,578.9z"/>
	<path class="st3" d="M246.2,589h-1.5v-17.9l-7.5,12.4h-0.3l-7.5-12.4V589H228v-20.2h1.9l7.2,11.9l7.2-11.9h1.9V589z"/>
	<path class="st3" d="M265,574.6V589h-1.5v-3.3c-1.2,2.2-3.4,3.6-6.2,3.6c-4.1,0-7.5-3.3-7.5-7.5c0-4.3,3.4-7.5,7.5-7.5
		c2.8,0,5,1.4,6.2,3.6v-3.3H265z M263.6,581.8c0-3.4-2.6-6.1-6.1-6.1s-6.1,2.7-6.1,6.1s2.7,6.1,6.1,6.1S263.6,585.3,263.6,581.8z"/>
	<path class="st3" d="M275.7,574.4v1.4c-2.5,0-4.8,1.5-4.8,5.2v8h-1.4v-14.4h1.4v2.8C271.9,575.2,273.8,574.4,275.7,574.4z"/>
	<path class="st3" d="M287.7,589l-7.6-7.1v7.1h-1.4v-20.2h1.4v12.3l7.3-6.5h2l-7.7,6.9l8,7.5H287.7z"/>
	<path class="st3" d="M304.7,581.9c0,0.2,0,0.5,0,0.7h-13c0.3,3.3,2.8,5.4,6.1,5.4c2.4,0,4.1-1.1,5-2.6l1.3,0.7
		c-1.2,2-3.4,3.3-6.3,3.3c-4.4,0-7.6-3.2-7.6-7.5c0-4.2,3.1-7.5,7.5-7.5C302,574.3,304.7,577.9,304.7,581.9z M291.6,581.2h11.6
		c-0.3-3.5-2.8-5.5-5.6-5.5C294.3,575.7,291.9,578,291.6,581.2z"/>
	<path class="st3" d="M310.7,576v9.4c0,2.5,1.4,2.6,4.3,2.3v1.3c-3.8,0.6-5.8-0.3-5.8-3.6V576h-3.2v-1.4h3.2V571l1.5-0.4v4h4.3v1.4
		H310.7z"/>
	<path class="st3" d="M317.8,571.2c0-0.7,0.6-1.4,1.4-1.4c0.7,0,1.3,0.6,1.3,1.4c0,0.7-0.6,1.4-1.3,1.4
		C318.4,572.5,317.8,571.9,317.8,571.2z M318.5,574.6h1.4V589h-1.4V574.6z"/>
	<path class="st3" d="M336.5,580.1v9h-1.5v-9c0-2.6-1.5-4.4-4.2-4.4c-2.8,0-5,1.8-5,5.7v7.6h-1.4v-14.4h1.4v2.7
		c1.1-2.1,2.9-3.1,5.2-3.1C334.4,574.3,336.5,576.6,336.5,580.1z"/>
	<path class="st3" d="M354.8,574.6v13.7c0,4.3-3.2,6.8-7.2,6.8c-3.4,0-5.8-1.4-6.8-3.5l1.3-0.7c0.7,1.5,2.4,2.8,5.5,2.8
		c3.6,0,5.7-2.1,5.7-5.4v-2.6c-1.2,2.2-3.4,3.7-6.2,3.7c-4.1,0-7.5-3.3-7.5-7.5c0-4.3,3.3-7.5,7.5-7.5c2.8,0,5,1.4,6.2,3.7v-3.3
		H354.8z M353.4,581.8c0-3.4-2.7-6.1-6.1-6.1c-3.4,0-6.1,2.7-6.1,6.1s2.7,6.1,6.1,6.1C350.7,588,353.4,585.3,353.4,581.8z"/>
	<path class="st3" d="M380.4,575.1c0,3.5-2.6,6.2-6.3,6.2h-5.3v7.7h-1.5v-20.2h6.9C377.7,568.9,380.4,571.6,380.4,575.1z
		 M378.8,575.1c0-2.8-2-4.8-4.8-4.8h-5.3v9.6h5.3C376.9,579.9,378.8,577.9,378.8,575.1z"/>
	<path class="st3" d="M395.7,574.6V589h-1.4v-2.7c-1.1,2.1-2.9,3.1-5.2,3.1c-3.4,0-5.6-2.3-5.6-5.8v-9h1.5v9c0,2.6,1.5,4.4,4.2,4.4
		c2.8,0,5-1.8,5-5.7v-7.6H395.7z"/>
	<path class="st3" d="M409.8,585.3c0,2.4-2.1,4.1-5.2,4.1c-2.9,0-4.8-1.4-5.5-3.2l1.2-0.7c0.5,1.6,2.1,2.5,4.2,2.5
		c2,0,3.7-0.9,3.7-2.7c0-3.9-8.7-1.7-8.7-6.9c0-2.3,2-4.1,4.9-4.1c2.3,0,4.1,1.1,4.9,2.9l-1.2,0.7c-0.6-1.5-2.1-2.2-3.7-2.2
		c-1.9,0-3.5,1-3.5,2.7C401.1,582.3,409.8,580,409.8,585.3z"/>
	<path class="st3" d="M425.3,580.1v9h-1.5v-9c0-2.6-1.5-4.4-4.2-4.4c-2.8,0-5,1.8-5,5.7v7.6h-1.4v-20.2h1.4v8.5
		c1.1-2.1,2.9-3.1,5.2-3.1C423.2,574.3,425.3,576.6,425.3,580.1z"/>
	<path class="st3" d="M203.5,619.7c0-1.4,1.1-2.5,2.5-2.5c1.4,0,2.5,1.1,2.5,2.5c0,1.4-1.1,2.5-2.5,2.5
		C204.7,622.3,203.5,621.1,203.5,619.7z"/>
	<path class="st3" d="M239,620.4h-5.2v5.2h-1.4v-5.2h-5.2v-1.4h5.2v-5.2h1.4v5.2h5.2V620.4z"/>
	<path class="st3" d="M247.9,609.7v20.2h-1.5v-18.5l-4.7,1.5l-0.4-1.3l5.3-1.8H247.9z"/>
	<path class="st3" d="M251.9,619.8c0-6.2,2.7-10.4,7.5-10.4c4.8,0,7.5,4.2,7.5,10.4s-2.7,10.4-7.5,10.4
		C254.6,630.1,251.9,626,251.9,619.8z M265.4,619.8c0-5.6-2.2-8.9-6-8.9s-6,3.3-6,8.9s2.2,8.9,6,8.9S265.4,625.4,265.4,619.8z"/>
	<path class="st3" d="M270.8,633.9h-1.3l1.1-6h1.8L270.8,633.9z"/>
	<path class="st3" d="M274.7,619.8c0-6.2,2.7-10.4,7.5-10.4c4.8,0,7.5,4.2,7.5,10.4s-2.7,10.4-7.5,10.4
		C277.4,630.1,274.7,626,274.7,619.8z M288.3,619.8c0-5.6-2.2-8.9-6-8.9s-6,3.3-6,8.9s2.2,8.9,6,8.9S288.3,625.4,288.3,619.8z"/>
	<path class="st3" d="M292.9,619.8c0-6.2,2.7-10.4,7.5-10.4s7.5,4.2,7.5,10.4s-2.7,10.4-7.5,10.4S292.9,626,292.9,619.8z
		 M306.4,619.8c0-5.6-2.2-8.9-6-8.9s-6,3.3-6,8.9s2.2,8.9,6,8.9S306.4,625.4,306.4,619.8z"/>
	<path class="st3" d="M311,619.8c0-6.2,2.7-10.4,7.5-10.4c4.8,0,7.5,4.2,7.5,10.4s-2.7,10.4-7.5,10.4C313.7,630.1,311,626,311,619.8
		z M324.5,619.8c0-5.6-2.2-8.9-6-8.9s-6,3.3-6,8.9s2.2,8.9,6,8.9S324.5,625.4,324.5,619.8z"/>
	<path class="st3" d="M352.6,609.7v20.2h-1.5v-9.6h-11.7v9.6h-1.5v-20.2h1.5v9.1h11.7v-9.1H352.6z"/>
	<path class="st3" d="M356.3,622.6c0-4.3,3.4-7.5,7.6-7.5c4.2,0,7.5,3.3,7.5,7.5c0,4.3-3.4,7.5-7.5,7.5
		C359.7,630.1,356.3,626.9,356.3,622.6z M370,622.6c0-3.4-2.6-6.1-6.1-6.1c-3.4,0-6.1,2.7-6.1,6.1s2.7,6.1,6.1,6.1
		C367.3,628.8,370,626.1,370,622.6z"/>
	<path class="st3" d="M374.9,608.8h1.4v21h-1.4V608.8z"/>
	<path class="st3" d="M394.9,609.7v20.2h-1.4v-3.3c-1.2,2.2-3.4,3.7-6.2,3.7c-4.1,0-7.5-3.3-7.5-7.5c0-4.3,3.3-7.5,7.5-7.5
		c2.8,0,5,1.4,6.2,3.7v-9.1H394.9z M393.5,622.6c0-3.4-2.7-6.1-6.1-6.1c-3.4,0-6.1,2.7-6.1,6.1s2.7,6.1,6.1,6.1
		C390.8,628.8,393.5,626.1,393.5,622.6z"/>
	<path class="st3" d="M413,622.7c0,0.2,0,0.5,0,0.7h-13c0.3,3.3,2.8,5.4,6.1,5.4c2.4,0,4.1-1.1,5-2.6l1.3,0.7
		c-1.2,2-3.4,3.3-6.3,3.3c-4.4,0-7.6-3.2-7.6-7.5c0-4.2,3.1-7.5,7.5-7.5C410.2,615.1,413,618.7,413,622.7z M399.9,622h11.6
		c-0.3-3.5-2.8-5.5-5.6-5.5C402.6,616.5,400.2,618.8,399.9,622z"/>
	<path class="st3" d="M422.6,615.2v1.4c-2.5,0-4.8,1.5-4.8,5.2v8h-1.4v-14.4h1.4v2.8C418.8,616,420.6,615.2,422.6,615.2z"/>
	<path class="st3" d="M434.6,626.1c0,2.4-2.1,4.1-5.2,4.1c-2.9,0-4.8-1.4-5.5-3.2l1.2-0.7c0.5,1.6,2.1,2.5,4.2,2.5
		c2,0,3.7-0.9,3.7-2.7c0-3.9-8.7-1.7-8.7-6.9c0-2.3,2-4.1,4.9-4.1c2.3,0,4.1,1.1,4.9,2.9l-1.2,0.7c-0.6-1.5-2.1-2.2-3.7-2.2
		c-1.9,0-3.5,1-3.5,2.7C425.9,623.1,434.6,620.8,434.6,626.1z"/>
	<path class="st3" d="M203.5,660.5c0-1.4,1.1-2.5,2.5-2.5c1.4,0,2.5,1.1,2.5,2.5c0,1.4-1.1,2.5-2.5,2.5
		C204.7,663.1,203.5,661.9,203.5,660.5z"/>
	<path class="st3" d="M226.8,660.6c0-5.8,4.3-10.4,10.5-10.4c3.7,0,7,1.9,8.6,4.8l-1.4,0.8c-1.3-2.5-4.1-4.1-7.3-4.1
		c-5.3,0-9,4-9,8.9s3.7,8.9,9,8.9c3.2,0,6-1.7,7.3-4.2l1.4,0.8c-1.6,3-4.9,4.9-8.7,4.9C231.2,670.9,226.8,666.3,226.8,660.6z"/>
	<path class="st3" d="M261.2,669.2v1.4h-11.6v-20.2H261v1.4h-9.9v7.8h9.2v1.4h-9.2v8H261.2z"/>
	<path class="st3" d="M276.5,670.6l-5.8-9l-5.8,9h-1.8l6.7-10.4l-6.3-9.8h1.8l5.5,8.4l5.4-8.4h1.8l-6.3,9.8l6.7,10.4H276.5z"/>
	<path class="st3" d="M300.2,669.2v1.4h-11v-20.2h1.5v18.7H300.2z"/>
	<path class="st3" d="M302.4,652.8c0-0.7,0.6-1.4,1.4-1.4c0.7,0,1.3,0.6,1.3,1.4c0,0.7-0.6,1.4-1.3,1.4
		C303,654.1,302.4,653.5,302.4,652.8z M303,656.2h1.4v14.4H303V656.2z"/>
	<path class="st3" d="M318.6,666.9c0,2.4-2.1,4.1-5.2,4.1c-2.9,0-4.8-1.4-5.5-3.2l1.2-0.7c0.5,1.6,2.1,2.5,4.2,2.5
		c2,0,3.7-0.9,3.7-2.7c0-3.9-8.7-1.7-8.7-6.9c0-2.3,2-4.1,4.9-4.1c2.3,0,4.1,1.1,4.9,2.9l-1.2,0.7c-0.6-1.5-2.1-2.2-3.7-2.2
		c-1.9,0-3.5,1-3.5,2.7C309.9,663.9,318.6,661.6,318.6,666.9z"/>
	<path class="st3" d="M324.6,657.6v9.4c0,2.5,1.4,2.6,4.3,2.3v1.3c-3.8,0.6-5.8-0.3-5.8-3.6v-9.4H320v-1.4h3.2v-3.6l1.5-0.4v4h4.3
		v1.4H324.6z"/>
	<path class="st3" d="M331.7,652.8c0-0.7,0.6-1.4,1.4-1.4c0.7,0,1.3,0.6,1.3,1.4c0,0.7-0.6,1.4-1.3,1.4
		C332.3,654.1,331.7,653.5,331.7,652.8z M332.4,656.2h1.4v14.4h-1.4V656.2z"/>
	<path class="st3" d="M350.4,661.7v9h-1.5v-9c0-2.6-1.5-4.4-4.2-4.4c-2.8,0-5,1.8-5,5.7v7.6h-1.4v-14.4h1.4v2.7
		c1.1-2.1,2.9-3.1,5.2-3.1C348.3,655.9,350.4,658.2,350.4,661.7z"/>
	<path class="st3" d="M368.7,656.2v13.7c0,4.3-3.2,6.8-7.2,6.8c-3.4,0-5.8-1.4-6.8-3.5l1.3-0.7c0.7,1.5,2.4,2.8,5.5,2.8
		c3.6,0,5.7-2.1,5.7-5.4v-2.6c-1.2,2.2-3.4,3.7-6.2,3.7c-4.1,0-7.5-3.3-7.5-7.5c0-4.3,3.3-7.5,7.5-7.5c2.8,0,5,1.4,6.2,3.7v-3.3
		H368.7z M367.3,663.4c0-3.4-2.7-6.1-6.1-6.1c-3.4,0-6.1,2.7-6.1,6.1s2.7,6.1,6.1,6.1C364.6,669.6,367.3,666.9,367.3,663.4z"/>
	<path class="st3" d="M382.8,666.9c0,2.4-2.1,4.1-5.2,4.1c-2.9,0-4.8-1.4-5.5-3.2l1.2-0.7c0.5,1.6,2.1,2.5,4.2,2.5
		c2,0,3.7-0.9,3.7-2.7c0-3.9-8.7-1.7-8.7-6.9c0-2.3,2-4.1,4.9-4.1c2.3,0,4.1,1.1,4.9,2.9l-1.2,0.7c-0.6-1.5-2.1-2.2-3.7-2.2
		c-1.9,0-3.5,1-3.5,2.7C374.1,663.9,382.8,661.6,382.8,666.9z"/>
	<path class="st3" d="M203.5,701.3c0-1.4,1.1-2.5,2.5-2.5c1.4,0,2.5,1.1,2.5,2.5c0,1.4-1.1,2.5-2.5,2.5
		C204.7,703.9,203.5,702.7,203.5,701.3z"/>
	<path class="st3" d="M234.5,711.7v2.6h-1.4v-2.6c-3.2-0.1-5.5-1.6-6.4-4.1l1.3-0.7c0.7,2,2.4,3.2,5.1,3.4v-8.6
		c-2.9-1-5.5-2.1-5.5-5.5c0-3,2.4-5,5.5-5.2v-2.6h1.4v2.6c2.3,0.3,4.2,1.5,5.1,3.6l-1.3,0.7c-0.7-1.6-2-2.6-3.8-2.9v8.2
		c2.9,1,5.6,2.2,5.6,5.6C240.1,709.3,237.7,711.4,234.5,711.7z M233.1,700.2v-7.7c-2.4,0.2-3.9,1.7-3.9,3.7
		C229.2,698.5,230.8,699.3,233.1,700.2z M238.5,706.3c0-2.3-1.7-3.3-4-4.1v8C237.1,709.9,238.5,708.3,238.5,706.3z"/>
	<path class="st3" d="M262,711.4h-1.5v-17.9l-7.5,12.4h-0.3l-7.5-12.4v17.9h-1.5v-20.2h1.9l7.2,11.9l7.2-11.9h1.9V711.4z"/>
	<path class="st3" d="M265.9,701.4c0-5.8,4.6-10.4,10.4-10.4s10.4,4.6,10.4,10.4s-4.6,10.4-10.4,10.4S265.9,707.1,265.9,701.4z
		 M285.2,701.4c0-5-3.9-8.9-8.9-8.9s-8.9,4-8.9,8.9s3.9,8.9,8.9,8.9S285.2,706.3,285.2,701.4z"/>
	<path class="st3" d="M298.4,703.2h-6.4v8.3h-1.5v-20.2h7.9c3.3,0,6,2.7,6,6c0,2.7-1.9,5-4.4,5.7l5,8.5h-1.8L298.4,703.2z
		 M292.1,701.7h6.4c2.4,0,4.4-2,4.4-4.5c0-2.5-2-4.5-4.4-4.5h-6.4V701.7z"/>
	<path class="st3" d="M320.1,692.7h-6.3v18.7h-1.6v-18.7h-6.3v-1.4h14.2V692.7z"/>
	<path class="st3" d="M330,703.1v8.3h-1.5v-8.3l-7.3-11.9h1.7l6.4,10.4l6.4-10.4h1.7L330,703.1z"/>
	<path class="st3" d="M360.2,692.7h-6.3v18.7h-1.6v-18.7H346v-1.4h14.2V692.7z"/>
	<path class="st3" d="M367.3,696.8v1.4c-2.5,0-4.8,1.5-4.8,5.2v8H361V697h1.4v2.8C363.5,697.6,365.3,696.8,367.3,696.8z"/>
	<path class="st3" d="M382.9,704.3c0,0.2,0,0.5,0,0.7h-13c0.3,3.3,2.8,5.4,6.1,5.4c2.4,0,4.1-1.1,5-2.6l1.3,0.7
		c-1.2,2-3.4,3.3-6.3,3.3c-4.4,0-7.6-3.2-7.6-7.5c0-4.2,3.1-7.5,7.5-7.5C380.2,696.7,382.9,700.3,382.9,704.3z M369.9,703.6h11.6
		c-0.3-3.5-2.8-5.5-5.6-5.5C372.5,698.1,370.1,700.4,369.9,703.6z"/>
	<path class="st3" d="M398.5,702.5v9H397v-9c0-2.6-1.5-4.4-4.2-4.4c-2.8,0-5,1.8-5,5.7v7.6h-1.4V697h1.4v2.7
		c1.1-2.1,2.9-3.1,5.2-3.1C396.3,696.7,398.5,699,398.5,702.5z"/>
	<path class="st3" d="M416.7,691.3v20.2h-1.4v-3.3c-1.2,2.2-3.4,3.7-6.2,3.7c-4.1,0-7.5-3.3-7.5-7.5c0-4.3,3.3-7.5,7.5-7.5
		c2.8,0,5,1.4,6.2,3.7v-9.1H416.7z M415.2,704.2c0-3.4-2.7-6.1-6.1-6.1c-3.4,0-6.1,2.7-6.1,6.1s2.7,6.1,6.1,6.1
		C412.6,710.4,415.2,707.7,415.2,704.2z"/>
	<path class="st3" d="M420.5,693.6c0-0.7,0.6-1.4,1.4-1.4c0.7,0,1.3,0.6,1.3,1.4c0,0.7-0.6,1.4-1.3,1.4
		C421.1,694.9,420.5,694.3,420.5,693.6z M421.1,697h1.4v14.4h-1.4V697z"/>
	<path class="st3" d="M439.2,702.5v9h-1.5v-9c0-2.6-1.5-4.4-4.2-4.4c-2.8,0-5,1.8-5,5.7v7.6H427V697h1.4v2.7
		c1.1-2.1,2.9-3.1,5.2-3.1C437,696.7,439.2,699,439.2,702.5z"/>
	<path class="st3" d="M457.5,697v13.7c0,4.3-3.2,6.8-7.2,6.8c-3.4,0-5.8-1.4-6.8-3.5l1.3-0.7c0.7,1.5,2.4,2.8,5.5,2.8
		c3.6,0,5.7-2.1,5.7-5.4v-2.6c-1.2,2.2-3.4,3.7-6.2,3.7c-4.1,0-7.5-3.3-7.5-7.5c0-4.3,3.3-7.5,7.5-7.5c2.8,0,5,1.4,6.2,3.7V697
		H457.5z M456,704.2c0-3.4-2.7-6.1-6.1-6.1c-3.4,0-6.1,2.7-6.1,6.1s2.7,6.1,6.1,6.1C453.3,710.4,456,707.7,456,704.2z"/>
	<path class="st3" d="M226.3,733c0-4.3,3.4-7.5,7.6-7.5c4.2,0,7.5,3.3,7.5,7.5c0,4.3-3.4,7.5-7.5,7.5
		C229.7,740.5,226.3,737.3,226.3,733z M240,733c0-3.4-2.6-6.1-6.1-6.1c-3.4,0-6.1,2.7-6.1,6.1c0,3.4,2.7,6.1,6.1,6.1
		C237.3,739.2,240,736.5,240,733z"/>
	<path class="st3" d="M257.1,731.3v9h-1.5v-9c0-2.6-1.5-4.4-4.2-4.4c-2.8,0-5,1.8-5,5.7v7.6h-1.4v-14.4h1.4v2.7
		c1.1-2.1,2.9-3.1,5.2-3.1C254.9,725.5,257.1,727.8,257.1,731.3z"/>
	<path class="st3" d="M286.2,730.2c0,5.6-3.9,10.1-9.5,10.1h-7.6v-20.2h7.6C282.2,720.1,286.2,724.6,286.2,730.2z M284.7,730.2
		c0-4.8-3.3-8.6-8-8.6h-6v17.3h6C281.4,738.8,284.7,734.9,284.7,730.2z"/>
	<path class="st3" d="M303.4,733.1c0,0.2,0,0.5,0,0.7h-13c0.3,3.3,2.8,5.4,6.1,5.4c2.4,0,4.1-1.1,5-2.6l1.3,0.7
		c-1.2,2-3.4,3.3-6.3,3.3c-4.4,0-7.6-3.2-7.6-7.5c0-4.2,3.1-7.5,7.5-7.5C300.6,725.5,303.4,729.1,303.4,733.1z M290.3,732.4h11.6
		c-0.3-3.5-2.8-5.5-5.6-5.5C293,726.9,290.6,729.2,290.3,732.4z"/>
	<path class="st3" d="M316.1,740.2l-4.9-6.3l-4.9,6.3h-1.8l5.8-7.4l-5.4-7h1.8l4.5,5.8l4.5-5.8h1.7l-5.4,7l5.7,7.4H316.1z"/>
	<path class="st3" d="M323.8,727.2v9.4c0,2.5,1.4,2.6,4.3,2.3v1.3c-3.8,0.6-5.8-0.3-5.8-3.6v-9.4h-3.2v-1.4h3.2v-3.6l1.5-0.4v4h4.3
		v1.4H323.8z"/>
	<path class="st3" d="M329.7,733c0-4.3,3.4-7.5,7.6-7.5c4.2,0,7.5,3.3,7.5,7.5c0,4.3-3.4,7.5-7.5,7.5
		C333.1,740.5,329.7,737.3,329.7,733z M343.4,733c0-3.4-2.6-6.1-6.1-6.1c-3.4,0-6.1,2.7-6.1,6.1c0,3.4,2.7,6.1,6.1,6.1
		C340.7,739.2,343.4,736.5,343.4,733z"/>
	<path class="st3" d="M347.3,733c0-4.3,3.4-7.5,7.6-7.5c4.2,0,7.5,3.3,7.5,7.5c0,4.3-3.4,7.5-7.5,7.5
		C350.7,740.5,347.3,737.3,347.3,733z M361,733c0-3.4-2.6-6.1-6.1-6.1c-3.4,0-6.1,2.7-6.1,6.1c0,3.4,2.7,6.1,6.1,6.1
		C358.3,739.2,361,736.5,361,733z"/>
	<path class="st3" d="M365.9,719.2h1.4v21h-1.4V719.2z"/>
	<path class="st3" d="M381.5,736.5c0,2.4-2.1,4.1-5.2,4.1c-2.9,0-4.8-1.4-5.5-3.2l1.2-0.7c0.5,1.6,2.1,2.5,4.2,2.5
		c2,0,3.7-0.9,3.7-2.7c0-3.9-8.7-1.7-8.7-6.9c0-2.3,2-4.1,4.9-4.1c2.3,0,4.1,1.1,4.9,2.9l-1.2,0.7c-0.6-1.5-2.1-2.2-3.7-2.2
		c-1.9,0-3.5,1-3.5,2.7C372.8,733.5,381.5,731.2,381.5,736.5z"/>
</g>
<g>
	<path class="st3" d="M185.2,992.2c0-1.4,1.1-2.5,2.5-2.5c1.4,0,2.5,1.1,2.5,2.5c0,1.4-1.1,2.5-2.5,2.5
		C186.4,994.7,185.2,993.6,185.2,992.2z"/>
	<path class="st3" d="M222.8,988.4c0,3.5-2.6,6.2-6.3,6.2h-5.3v7.7h-1.5v-20.2h6.9C220.1,982.1,222.8,984.8,222.8,988.4z
		 M221.3,988.4c0-2.8-2-4.8-4.8-4.8h-5.3v9.6h5.3C219.3,993.2,221.3,991.2,221.3,988.4z"/>
	<path class="st3" d="M239.3,987.9v14.4h-1.5V999c-1.2,2.2-3.4,3.6-6.2,3.6c-4.1,0-7.5-3.3-7.5-7.5s3.4-7.5,7.5-7.5
		c2.8,0,5,1.4,6.2,3.6v-3.3H239.3z M237.8,995.1c0-3.4-2.6-6.1-6.1-6.1c-3.4,0-6.1,2.7-6.1,6.1s2.7,6.1,6.1,6.1
		C235.1,1001.2,237.8,998.5,237.8,995.1z"/>
	<path class="st3" d="M249.9,987.7v1.4c-2.5,0-4.8,1.5-4.8,5.2v8h-1.4v-14.4h1.4v2.8C246.1,988.5,248,987.7,249.9,987.7z"/>
	<path class="st3" d="M256.1,989.3v9.4c0,2.5,1.4,2.6,4.3,2.3v1.3c-3.8,0.6-5.8-0.3-5.8-3.6v-9.4h-3.2v-1.4h3.2v-3.6l1.5-0.4v4h4.3
		v1.4H256.1z"/>
	<path class="st3" d="M276.1,993.3v9h-1.5v-9c0-2.6-1.5-4.4-4.2-4.4c-2.8,0-5,1.8-5,5.7v7.6h-1.4v-14.4h1.4v2.7
		c1.1-2.1,2.9-3.1,5.2-3.1C273.9,987.6,276.1,989.9,276.1,993.3z"/>
	<path class="st3" d="M293.7,995.2c0,0.2,0,0.5,0,0.7h-13c0.3,3.3,2.8,5.4,6.1,5.4c2.4,0,4.1-1.1,5-2.6l1.3,0.7
		c-1.2,2-3.4,3.3-6.3,3.3c-4.4,0-7.6-3.2-7.6-7.5c0-4.2,3.1-7.5,7.5-7.5C291,987.6,293.7,991.2,293.7,995.2z M280.6,994.4h11.6
		c-0.3-3.5-2.8-5.5-5.6-5.5C283.3,989,280.9,991.2,280.6,994.4z"/>
	<path class="st3" d="M303.3,987.7v1.4c-2.5,0-4.8,1.5-4.8,5.2v8h-1.4v-14.4h1.4v2.8C299.5,988.5,301.4,987.7,303.3,987.7z"/>
	<path class="st3" d="M315.4,998.5c0,2.4-2.1,4.1-5.2,4.1c-2.9,0-4.8-1.4-5.5-3.2l1.2-0.7c0.5,1.6,2.1,2.5,4.2,2.5
		c2,0,3.7-0.9,3.7-2.7c0-3.9-8.7-1.7-8.7-6.9c0-2.3,2-4.1,4.9-4.1c2.3,0,4.1,1.1,4.9,2.9l-1.2,0.7c-0.6-1.5-2.1-2.2-3.7-2.2
		c-1.9,0-3.5,1-3.5,2.7C306.7,995.5,315.4,993.3,315.4,998.5z"/>
	<path class="st3" d="M330.9,993.3v9h-1.5v-9c0-2.6-1.5-4.4-4.2-4.4c-2.8,0-5,1.8-5,5.7v7.6h-1.4v-20.2h1.4v8.5
		c1.1-2.1,2.9-3.1,5.2-3.1C328.7,987.6,330.9,989.9,330.9,993.3z"/>
	<path class="st3" d="M334.3,984.4c0-0.7,0.6-1.4,1.4-1.4c0.7,0,1.3,0.6,1.3,1.4c0,0.7-0.6,1.4-1.3,1.4
		C334.9,985.8,334.3,985.2,334.3,984.4z M335,987.9h1.4v14.4H335V987.9z"/>
	<path class="st3" d="M355.9,995.1c0,4.3-3.3,7.5-7.5,7.5c-2.8,0-5-1.4-6.2-3.7v9.1h-1.4v-20.2h1.4v3.3c1.2-2.2,3.4-3.7,6.2-3.7
		C352.6,987.6,355.9,990.8,355.9,995.1z M354.5,995.1c0-3.4-2.7-6.1-6.1-6.1c-3.4,0-6.1,2.7-6.1,6.1s2.7,6.1,6.1,6.1
		C351.8,1001.2,354.5,998.5,354.5,995.1z"/>
	<path class="st3" d="M368.8,998.5c0,2.4-2.1,4.1-5.2,4.1c-2.9,0-4.8-1.4-5.5-3.2l1.2-0.7c0.5,1.6,2.1,2.5,4.2,2.5
		c2,0,3.7-0.9,3.7-2.7c0-3.9-8.7-1.7-8.7-6.9c0-2.3,2-4.1,4.9-4.1c2.3,0,4.1,1.1,4.9,2.9l-1.2,0.7c-0.6-1.5-2.1-2.2-3.7-2.2
		c-1.9,0-3.5,1-3.5,2.7C360.1,995.5,368.8,993.3,368.8,998.5z"/>
	<path class="st3" d="M185.2,1033c0-1.4,1.1-2.5,2.5-2.5c1.4,0,2.5,1.1,2.5,2.5c0,1.4-1.1,2.5-2.5,2.5
		C186.4,1035.5,185.2,1034.4,185.2,1033z"/>
	<path class="st3" d="M220.7,1033.7h-5.2v5.2h-1.4v-5.2H209v-1.4h5.2v-5.2h1.4v5.2h5.2V1033.7z"/>
	<path class="st3" d="M236.9,1037.3c0,3.9-3.1,6.1-6.7,6.1c-2.9,0-5.4-1.4-6.4-4.1l1.3-0.7c0.7,2.2,2.6,3.3,5.1,3.3
		c3,0,5.2-1.8,5.2-4.7s-2.2-4.7-5.2-4.7h-5.4l0.7-9.7h10.7v1.4h-9.3l-0.5,6.8h3.8C233.8,1031.2,236.9,1033.4,236.9,1037.3z"/>
	<path class="st3" d="M239.3,1033c0-6.2,2.7-10.4,7.5-10.4s7.5,4.2,7.5,10.4c0,6.2-2.7,10.4-7.5,10.4S239.3,1039.2,239.3,1033z
		 M252.9,1033c0-5.6-2.2-8.9-6-8.9s-6,3.3-6,8.9c0,5.6,2.2,8.9,6,8.9S252.9,1038.7,252.9,1033z"/>
	<path class="st3" d="M258.2,1047.1h-1.3l1.1-6h1.8L258.2,1047.1z"/>
	<path class="st3" d="M262.2,1033c0-6.2,2.7-10.4,7.5-10.4c4.8,0,7.5,4.2,7.5,10.4c0,6.2-2.7,10.4-7.5,10.4
		C264.9,1043.4,262.2,1039.2,262.2,1033z M275.7,1033c0-5.6-2.2-8.9-6-8.9s-6,3.3-6,8.9c0,5.6,2.2,8.9,6,8.9
		S275.7,1038.7,275.7,1033z"/>
	<path class="st3" d="M280.3,1033c0-6.2,2.7-10.4,7.5-10.4c4.8,0,7.5,4.2,7.5,10.4c0,6.2-2.7,10.4-7.5,10.4
		C283,1043.4,280.3,1039.2,280.3,1033z M293.8,1033c0-5.6-2.2-8.9-6-8.9s-6,3.3-6,8.9c0,5.6,2.2,8.9,6,8.9S293.8,1038.7,293.8,1033z
		"/>
	<path class="st3" d="M298.4,1033c0-6.2,2.7-10.4,7.5-10.4c4.8,0,7.5,4.2,7.5,10.4c0,6.2-2.7,10.4-7.5,10.4
		C301.2,1043.4,298.4,1039.2,298.4,1033z M312,1033c0-5.6-2.2-8.9-6-8.9s-6,3.3-6,8.9c0,5.6,2.2,8.9,6,8.9S312,1038.7,312,1033z"/>
	<path class="st3" d="M340,1022.9v20.2h-1.5v-9.6h-11.7v9.6h-1.5v-20.2h1.5v9.1h11.7v-9.1H340z"/>
	<path class="st3" d="M343.8,1035.9c0-4.3,3.4-7.5,7.6-7.5c4.2,0,7.5,3.3,7.5,7.5s-3.4,7.5-7.5,7.5
		C347.1,1043.4,343.8,1040.2,343.8,1035.9z M357.4,1035.9c0-3.4-2.6-6.1-6.1-6.1c-3.4,0-6.1,2.7-6.1,6.1s2.7,6.1,6.1,6.1
		C354.8,1042,357.4,1039.3,357.4,1035.9z"/>
	<path class="st3" d="M362.4,1022.1h1.4v21h-1.4V1022.1z"/>
	<path class="st3" d="M382.4,1022.9v20.2h-1.4v-3.3c-1.2,2.2-3.4,3.7-6.2,3.7c-4.1,0-7.5-3.3-7.5-7.5s3.3-7.5,7.5-7.5
		c2.8,0,5,1.4,6.2,3.7v-9.1H382.4z M380.9,1035.9c0-3.4-2.7-6.1-6.1-6.1c-3.4,0-6.1,2.7-6.1,6.1s2.7,6.1,6.1,6.1
		C378.2,1042,380.9,1039.3,380.9,1035.9z"/>
	<path class="st3" d="M400.4,1036c0,0.2,0,0.5,0,0.7h-13c0.3,3.3,2.8,5.4,6.1,5.4c2.4,0,4.1-1.1,5-2.6l1.3,0.7
		c-1.2,2-3.4,3.3-6.3,3.3c-4.4,0-7.6-3.2-7.6-7.5c0-4.2,3.1-7.5,7.5-7.5C397.7,1028.4,400.4,1032,400.4,1036z M387.3,1035.2h11.6
		c-0.3-3.5-2.8-5.5-5.6-5.5C390,1029.8,387.6,1032,387.3,1035.2z"/>
	<path class="st3" d="M410,1028.5v1.4c-2.5,0-4.8,1.5-4.8,5.2v8h-1.4v-14.4h1.4v2.8C406.2,1029.3,408.1,1028.5,410,1028.5z"/>
	<path class="st3" d="M422.1,1039.3c0,2.4-2.1,4.1-5.2,4.1c-2.9,0-4.8-1.4-5.5-3.2l1.2-0.7c0.5,1.6,2.1,2.5,4.2,2.5
		c2,0,3.7-0.9,3.7-2.7c0-3.9-8.7-1.7-8.7-6.9c0-2.3,2-4.1,4.9-4.1c2.3,0,4.1,1.1,4.9,2.9l-1.2,0.7c-0.6-1.5-2.1-2.2-3.7-2.2
		c-1.9,0-3.5,1-3.5,2.7C413.3,1036.3,422.1,1034.1,422.1,1039.3z"/>
	<path class="st3" d="M185.2,1073.8c0-1.4,1.1-2.5,2.5-2.5c1.4,0,2.5,1.1,2.5,2.5c0,1.4-1.1,2.5-2.5,2.5
		C186.4,1076.3,185.2,1075.2,185.2,1073.8z"/>
	<path class="st3" d="M222,1065.2h-6.3v18.7h-1.6v-18.7h-6.3v-1.4H222V1065.2z"/>
	<path class="st3" d="M229.8,1063.7v20.2h-1.5v-18.5l-4.7,1.5l-0.4-1.3l5.3-1.8H229.8z"/>
	<path class="st3" d="M254.1,1082.5v1.4h-11.6v-20.2h11.5v1.4H244v7.8h9.2v1.4H244v8H254.1z"/>
	<path class="st3" d="M267.5,1083.9l-4.9-6.3l-4.9,6.3H256l5.8-7.4l-5.4-7h1.8l4.5,5.8l4.5-5.8h1.7l-5.4,7l5.7,7.4H267.5z"/>
	<path class="st3" d="M270.3,1076.7c0-4.3,3.2-7.5,7.6-7.5c2.8,0,5.2,1.4,6.3,3.7l-1.2,0.7c-0.8-1.8-2.8-3-5.1-3
		c-3.5,0-6.1,2.7-6.1,6.1s2.6,6.1,6.1,6.1c2.3,0,4.2-1.2,5.2-3l1.2,0.7c-1.2,2.2-3.6,3.7-6.4,3.7
		C273.5,1084.2,270.3,1081,270.3,1076.7z"/>
	<path class="st3" d="M299.6,1074.9v9h-1.5v-9c0-2.6-1.5-4.4-4.2-4.4c-2.8,0-5,1.8-5,5.7v7.6h-1.4v-20.2h1.4v8.5
		c1.1-2.1,2.9-3.1,5.2-3.1C297.4,1069.2,299.6,1071.5,299.6,1074.9z"/>
	<path class="st3" d="M317.8,1069.5v14.4h-1.5v-3.3c-1.2,2.2-3.4,3.6-6.2,3.6c-4.1,0-7.5-3.3-7.5-7.5s3.4-7.5,7.5-7.5
		c2.8,0,5,1.4,6.2,3.6v-3.3H317.8z M316.3,1076.7c0-3.4-2.6-6.1-6.1-6.1c-3.4,0-6.1,2.7-6.1,6.1s2.7,6.1,6.1,6.1
		C313.6,1082.8,316.3,1080.1,316.3,1076.7z"/>
	<path class="st3" d="M334.4,1074.9v9h-1.5v-9c0-2.6-1.5-4.4-4.2-4.4c-2.8,0-5,1.8-5,5.7v7.6h-1.4v-14.4h1.4v2.7
		c1.1-2.1,2.9-3.1,5.2-3.1C332.2,1069.2,334.4,1071.5,334.4,1074.9z"/>
	<path class="st3" d="M352.7,1069.5v13.7c0,4.3-3.2,6.8-7.2,6.8c-3.4,0-5.8-1.4-6.8-3.5l1.3-0.7c0.7,1.5,2.4,2.8,5.5,2.8
		c3.6,0,5.7-2.1,5.7-5.4v-2.6c-1.2,2.2-3.4,3.7-6.2,3.7c-4.1,0-7.5-3.3-7.5-7.5s3.3-7.5,7.5-7.5c2.8,0,5,1.4,6.2,3.7v-3.3H352.7z
		 M351.2,1076.7c0-3.4-2.7-6.1-6.1-6.1c-3.4,0-6.1,2.7-6.1,6.1s2.7,6.1,6.1,6.1C348.6,1082.8,351.2,1080.1,351.2,1076.7z"/>
	<path class="st3" d="M370.7,1076.8c0,0.2,0,0.5,0,0.7h-13c0.3,3.3,2.8,5.4,6.1,5.4c2.4,0,4.1-1.1,5-2.6l1.3,0.7
		c-1.2,2-3.4,3.3-6.3,3.3c-4.4,0-7.6-3.2-7.6-7.5c0-4.2,3.1-7.5,7.5-7.5C368,1069.2,370.7,1072.8,370.7,1076.8z M357.6,1076h11.6
		c-0.3-3.5-2.8-5.5-5.6-5.5C360.3,1070.6,357.9,1072.8,357.6,1076z"/>
	<path class="st3" d="M393.1,1082.5v1.4h-11v-20.2h1.5v18.7H393.1z"/>
	<path class="st3" d="M395.3,1066c0-0.7,0.6-1.4,1.4-1.4c0.7,0,1.3,0.6,1.3,1.4c0,0.7-0.6,1.4-1.3,1.4
		C395.9,1067.4,395.3,1066.8,395.3,1066z M396,1069.5h1.4v14.4H396V1069.5z"/>
	<path class="st3" d="M411.5,1080.1c0,2.4-2.1,4.1-5.2,4.1c-2.9,0-4.8-1.4-5.5-3.2l1.2-0.7c0.5,1.6,2.1,2.5,4.2,2.5
		c2,0,3.7-0.9,3.7-2.7c0-3.9-8.7-1.7-8.7-6.9c0-2.3,2-4.1,4.9-4.1c2.3,0,4.1,1.1,4.9,2.9l-1.2,0.7c-0.6-1.5-2.1-2.2-3.7-2.2
		c-1.9,0-3.5,1-3.5,2.7C402.8,1077.1,411.5,1074.9,411.5,1080.1z"/>
	<path class="st3" d="M417.5,1070.9v9.4c0,2.5,1.4,2.6,4.3,2.3v1.3c-3.8,0.6-5.8-0.3-5.8-3.6v-9.4h-3.2v-1.4h3.2v-3.6l1.5-0.4v4h4.3
		v1.4H417.5z"/>
	<path class="st3" d="M424.6,1066c0-0.7,0.6-1.4,1.4-1.4c0.7,0,1.3,0.6,1.3,1.4c0,0.7-0.6,1.4-1.3,1.4
		C425.2,1067.4,424.6,1066.8,424.6,1066z M425.3,1069.5h1.4v14.4h-1.4V1069.5z"/>
	<path class="st3" d="M443.3,1074.9v9h-1.5v-9c0-2.6-1.5-4.4-4.2-4.4c-2.8,0-5,1.8-5,5.7v7.6h-1.4v-14.4h1.4v2.7
		c1.1-2.1,2.9-3.1,5.2-3.1C441.2,1069.2,443.3,1071.5,443.3,1074.9z"/>
	<path class="st3" d="M461.6,1069.5v13.7c0,4.3-3.2,6.8-7.2,6.8c-3.4,0-5.8-1.4-6.8-3.5l1.3-0.7c0.7,1.5,2.4,2.8,5.5,2.8
		c3.6,0,5.7-2.1,5.7-5.4v-2.6c-1.2,2.2-3.4,3.7-6.2,3.7c-4.1,0-7.5-3.3-7.5-7.5s3.3-7.5,7.5-7.5c2.8,0,5,1.4,6.2,3.7v-3.3H461.6z
		 M460.2,1076.7c0-3.4-2.7-6.1-6.1-6.1c-3.4,0-6.1,2.7-6.1,6.1s2.7,6.1,6.1,6.1C457.5,1082.8,460.2,1080.1,460.2,1076.7z"/>
	<path class="st3" d="M475.8,1080.1c0,2.4-2.1,4.1-5.2,4.1c-2.9,0-4.8-1.4-5.5-3.2l1.2-0.7c0.5,1.6,2.1,2.5,4.2,2.5
		c2,0,3.7-0.9,3.7-2.7c0-3.9-8.7-1.7-8.7-6.9c0-2.3,2-4.1,4.9-4.1c2.3,0,4.1,1.1,4.9,2.9l-1.2,0.7c-0.6-1.5-2.1-2.2-3.7-2.2
		c-1.9,0-3.5,1-3.5,2.7C467,1077.1,475.8,1074.9,475.8,1080.1z"/>
	<path class="st3" d="M185.2,1114.6c0-1.4,1.1-2.5,2.5-2.5c1.4,0,2.5,1.1,2.5,2.5c0,1.4-1.1,2.5-2.5,2.5
		C186.4,1117.1,185.2,1116,185.2,1114.6z"/>
	<path class="st3" d="M227.9,1124.7h-1.5v-17.9l-7.5,12.4h-0.3l-7.5-12.4v17.9h-1.5v-20.2h1.9l7.2,11.9l7.2-11.9h1.9V1124.7z"/>
	<path class="st3" d="M231.6,1117.5c0-4.3,3.4-7.5,7.6-7.5c4.2,0,7.5,3.3,7.5,7.5s-3.4,7.5-7.5,7.5
		C235,1125,231.6,1121.8,231.6,1117.5z M245.3,1117.5c0-3.4-2.6-6.1-6.1-6.1c-3.4,0-6.1,2.7-6.1,6.1s2.7,6.1,6.1,6.1
		C242.6,1123.6,245.3,1120.9,245.3,1117.5z"/>
	<path class="st3" d="M256.5,1110.1v1.4c-2.5,0-4.8,1.5-4.8,5.2v8h-1.4v-14.4h1.4v2.8C252.6,1110.9,254.5,1110.1,256.5,1110.1z"/>
	<path class="st3" d="M262.6,1111.7v9.4c0,2.5,1.4,2.6,4.3,2.3v1.3c-3.8,0.6-5.8-0.3-5.8-3.6v-9.4H258v-1.4h3.2v-3.6l1.5-0.4v4h4.3
		v1.4H262.6z"/>
	<path class="st3" d="M282.8,1110.3l-6.2,15.7c-1.1,2.8-3.2,4.6-5.7,4.4v-1.4c1.9,0.2,3.4-1.3,4.3-3.4l0.3-0.8l-6.6-14.7h1.6
		l5.8,12.8l5-12.8H282.8z"/>
	<path class="st3" d="M305,1119.6h-10.1l-2,5.1h-1.6l7.8-20.2h1.6l7.8,20.2h-1.6L305,1119.6z M304.4,1118.1l-4.5-11.7l-4.5,11.7
		H304.4z"/>
	<path class="st3" d="M309.9,1117.5c0-4.3,3.2-7.5,7.6-7.5c2.8,0,5.2,1.4,6.3,3.7l-1.2,0.7c-0.8-1.8-2.8-3-5.1-3
		c-3.5,0-6.1,2.7-6.1,6.1s2.6,6.1,6.1,6.1c2.3,0,4.2-1.2,5.2-3l1.2,0.7c-1.2,2.2-3.6,3.7-6.4,3.7
		C313.1,1125,309.9,1121.8,309.9,1117.5z"/>
	<path class="st3" d="M341,1110.3v14.4h-1.5v-3.3c-1.2,2.2-3.4,3.6-6.2,3.6c-4.1,0-7.5-3.3-7.5-7.5s3.4-7.5,7.5-7.5
		c2.8,0,5,1.4,6.2,3.6v-3.3H341z M339.6,1117.5c0-3.4-2.6-6.1-6.1-6.1c-3.4,0-6.1,2.7-6.1,6.1s2.7,6.1,6.1,6.1
		C336.9,1123.6,339.6,1120.9,339.6,1117.5z"/>
	<path class="st3" d="M359.6,1104.5v20.2h-1.4v-3.3c-1.2,2.2-3.4,3.7-6.2,3.7c-4.1,0-7.5-3.3-7.5-7.5s3.3-7.5,7.5-7.5
		c2.8,0,5,1.4,6.2,3.7v-9.1H359.6z M358.2,1117.5c0-3.4-2.7-6.1-6.1-6.1c-3.4,0-6.1,2.7-6.1,6.1s2.7,6.1,6.1,6.1
		C355.5,1123.6,358.2,1120.9,358.2,1117.5z"/>
	<path class="st3" d="M377.6,1117.6c0,0.2,0,0.5,0,0.7h-13c0.3,3.3,2.8,5.4,6.1,5.4c2.4,0,4.1-1.1,5-2.6l1.3,0.7
		c-1.2,2-3.4,3.3-6.3,3.3c-4.4,0-7.6-3.2-7.6-7.5c0-4.2,3.1-7.5,7.5-7.5C374.9,1110,377.6,1113.6,377.6,1117.6z M364.6,1116.8h11.6
		c-0.3-3.5-2.8-5.5-5.6-5.5C367.2,1111.4,364.9,1113.6,364.6,1116.8z"/>
	<path class="st3" d="M401.6,1115.6v9.1h-1.4v-9.1c0-2.7-1.6-4.2-3.8-4.2c-2.4,0-4.3,1.6-4.3,5.3v8h-1.4v-9.1c0-2.7-1.5-4.2-3.7-4.2
		c-2.4,0-4.5,1.6-4.5,5.3v8H381v-14.4h1.4v2.5c1.1-2,2.8-2.8,4.6-2.8c2.1,0,3.7,1,4.5,2.9c1-2,2.9-2.9,4.8-2.9
		C399.4,1110,401.6,1112,401.6,1115.6z"/>
	<path class="st3" d="M417.5,1110.3l-6.2,15.7c-1.1,2.8-3.2,4.6-5.7,4.4v-1.4c1.9,0.2,3.4-1.3,4.3-3.4l0.3-0.8l-6.6-14.7h1.6
		l5.8,12.8l5-12.8H417.5z"/>
	<path class="st3" d="M185.2,1155.4c0-1.4,1.1-2.5,2.5-2.5c1.4,0,2.5,1.1,2.5,2.5c0,1.4-1.1,2.5-2.5,2.5
		C186.4,1157.9,185.2,1156.8,185.2,1155.4z"/>
	<path class="st3" d="M227.9,1165.5h-1.5v-17.9l-7.5,12.4h-0.3l-7.5-12.4v17.9h-1.5v-20.2h1.9l7.2,11.9l7.2-11.9h1.9V1165.5z"/>
	<path class="st3" d="M231.6,1158.3c0-4.3,3.4-7.5,7.6-7.5c4.2,0,7.5,3.3,7.5,7.5s-3.4,7.5-7.5,7.5
		C235,1165.8,231.6,1162.6,231.6,1158.3z M245.3,1158.3c0-3.4-2.6-6.1-6.1-6.1c-3.4,0-6.1,2.7-6.1,6.1s2.7,6.1,6.1,6.1
		C242.6,1164.4,245.3,1161.7,245.3,1158.3z"/>
	<path class="st3" d="M256.5,1150.9v1.4c-2.5,0-4.8,1.5-4.8,5.2v8h-1.4v-14.4h1.4v2.8C252.6,1151.7,254.5,1150.9,256.5,1150.9z"/>
	<path class="st3" d="M262.6,1152.5v9.4c0,2.5,1.4,2.6,4.3,2.3v1.3c-3.8,0.6-5.8-0.3-5.8-3.6v-9.4H258v-1.4h3.2v-3.6l1.5-0.4v4h4.3
		v1.4H262.6z"/>
	<path class="st3" d="M282.8,1151.1l-6.2,15.7c-1.1,2.8-3.2,4.6-5.7,4.4v-1.4c1.9,0.2,3.4-1.3,4.3-3.4l0.3-0.8l-6.6-14.7h1.6
		l5.8,12.8l5-12.8H282.8z"/>
	<path class="st3" d="M292.2,1155.4c0-5.8,4.3-10.4,10.5-10.4c3.7,0,7,1.9,8.6,4.8l-1.4,0.8c-1.3-2.5-4.1-4.1-7.3-4.1
		c-5.3,0-9,4-9,8.9c0,5,3.7,8.9,9,8.9c3.2,0,6-1.7,7.3-4.2l1.4,0.8c-1.6,3-4.9,4.9-8.7,4.9C296.5,1165.8,292.2,1161.2,292.2,1155.4z
		"/>
	<path class="st3" d="M326.9,1156.5v9h-1.5v-9c0-2.6-1.5-4.4-4.2-4.4c-2.8,0-5,1.8-5,5.7v7.6h-1.4v-20.2h1.4v8.5
		c1.1-2.1,2.9-3.1,5.2-3.1C324.7,1150.8,326.9,1153.1,326.9,1156.5z"/>
	<path class="st3" d="M345.1,1151.1v14.4h-1.5v-3.3c-1.2,2.2-3.4,3.6-6.2,3.6c-4.1,0-7.5-3.3-7.5-7.5s3.4-7.5,7.5-7.5
		c2.8,0,5,1.4,6.2,3.6v-3.3H345.1z M343.6,1158.3c0-3.4-2.6-6.1-6.1-6.1c-3.4,0-6.1,2.7-6.1,6.1s2.7,6.1,6.1,6.1
		C341,1164.4,343.6,1161.7,343.6,1158.3z"/>
	<path class="st3" d="M348.9,1147.6c0-0.7,0.6-1.4,1.4-1.4c0.7,0,1.3,0.6,1.3,1.4c0,0.7-0.6,1.4-1.3,1.4
		C349.4,1149,348.9,1148.4,348.9,1147.6z M349.5,1151.1h1.4v14.4h-1.4V1151.1z"/>
	<path class="st3" d="M367.6,1156.5v9h-1.5v-9c0-2.6-1.5-4.4-4.2-4.4c-2.8,0-5,1.8-5,5.7v7.6h-1.4v-14.4h1.4v2.7
		c1.1-2.1,2.9-3.1,5.2-3.1C365.4,1150.8,367.6,1153.1,367.6,1156.5z"/>
	<path class="st3" d="M392,1146.8h-6.3v18.7h-1.6v-18.7h-6.3v-1.4H392V1146.8z"/>
	<path class="st3" d="M391.3,1158.3c0-4.3,3.4-7.5,7.6-7.5c4.2,0,7.5,3.3,7.5,7.5s-3.4,7.5-7.5,7.5
		C394.7,1165.8,391.3,1162.6,391.3,1158.3z M404.9,1158.3c0-3.4-2.6-6.1-6.1-6.1c-3.4,0-6.1,2.7-6.1,6.1s2.7,6.1,6.1,6.1
		C402.3,1164.4,404.9,1161.7,404.9,1158.3z"/>
	<path class="st3" d="M408.9,1158.3c0-4.3,3.4-7.5,7.6-7.5c4.2,0,7.5,3.3,7.5,7.5s-3.4,7.5-7.5,7.5
		C412.3,1165.8,408.9,1162.6,408.9,1158.3z M422.5,1158.3c0-3.4-2.6-6.1-6.1-6.1c-3.4,0-6.1,2.7-6.1,6.1s2.7,6.1,6.1,6.1
		C419.9,1164.4,422.5,1161.7,422.5,1158.3z"/>
	<path class="st3" d="M427.5,1144.5h1.4v21h-1.4V1144.5z"/>
	<path class="st3" d="M443,1161.7c0,2.4-2.1,4.1-5.2,4.1c-2.9,0-4.8-1.4-5.5-3.2l1.2-0.7c0.5,1.6,2.1,2.5,4.2,2.5
		c2,0,3.7-0.9,3.7-2.7c0-3.9-8.7-1.7-8.7-6.9c0-2.3,2-4.1,4.9-4.1c2.3,0,4.1,1.1,4.9,2.9l-1.2,0.7c-0.6-1.5-2.1-2.2-3.7-2.2
		c-1.9,0-3.5,1-3.5,2.7C434.3,1158.7,443,1156.5,443,1161.7z"/>
</g>
</svg>
